<?xml version="1.0" encoding="utf-8"?>
<!-- Generator: Adobe Illustrator 22.1.0, SVG Export Plug-In . SVG Version: 6.00 Build 0)  -->
<svg version="1.1" id="图层_1" xmlns="http://www.w3.org/2000/svg" xmlns:xlink="http://www.w3.org/1999/xlink" x="0px" y="0px"
	 viewBox="0 0 618.977 479.142" style="enable-background:new 0 0 618.977 479.142;" xml:space="preserve">
<style type="text/css">
	.st0{fill:#DBDADA;stroke:#000000;stroke-miterlimit:10;}
	.st1{font-family:'ArialMT';}
	.st2{font-size:30px;}
	.st3{fill:#CCCCCC;}
	.st4{font-family:'DengXian-Bold';}
	.st5{font-size:28px;}
	.st6{fill:#FFF38B;stroke:#000000;stroke-miterlimit:10;}
	.st7{fill:#FF5050;stroke:#000000;stroke-miterlimit:10;}
	.st8{font-size:22px;}
	.st9{font-size:36px;}
	.st10{fill:#FFFFFF;stroke:#000000;stroke-miterlimit:10;}
	.st11{font-family:'Arial-BoldItalicMT';}
</style>
<rect x="139.167" y="54.642" class="st0" width="49.875" height="49"/>
<rect x="189.042" y="54.642" class="st0" width="49.875" height="49"/>
<rect x="238.917" y="54.642" class="st0" width="49.875" height="49"/>
<rect x="288.792" y="54.642" class="st0" width="49.875" height="49"/>
<rect x="338.667" y="54.642" class="st0" width="49.875" height="49"/>
<rect x="388.542" y="54.642" class="st0" width="49.875" height="49"/>
<rect x="438.417" y="54.642" class="st0" width="49.875" height="49"/>
<rect x="488.292" y="54.642" class="st0" width="49.875" height="49"/>
<text transform="matrix(1 0 0 1 154.4731 90.8511)" class="st1 st2">A</text>
<text transform="matrix(1 0 0 1 254.4731 90.8511)" class="st1 st2">A</text>
<text transform="matrix(1 0 0 1 205 90.8081)" class="st1 st2">B</text>
<text transform="matrix(1 0 0 1 354.4731 90.8511)" class="st1 st2">A</text>
<text transform="matrix(1 0 0 1 304 90.8081)" class="st1 st2">B</text>
<text transform="matrix(1 0 0 1 403 90.4751)" class="st1 st2">B</text>
<rect x="538.292" y="54.642" class="st0" width="49.875" height="49"/>
<text transform="matrix(1 0 0 1 455 90.8081)" class="st1 st2">B</text>
<text transform="matrix(1 0 0 1 503.4731 90.8511)" class="st1 st2">C</text>
<text transform="matrix(1 0 0 1 553 90.8081)" class="st1 st2">A</text>
<text transform="matrix(1 0 0 1 25.333 85.8081)" class="st3 st4 st5">文本串</text>
<text transform="matrix(1 0 0 1 25.333 161.8081)" class="st3 st4 st5">模式串</text>
<rect x="31.167" y="448.642" class="st6" width="30" height="30"/>
<rect x="31.167" y="390.642" class="st7" width="30" height="30"/>
<text transform="matrix(1 0 0 1 78.333 410.1416)" class="st3 st4 st8">匹配失败</text>
<text transform="matrix(1 0 0 1 78.333 470.1416)" class="st3 st4 st8">匹配成功</text>
<text transform="matrix(1 0 0 1 0 29.1416)" class="st3 st4 st9">BF算法</text>
<rect x="138.667" y="129.642" class="st6" width="49.875" height="49"/>
<rect x="188.542" y="129.642" class="st6" width="49.875" height="49"/>
<rect x="238.417" y="129.642" class="st7" width="49.875" height="49"/>
<rect x="288.292" y="129.642" class="st10" width="49.875" height="49"/>
<text transform="matrix(1 0 0 1 154.4731 165.8511)" class="st1 st2">A</text>
<text transform="matrix(1 0 0 1 203 165.4751)" class="st1 st2">B</text>
<rect x="338.292" y="129.642" class="st10" width="49.875" height="49"/>
<text transform="matrix(1 0 0 1 255 165.8081)" class="st1 st2">B</text>
<text transform="matrix(1 0 0 1 303.4731 165.8511)" class="st1 st2">C</text>
<text transform="matrix(1 0 0 1 353 165.8081)" class="st1 st2">A</text>
<text transform="matrix(1 0 0 1 402.6665 165.4751)" class="st3 st11 st2">1</text>
<rect x="188.667" y="204.642" class="st7" width="49.875" height="49"/>
<rect x="238.542" y="204.642" class="st10" width="49.875" height="49"/>
<rect x="288.417" y="204.642" class="st10" width="49.875" height="49"/>
<rect x="338.292" y="204.642" class="st10" width="49.875" height="49"/>
<text transform="matrix(1 0 0 1 204.4731 240.8511)" class="st1 st2">A</text>
<text transform="matrix(1 0 0 1 253 240.4751)" class="st1 st2">B</text>
<rect x="388.292" y="204.642" class="st10" width="49.875" height="49"/>
<text transform="matrix(1 0 0 1 305 240.8081)" class="st1 st2">B</text>
<text transform="matrix(1 0 0 1 353.4731 240.8511)" class="st1 st2">C</text>
<text transform="matrix(1 0 0 1 403 240.8081)" class="st1 st2">A</text>
<text transform="matrix(1 0 0 1 452.6665 240.4751)" class="st3 st11 st2">2</text>
<rect x="238.667" y="279.642" class="st6" width="49.875" height="49"/>
<rect x="288.542" y="279.642" class="st6" width="49.875" height="49"/>
<rect x="338.417" y="279.642" class="st7" width="49.875" height="49"/>
<rect x="388.292" y="279.642" class="st10" width="49.875" height="49"/>
<text transform="matrix(1 0 0 1 254.4731 315.8511)" class="st1 st2">A</text>
<text transform="matrix(1 0 0 1 303 315.4751)" class="st1 st2">B</text>
<rect x="438.292" y="279.642" class="st10" width="49.875" height="49"/>
<text transform="matrix(1 0 0 1 355 315.8081)" class="st1 st2">B</text>
<text transform="matrix(1 0 0 1 403.4731 315.8511)" class="st1 st2">C</text>
<text transform="matrix(1 0 0 1 453 315.8081)" class="st1 st2">A</text>
<text transform="matrix(1 0 0 1 502.6665 315.4751)" class="st3 st11 st2">3</text>
<rect x="287.667" y="354.642" class="st7" width="49.875" height="49"/>
<rect x="337.542" y="354.642" class="st10" width="49.875" height="49"/>
<rect x="387.417" y="354.642" class="st10" width="49.875" height="49"/>
<rect x="437.292" y="354.642" class="st10" width="49.875" height="49"/>
<text transform="matrix(1 0 0 1 303.4731 390.8511)" class="st1 st2">A</text>
<text transform="matrix(1 0 0 1 352 390.4751)" class="st1 st2">B</text>
<rect x="487.292" y="354.642" class="st10" width="49.875" height="49"/>
<text transform="matrix(1 0 0 1 404 390.8081)" class="st1 st2">B</text>
<text transform="matrix(1 0 0 1 452.4731 390.8511)" class="st1 st2">C</text>
<text transform="matrix(1 0 0 1 502 390.8081)" class="st1 st2">A</text>
<text transform="matrix(1 0 0 1 551.6665 390.4751)" class="st3 st11 st2">4</text>
<rect x="337.667" y="429.642" class="st6" width="49.875" height="49"/>
<rect x="387.542" y="429.642" class="st6" width="49.875" height="49"/>
<rect x="437.417" y="429.642" class="st6" width="49.875" height="49"/>
<rect x="487.292" y="429.642" class="st6" width="49.875" height="49"/>
<text transform="matrix(1 0 0 1 353.4731 465.8511)" class="st1 st2">A</text>
<text transform="matrix(1 0 0 1 402 465.4751)" class="st1 st2">B</text>
<rect x="537.292" y="429.642" class="st6" width="49.875" height="49"/>
<text transform="matrix(1 0 0 1 454 465.8081)" class="st1 st2">B</text>
<text transform="matrix(1 0 0 1 502.4731 465.8511)" class="st1 st2">C</text>
<text transform="matrix(1 0 0 1 552 465.8081)" class="st1 st2">A</text>
<text transform="matrix(1 0 0 1 601.6665 465.4751)" class="st3 st11 st2">5</text>
</svg>
