<?xml version="1.0" encoding="utf-8"?>
<!-- Generator: Adobe Illustrator 22.1.0, SVG Export Plug-In . SVG Version: 6.00 Build 0)  -->
<svg version="1.1" id="图层_1" xmlns="http://www.w3.org/2000/svg" xmlns:xlink="http://www.w3.org/1999/xlink" x="0px" y="0px"
	 viewBox="0 0 622.35 254.14" style="enable-background:new 0 0 622.35 254.14;" xml:space="preserve">
<style type="text/css">
	.st0{fill:#FFF38B;stroke:#000000;stroke-miterlimit:10;}
	.st1{fill:#FF5050;stroke:#000000;stroke-miterlimit:10;}
	.st2{fill:#FFFFFF;stroke:#000000;stroke-miterlimit:10;}
	.st3{font-family:'ArialMT';}
	.st4{font-size:30px;}
	.st5{fill:#DBDADA;stroke:#000000;stroke-miterlimit:10;}
</style>
<g>
	<path d="M35.49,65.61l1.79-1.83c0.14,0.11,0.33,0.26,0.59,0.45c1.53,1.16,2.88,2.3,4.03,3.42l-1.67,1.71h8
		c1.13-0.02,2.18-0.11,3.14-0.29v2.72c-0.98-0.17-2.01-0.26-3.09-0.27h-2.43c-1.24,3.86-2.77,7.09-4.59,9.68
		c3.14,2.54,6.83,4.28,11.06,5.21c-0.98,0.77-1.71,1.71-2.21,2.8c-3.84-1.47-7.34-3.49-10.5-6.07c-2.5,2.25-6,4.4-10.5,6.44
		c-0.67-0.98-1.48-1.79-2.43-2.41c4.74-1.29,8.44-3.26,11.12-5.89c-2.31-2.73-4.18-5.98-5.62-9.76h-1.49
		c-1.05,0.02-2.1,0.1-3.16,0.25v-2.69c0.98,0.18,2,0.28,3.05,0.29h9.19C38.24,67.72,36.82,66.47,35.49,65.61z M35.08,71.52
		c1.05,2.72,2.51,5.29,4.39,7.72c1.45-2.08,2.63-4.65,3.55-7.72H35.08z"/>
	<path d="M64.11,84.51c-1.12,0.01-2.18,0.1-3.19,0.27v-2.35c-1.27,1.44-2.8,2.87-4.59,4.29c-0.58-0.84-1.35-1.55-2.3-2.13
		c4.05-1.96,7.57-6.15,10.58-12.56H59.8c-1.57,0.02-2.8,0.12-3.69,0.3v-2.69c0.86,0.17,2.09,0.27,3.69,0.29h6.38v-2.05
		c-0.01-1.37-0.09-2.66-0.25-3.88l3.1,0.36c0.37,0.05,0.57,0.18,0.58,0.38c0.01,0.2-0.15,0.44-0.5,0.71
		c-0.26,0.22-0.4,0.57-0.4,1.07v3.42h6.51c1.59-0.03,2.82-0.11,3.69-0.26v2.64c-1.04-0.16-2.27-0.25-3.69-0.27h-5.1
		c2.62,5.88,6.18,9.92,10.69,12.11c-0.97,0.48-1.95,1.22-2.94,2.21c-1.53-1.1-2.88-2.32-4.06-3.66v2.12
		c-0.89-0.19-1.96-0.29-3.19-0.3h-1.91v1.87c0,1.83,0.06,3.13,0.18,3.9h-2.94c0.12-0.88,0.19-2.18,0.22-3.9v-1.87H64.11z
		 M66.18,74.68c-1.61,3.04-3.29,5.55-5.04,7.53c1.18,0.11,2.17,0.17,2.97,0.19h2.08V74.68z M70.64,82.4
		c0.98-0.02,1.9-0.08,2.76-0.19c-1.91-2.26-3.47-4.79-4.68-7.59v7.78H70.64z"/>
	<path d="M84.61,76.55c1.22,0.13,2.25,0.21,3.08,0.23h6.13v-1.91h-4.65c-0.78,0.02-1.9,0.1-3.35,0.23c0.13-1.37,0.2-2.34,0.22-2.91
		v-1.26c-0.01-0.6-0.08-1.61-0.22-3.04c1.38,0.15,2.49,0.22,3.35,0.23h4.65v-0.67c0-0.52-0.06-1.56-0.19-3.12l2.67,0.37
		c0.56,0.06,0.85,0.18,0.89,0.34c0.05,0.16-0.13,0.42-0.56,0.75c-0.16,0.25-0.25,0.83-0.25,1.74v0.59h4.76
		c0.69-0.01,1.81-0.09,3.36-0.23c-0.13,1.1-0.21,1.96-0.23,2.58v1.71c0.03,0.71,0.1,1.68,0.23,2.91c-1.66-0.15-2.78-0.22-3.36-0.23
		h-4.76v1.91h6.15c0.42,0,1.46-0.08,3.12-0.23c-0.13,1.12-0.21,2.06-0.23,2.83v3.73c0,0.62,0.07,1.53,0.21,2.73h-2.88
		c0.11-0.63,0.16-1.12,0.16-1.48h-6.52v1.87c0.03,1.27,0.08,2.45,0.16,3.55h-2.91c0.09-0.87,0.15-2.05,0.19-3.55v-1.87h-6.47
		c0.04,0.52,0.1,1.19,0.21,2.01h-2.91c0.13-1.51,0.19-2.44,0.19-2.78v-4.28C84.8,78.33,84.72,77.4,84.61,76.55z M93.82,82.27v-3.39
		h-6.49v3.39H93.82z M88.5,70.22v2.56h5.32v-2.56H88.5z M96.37,70.22v2.56h5.43v-2.56H96.37z M96.37,78.88v3.39h6.55v-3.39H96.37z"
		/>
</g>
<g>
	<path d="M30.12,148.7h-0.45c-0.55-0.01-1.51,0.06-2.88,0.22v-2.54c1.36,0.14,2.32,0.21,2.88,0.22h0.9v-3.39
		c0-0.52-0.06-1.47-0.19-2.86l2.6,0.37c0.48,0.07,0.74,0.16,0.77,0.25c0.03,0.1,0.05,0.16,0.05,0.2c0,0.16-0.16,0.36-0.48,0.59
		c-0.18,0.06-0.27,0.55-0.26,1.45v3.39c0.57,0,1.55-0.07,2.94-0.22v2.57c-1.19-0.16-2.17-0.25-2.94-0.25v0.97
		c1.57,1.49,2.78,2.66,3.64,3.53l-2.01,2.02c-0.05-0.06-0.11-0.16-0.21-0.29c-0.62-0.92-1.09-1.56-1.42-1.93v9.91
		c-0.01,0.44,0.06,1.42,0.21,2.94h-2.88c0.13-1.45,0.19-2.43,0.19-2.94v-8.6c-0.56,1.19-1.35,2.68-2.38,4.48
		c-0.85-0.62-1.76-1.12-2.75-1.49C27.39,155.34,28.95,152.47,30.12,148.7z M38.53,143.52h1.15v-0.26c-0.01-0.53-0.09-1.48-0.23-2.86
		l2.94,0.37c0.44,0.05,0.67,0.18,0.68,0.37c0.02,0.19-0.18,0.42-0.6,0.67c-0.23,0.09-0.34,0.57-0.33,1.45v0.26h2.54v-0.26
		c0-0.59-0.07-1.53-0.22-2.82l2.91,0.36c0.37,0.05,0.58,0.17,0.62,0.38c0.02,0.22-0.14,0.45-0.48,0.68
		c-0.26,0.15-0.38,0.61-0.37,1.39v0.26h2c0.73,0,1.63-0.09,2.71-0.26v2.58c-1.17-0.15-2.07-0.23-2.71-0.23h-2
		c0.02,0.18,0.07,0.51,0.15,0.98c0.05,0.29,0.09,0.51,0.11,0.64c0.63,0,1.52-0.07,2.68-0.22c-0.16,1.19-0.25,2.01-0.25,2.49v4.17
		c0,0.67,0.08,1.53,0.25,2.56c-1.11-0.2-2.02-0.3-2.73-0.29h-1.97c0.05,0.25-0.16,0.5-0.62,0.75c-0.16,0.08-0.29,0.31-0.38,0.68
		h5.03c0.73-0.01,1.63-0.1,2.69-0.29v2.64c-1.1-0.16-2-0.25-2.69-0.26h-3.77c1.13,2,3.49,3.4,7.08,4.22
		c-0.96,0.72-1.68,1.55-2.16,2.5c-3.78-1.76-6.17-3.7-7.16-5.82c-0.63,1.92-3.13,3.86-7.51,5.8c-0.42-0.9-1.07-1.73-1.96-2.47
		c3.65-0.82,6.03-2.23,7.14-4.22h-3.64c-0.65,0-1.54,0.09-2.67,0.26v-2.61c1.23,0.17,2.12,0.26,2.67,0.26h4.33
		c0.03-0.2,0.04-0.46,0.04-0.79c0-0.22,0-0.43-0.01-0.64h-2.01c-0.5,0-1.44,0.1-2.8,0.29c0.17-1.05,0.25-1.9,0.25-2.56v-4.12
		c0.01-0.48-0.06-1.33-0.22-2.54c1.19,0.13,2,0.2,2.41,0.22c0.02-0.14,0.05-0.36,0.11-0.67c0.09-0.51,0.14-0.83,0.15-0.96h-1.15
		c-0.4-0.01-1.36,0.07-2.88,0.23v-2.56C37.01,143.43,37.97,143.51,38.53,143.52z M39.73,150.49h7.64v-1.2h-7.64V150.49z
		 M39.73,152.52v1.38h7.64v-1.38H39.73z M42.14,145.61c0.06,0.6,0.14,1.14,0.22,1.63h2.08c0.13-0.73,0.21-1.27,0.25-1.63H42.14z"/>
	<path d="M58.06,146.35h10.58c-0.05-0.37-0.1-1.11-0.16-2.2c-0.01-0.17-0.02-0.3-0.03-0.38c-0.03-0.83-0.13-1.98-0.31-3.45
		l3.42,0.37c0.27,0.05,0.41,0.16,0.41,0.33c0,0.17-0.15,0.41-0.44,0.71c-0.26,0.19-0.41,0.73-0.42,1.61
		c-0.02,0.86,0.04,1.86,0.18,3.01h5.32c0.39-0.01,1.28-0.09,2.65-0.23v2.53c-1.34-0.14-2.22-0.21-2.65-0.21h-5.1
		c0.59,6,2.1,10.53,4.51,13.59c0.22,0.29,0.44,0.43,0.68,0.4c0.23-0.02,0.39-0.19,0.47-0.49s0.23-1.3,0.45-2.97
		c0.94,0.84,1.83,1.5,2.68,1.97c-0.21,0.98-0.52,1.94-0.94,2.88c-0.54,1.12-1.34,1.69-2.42,1.71c-1.29-0.05-2.44-0.81-3.43-2.3
		c-2.48-3.67-4.02-8.6-4.62-14.79H58.06c-1.29,0.04-2.37,0.1-3.24,0.21v-2.56C55.8,146.2,56.88,146.29,58.06,146.35z M55.63,162.33
		c2-0.06,4-0.32,6.02-0.78v-8.18h-1.65c-0.98,0.04-2.01,0.11-3.08,0.22v-2.54c1.09,0.11,2.12,0.18,3.08,0.22h5.69
		c0.77-0.03,1.8-0.1,3.08-0.22v2.52c-0.91-0.09-1.94-0.15-3.08-0.19H64.2v7.53c2.11-0.44,4.21-1.08,6.29-1.91
		c-0.35,1.08-0.59,2.12-0.72,3.14c-4.47,0.77-8.89,1.84-13.28,3.19L55.63,162.33z M72.17,142.45l1.79-1.76
		c1.59,1.47,2.78,2.61,3.55,3.42l-1.9,1.93C74.55,144.71,73.4,143.52,72.17,142.45z"/>
	<path d="M84.61,152.55c1.22,0.13,2.25,0.21,3.08,0.23h6.13v-1.91h-4.65c-0.78,0.02-1.9,0.1-3.35,0.23c0.13-1.37,0.2-2.34,0.22-2.91
		v-1.26c-0.01-0.6-0.08-1.61-0.22-3.04c1.38,0.15,2.49,0.22,3.35,0.23h4.65v-0.67c0-0.52-0.06-1.56-0.19-3.12l2.67,0.37
		c0.56,0.06,0.85,0.18,0.89,0.34c0.05,0.16-0.13,0.42-0.56,0.75c-0.16,0.25-0.25,0.83-0.25,1.74v0.59h4.76
		c0.69-0.01,1.81-0.09,3.36-0.23c-0.13,1.1-0.21,1.96-0.23,2.58v1.71c0.03,0.71,0.1,1.68,0.23,2.91c-1.66-0.15-2.78-0.22-3.36-0.23
		h-4.76v1.91h6.15c0.42,0,1.46-0.08,3.12-0.23c-0.13,1.12-0.21,2.06-0.23,2.83v3.73c0,0.62,0.07,1.53,0.21,2.73h-2.88
		c0.11-0.63,0.16-1.12,0.16-1.48h-6.52v1.87c0.03,1.27,0.08,2.45,0.16,3.55h-2.91c0.09-0.87,0.15-2.05,0.19-3.55v-1.87h-6.47
		c0.04,0.52,0.1,1.19,0.21,2.01h-2.91c0.13-1.51,0.19-2.44,0.19-2.78v-4.28C84.8,154.33,84.72,153.4,84.61,152.55z M93.82,158.27
		v-3.39h-6.49v3.39H93.82z M88.5,146.22v2.56h5.32v-2.56H88.5z M96.37,146.22v2.56h5.43v-2.56H96.37z M96.37,154.88v3.39h6.55v-3.39
		H96.37z"/>
</g>
<g>
	<path d="M16.96,30.55L9.7,19.23L7.37,21.5v9.05H3.09V5.78h4.27v11.44l8.88-11.44h5.08l-8.47,10.67l9.28,14.1H16.96z"/>
	<path d="M30.88,5.78l5.92,14.55c0.3,0.71,0.93,2.48,1.88,5.29c0.35-1.14,1.01-2.9,1.97-5.29l5.75-14.55h5.78v24.77H48.3V14.13
		c0-0.73,0.01-1.46,0.04-2.19s0.05-1.47,0.07-2.21c-0.27,0.75-0.49,1.36-0.67,1.84s-0.56,1.48-1.16,3.01l-6.28,15.96h-3.23
		l-6.5-16.15c-0.69-1.75-1.27-3.3-1.72-4.66c0.02,0.73,0.04,1.45,0.06,2.16s0.03,1.44,0.03,2.16v16.49h-3.87V5.78H30.88z"/>
	<path d="M75.15,13.37c0,1.55-0.35,2.91-1.05,4.08s-1.71,2.09-3.04,2.74s-2.9,0.98-4.72,0.98h-3.73v9.37h-4.25V5.78h7.8
		c2.88,0,5.1,0.66,6.65,1.98S75.15,10.95,75.15,13.37z M70.86,13.41c0-1.43-0.43-2.54-1.29-3.34s-2.16-1.2-3.89-1.2h-3.06v9.25h3.2
		c1.59,0,2.83-0.41,3.72-1.22S70.86,14.92,70.86,13.41z"/>
	<path d="M82.97,11.77h-1.99c-0.69,0.01-1.79,0.12-3.3,0.32V8.75c1.52,0.21,2.66,0.32,3.41,0.32h2.5V5.39
		c-0.04-1.17-0.15-2.49-0.33-3.96l3.74,0.54c0.55,0.08,0.86,0.25,0.93,0.51c0.05,0.26-0.16,0.53-0.63,0.83
		c-0.34,0.11-0.5,0.8-0.47,2.07v3.67h0.79c0.87-0.02,2.02-0.13,3.46-0.32v3.34c-1.52-0.21-2.67-0.32-3.43-0.32h-0.83v1.48
		c1.72,1.44,3.56,3.24,5.5,5.4l-2.44,2.67c-1.16-1.71-2.18-3.01-3.06-3.88v13.1c0.02,1.24,0.13,2.64,0.32,4.18h-3.88
		c0.2-1.52,0.31-2.92,0.33-4.18V18.79c-0.87,2.29-1.93,4.53-3.18,6.73c-0.9-0.81-2.17-1.36-3.81-1.65
		C79.4,21.03,81.53,17,82.97,11.77z M99.02,22.87V18.1h-2.55c-0.63,0-1.78,0.12-3.43,0.37v-3.46c1.54,0.26,2.68,0.39,3.43,0.4h2.55
		v-4.46h-3.96c-0.82,0-1.96,0.12-3.43,0.35V7.85c1.44,0.23,2.58,0.36,3.43,0.39h1.34c-1.11-1.68-2.42-3.3-3.92-4.89l2.55-2.06
		c1.73,1.9,3.35,3.9,4.85,6.01L98.6,8.24h2.37c1.38-2.61,2.34-5.12,2.88-7.52l3.41,1.48c0.52,0.23,0.76,0.49,0.73,0.76
		s-0.33,0.51-0.91,0.71c-0.3,0.13-0.57,0.4-0.79,0.83c-0.2,0.4-0.73,1.39-1.58,2.99c-0.18,0.34-0.31,0.59-0.4,0.76h2.09
		c0.89-0.01,2.04-0.14,3.46-0.39v3.41c-1.51-0.21-2.65-0.32-3.43-0.32h-4.1v4.46h2.48c0.87-0.01,2.02-0.15,3.46-0.4v3.46
		c-1.63-0.25-2.78-0.37-3.46-0.37h-2.48v4.76h4.85c0.95-0.01,2.22-0.15,3.81-0.4v3.5c-1.62-0.22-2.89-0.33-3.81-0.33h-4.85v4.39
		c0.01,1.32,0.12,2.88,0.32,4.66H98.7c0.19-1.92,0.29-3.47,0.32-4.66v-4.39h-5.03c-0.86,0-2.08,0.11-3.67,0.33v-3.5
		c1.44,0.26,2.67,0.39,3.67,0.4H99.02z"/>
	<path d="M118.11,15.27c-0.23,0.42-0.62,1.04-1.14,1.85c-0.28,0.43-0.49,0.76-0.63,0.98c-1.07-0.68-2.34-1.23-3.81-1.65
		c3.61-3.81,6.14-8.98,7.59-15.5l3.53,1.28c0.52,0.19,0.78,0.42,0.8,0.69s-0.21,0.51-0.69,0.71c-0.35,0.15-0.63,0.55-0.83,1.2
		c-0.38,1.21-0.9,2.63-1.58,4.27v21.83c0.04,0.96,0.13,2.14,0.28,3.55h-3.81c0.15-1.34,0.25-2.52,0.3-3.55V15.27z M127.25,7.42
		h-0.28c-1.03,0.05-2.19,0.15-3.46,0.3V4.36c1.25,0.14,2.55,0.23,3.88,0.28h6.05c1.46-0.06,2.76-0.16,3.88-0.32v3.39
		c-1.13-0.14-2.42-0.24-3.88-0.3h-2.88c-0.29,1.37-0.69,2.84-1.18,4.39h2.55c1.08-0.05,2.26-0.15,3.53-0.32
		c0.01,10.16-3.47,17.33-10.44,21.52c-0.84-0.77-1.93-1.53-3.27-2.27c3.81-1.99,6.43-4.32,7.88-6.98c-1.34-1.32-2.64-2.49-3.92-3.5
		l2.55-2.34c0.86,0.83,1.75,1.73,2.67,2.71c0.57-2.13,0.86-4.15,0.86-6.05h-3.39c-0.82,2.02-1.91,4.07-3.27,6.15
		c-0.2-0.09-0.47-0.23-0.83-0.4c-1.03-0.54-1.97-0.9-2.81-1.07C124.11,16.9,126.03,12.95,127.25,7.42z M139.78,11.92v10.65
		c0.05,1.65,0.13,3,0.25,4.04h-3.78c0.12-1.5,0.2-2.85,0.25-4.04V11.81c-0.04-1.01-0.12-2.3-0.25-3.88l3.81,0.46
		c0.39,0.05,0.59,0.18,0.61,0.41s-0.15,0.54-0.5,0.92c-0.16,0.19-0.27,0.42-0.32,0.7C139.8,10.67,139.78,11.17,139.78,11.92z
		 M145.11,29.23c0.08,2.16-0.28,3.43-1.07,3.83c-0.62,0.54-2.65,0.87-6.1,1c-0.13-1.36-0.59-2.67-1.37-3.94
		c2.33,0.42,3.8,0.63,4.39,0.62c0.36,0,0.6-0.11,0.7-0.33c0.12-0.19,0.17-0.65,0.16-1.39V5.69c-0.02-0.93-0.11-2.34-0.25-4.25
		l3.85,0.47c0.39,0.05,0.59,0.2,0.61,0.45s-0.15,0.57-0.5,0.96c-0.2,0.2-0.32,0.42-0.35,0.67c-0.05,0.21-0.07,0.7-0.07,1.46V29.23z"
		/>
</g>
<rect x="138.17" y="129.64" class="st0" width="49.88" height="49"/>
<rect x="188.04" y="129.64" class="st0" width="49.88" height="49"/>
<rect x="237.92" y="129.64" class="st0" width="49.88" height="49"/>
<rect x="287.79" y="129.64" class="st0" width="49.88" height="49"/>
<rect x="337.67" y="129.64" class="st1" width="49.88" height="49"/>
<rect x="387.54" y="129.64" class="st2" width="49.88" height="49"/>
<text transform="matrix(1 0 0 1 153.4731 165.8511)" class="st3 st4">A</text>
<text transform="matrix(1 0 0 1 253.4731 165.8511)" class="st3 st4">C</text>
<text transform="matrix(1 0 0 1 204 165.8081)" class="st3 st4">B</text>
<text transform="matrix(1 0 0 1 353.4731 165.8511)" class="st3 st4">B</text>
<text transform="matrix(1 0 0 1 303 165.8081)" class="st3 st4">A</text>
<text transform="matrix(1 0 0 1 402 165.4751)" class="st3 st4">D</text>
<g>
	<path d="M466.47,166.14h-4.12v-15.51c-1.5,1.41-3.28,2.45-5.32,3.12v-3.74c1.07-0.35,2.24-1.02,3.5-2s2.12-2.13,2.59-3.44h3.34
		V166.14z"/>
</g>
<rect x="289.17" y="204.64" class="st0" width="49.88" height="49"/>
<rect x="339.04" y="204.64" class="st1" width="49.88" height="49"/>
<rect x="388.92" y="204.64" class="st2" width="49.88" height="49"/>
<rect x="438.79" y="204.64" class="st2" width="49.88" height="49"/>
<rect x="488.67" y="204.64" class="st2" width="49.88" height="49"/>
<rect x="538.54" y="204.64" class="st2" width="49.88" height="49"/>
<text transform="matrix(1 0 0 1 304.4731 240.8511)" class="st3 st4">A</text>
<text transform="matrix(1 0 0 1 404.4731 240.8511)" class="st3 st4">C</text>
<text transform="matrix(1 0 0 1 355 240.8081)" class="st3 st4">B</text>
<text transform="matrix(1 0 0 1 504.4731 240.8511)" class="st3 st4">B</text>
<text transform="matrix(1 0 0 1 454 240.8081)" class="st3 st4">A</text>
<text transform="matrix(1 0 0 1 553 240.4751)" class="st3 st4">D</text>
<g>
	<path d="M620.84,237.32v3.82h-14.43c0.16-1.45,0.63-2.81,1.41-4.11s2.32-3.01,4.63-5.15c1.86-1.73,2.99-2.9,3.41-3.52
		c0.57-0.85,0.85-1.69,0.85-2.52c0-0.92-0.25-1.62-0.74-2.12s-1.17-0.74-2.04-0.74c-0.86,0-1.54,0.26-2.05,0.78s-0.8,1.38-0.88,2.58
		l-4.1-0.41c0.24-2.27,1.01-3.89,2.3-4.88s2.9-1.48,4.83-1.48c2.12,0,3.78,0.57,5,1.71s1.82,2.56,1.82,4.26
		c0,0.97-0.17,1.89-0.52,2.76s-0.9,1.79-1.65,2.75c-0.5,0.63-1.4,1.55-2.7,2.74s-2.12,1.98-2.47,2.37s-0.63,0.77-0.84,1.14H620.84z"
		/>
</g>
<rect x="138.17" y="54.64" class="st5" width="49.88" height="49"/>
<rect x="188.04" y="54.64" class="st5" width="49.88" height="49"/>
<rect x="237.92" y="54.64" class="st5" width="49.88" height="49"/>
<rect x="287.79" y="54.64" class="st5" width="49.88" height="49"/>
<rect x="337.67" y="54.64" class="st5" width="49.88" height="49"/>
<rect x="387.54" y="54.64" class="st5" width="49.88" height="49"/>
<rect x="437.42" y="54.64" class="st5" width="49.88" height="49"/>
<rect x="487.29" y="54.64" class="st5" width="49.88" height="49"/>
<text transform="matrix(1 0 0 1 153.4731 90.8511)" class="st3 st4">A</text>
<text transform="matrix(1 0 0 1 253.4731 90.8511)" class="st3 st4">C</text>
<text transform="matrix(1 0 0 1 204 90.8081)" class="st3 st4">B</text>
<text transform="matrix(1 0 0 1 353.4731 90.8511)" class="st3 st4">C</text>
<text transform="matrix(1 0 0 1 303 90.8081)" class="st3 st4">A</text>
<text transform="matrix(1 0 0 1 402 90.4751)" class="st3 st4">C</text>
<rect x="537.29" y="54.64" class="st5" width="49.88" height="49"/>
<text transform="matrix(1 0 0 1 454 90.8081)" class="st3 st4">A</text>
<text transform="matrix(1 0 0 1 502.4731 90.8511)" class="st3 st4">B</text>
<text transform="matrix(1 0 0 1 552 90.8081)" class="st3 st4">D</text>
</svg>
