<?xml version="1.0" encoding="utf-8"?>
<!-- Generator: Adobe Illustrator 22.1.0, SVG Export Plug-In . SVG Version: 6.00 Build 0)  -->
<svg version="1.1" id="图层_1" xmlns="http://www.w3.org/2000/svg" xmlns:xlink="http://www.w3.org/1999/xlink" x="0px" y="0px"
	 viewBox="0 0 624.47 334.14" style="enable-background:new 0 0 624.47 334.14;" xml:space="preserve">
<style type="text/css">
	.st0{fill:#DBDADA;stroke:#000000;stroke-miterlimit:10;}
	.st1{font-family:'ArialMT';}
	.st2{font-size:30px;}
	.st3{fill:#FFF38B;stroke:#000000;stroke-miterlimit:10;}
	.st4{fill:#FF5050;stroke:#000000;stroke-miterlimit:10;}
	.st5{fill:#FFFFFF;stroke:#000000;stroke-miterlimit:10;}
</style>
<rect x="146.17" y="59.64" class="st0" width="49.88" height="49"/>
<rect x="196.04" y="59.64" class="st0" width="49.88" height="49"/>
<rect x="245.92" y="59.64" class="st0" width="49.88" height="49"/>
<rect x="295.79" y="59.64" class="st0" width="49.88" height="49"/>
<rect x="345.67" y="59.64" class="st0" width="49.88" height="49"/>
<rect x="395.54" y="59.64" class="st0" width="49.88" height="49"/>
<rect x="445.42" y="59.64" class="st0" width="49.88" height="49"/>
<rect x="495.29" y="59.64" class="st0" width="49.88" height="49"/>
<text transform="matrix(1 0 0 1 161.4731 95.8511)" class="st1 st2">A</text>
<text transform="matrix(1 0 0 1 261.4731 95.8511)" class="st1 st2">A</text>
<text transform="matrix(1 0 0 1 212 95.8081)" class="st1 st2">B</text>
<text transform="matrix(1 0 0 1 361.4731 95.8511)" class="st1 st2">A</text>
<text transform="matrix(1 0 0 1 311 95.8081)" class="st1 st2">B</text>
<text transform="matrix(1 0 0 1 410 95.4751)" class="st1 st2">B</text>
<rect x="545.29" y="59.64" class="st0" width="49.88" height="49"/>
<text transform="matrix(1 0 0 1 462 95.8081)" class="st1 st2">B</text>
<text transform="matrix(1 0 0 1 510.4731 95.8511)" class="st1 st2">C</text>
<text transform="matrix(1 0 0 1 560 95.8081)" class="st1 st2">A</text>
<g>
	<path d="M42.49,70.61l1.79-1.83c0.14,0.11,0.33,0.26,0.59,0.45c1.53,1.16,2.88,2.3,4.03,3.42l-1.67,1.71h8
		c1.13-0.02,2.18-0.11,3.14-0.29v2.72c-0.98-0.17-2.01-0.26-3.09-0.27h-2.43c-1.24,3.86-2.77,7.09-4.59,9.68
		c3.14,2.54,6.83,4.28,11.06,5.21c-0.98,0.77-1.71,1.71-2.21,2.8c-3.84-1.47-7.34-3.49-10.5-6.07c-2.5,2.25-6,4.4-10.5,6.44
		c-0.67-0.98-1.48-1.79-2.43-2.41c4.74-1.29,8.44-3.26,11.12-5.89c-2.31-2.73-4.18-5.98-5.62-9.76h-1.49
		c-1.05,0.02-2.1,0.1-3.16,0.25v-2.69c0.98,0.18,2,0.28,3.05,0.29h9.19C45.24,72.72,43.82,71.47,42.49,70.61z M42.08,76.52
		c1.05,2.72,2.51,5.29,4.39,7.72c1.45-2.08,2.63-4.65,3.55-7.72H42.08z"/>
	<path d="M71.11,89.51c-1.12,0.01-2.18,0.1-3.19,0.27v-2.35c-1.27,1.44-2.8,2.87-4.59,4.29c-0.58-0.84-1.35-1.55-2.3-2.13
		c4.05-1.96,7.57-6.15,10.58-12.56H66.8c-1.57,0.02-2.8,0.12-3.69,0.3v-2.69c0.86,0.17,2.09,0.27,3.69,0.29h6.38v-2.05
		c-0.01-1.37-0.09-2.66-0.25-3.88l3.1,0.36c0.37,0.05,0.57,0.18,0.58,0.38c0.01,0.2-0.15,0.44-0.5,0.71
		c-0.26,0.22-0.4,0.57-0.4,1.07v3.42h6.51c1.59-0.03,2.82-0.11,3.69-0.26v2.64c-1.04-0.16-2.27-0.25-3.69-0.27h-5.1
		c2.62,5.88,6.18,9.92,10.69,12.11c-0.97,0.48-1.95,1.22-2.94,2.21c-1.53-1.1-2.88-2.32-4.06-3.66v2.12
		c-0.89-0.19-1.96-0.29-3.19-0.3h-1.91v1.87c0,1.83,0.06,3.13,0.18,3.9h-2.94c0.12-0.88,0.19-2.18,0.22-3.9v-1.87H71.11z
		 M73.18,79.68c-1.61,3.04-3.29,5.55-5.04,7.53c1.18,0.11,2.17,0.17,2.97,0.19h2.08V79.68z M77.64,87.4
		c0.98-0.02,1.9-0.08,2.76-0.19c-1.91-2.26-3.47-4.79-4.68-7.59v7.78H77.64z"/>
	<path d="M91.61,81.55c1.22,0.13,2.25,0.21,3.08,0.23h6.13v-1.91h-4.65c-0.78,0.02-1.9,0.1-3.35,0.23c0.13-1.37,0.2-2.34,0.22-2.91
		v-1.26c-0.01-0.6-0.08-1.61-0.22-3.04c1.38,0.15,2.49,0.22,3.35,0.23h4.65v-0.67c0-0.52-0.06-1.56-0.19-3.12l2.67,0.37
		c0.56,0.06,0.85,0.18,0.89,0.34c0.05,0.16-0.13,0.42-0.56,0.75c-0.16,0.25-0.25,0.83-0.25,1.74v0.59h4.76
		c0.69-0.01,1.81-0.09,3.36-0.23c-0.13,1.1-0.21,1.96-0.23,2.58v1.71c0.03,0.71,0.1,1.68,0.23,2.91c-1.66-0.15-2.78-0.22-3.36-0.23
		h-4.76v1.91h6.15c0.42,0,1.46-0.08,3.12-0.23c-0.13,1.12-0.21,2.06-0.23,2.83v3.73c0,0.62,0.07,1.53,0.21,2.73h-2.88
		c0.11-0.63,0.16-1.12,0.16-1.48h-6.52v1.87c0.03,1.27,0.08,2.45,0.16,3.55h-2.91c0.09-0.87,0.15-2.05,0.19-3.55v-1.87h-6.47
		c0.04,0.52,0.1,1.19,0.21,2.01h-2.91c0.13-1.51,0.19-2.44,0.19-2.78v-4.28C91.8,83.33,91.72,82.4,91.61,81.55z M100.82,87.27v-3.39
		h-6.49v3.39H100.82z M95.5,75.22v2.56h5.32v-2.56H95.5z M103.37,75.22v2.56h5.43v-2.56H103.37z M103.37,83.88v3.39h6.55v-3.39
		H103.37z"/>
</g>
<g>
	<path d="M37.12,153.7h-0.45c-0.55-0.01-1.51,0.06-2.88,0.22v-2.54c1.36,0.14,2.32,0.21,2.88,0.22h0.9v-3.39
		c0-0.52-0.06-1.47-0.19-2.86l2.6,0.37c0.48,0.07,0.74,0.16,0.77,0.25c0.03,0.1,0.05,0.16,0.05,0.2c0,0.16-0.16,0.36-0.48,0.59
		c-0.18,0.06-0.27,0.55-0.26,1.45v3.39c0.57,0,1.55-0.07,2.94-0.22v2.57c-1.19-0.16-2.17-0.25-2.94-0.25v0.97
		c1.57,1.49,2.78,2.66,3.64,3.53l-2.01,2.02c-0.05-0.06-0.11-0.16-0.21-0.29c-0.62-0.92-1.09-1.56-1.42-1.93v9.91
		c-0.01,0.44,0.06,1.42,0.21,2.94h-2.88c0.13-1.45,0.19-2.43,0.19-2.94v-8.6c-0.56,1.19-1.35,2.68-2.38,4.48
		c-0.85-0.62-1.76-1.12-2.75-1.49C34.39,160.34,35.95,157.47,37.12,153.7z M45.53,148.52h1.15v-0.26c-0.01-0.53-0.09-1.48-0.23-2.86
		l2.94,0.37c0.44,0.05,0.67,0.18,0.68,0.37c0.02,0.19-0.18,0.42-0.6,0.67c-0.23,0.09-0.34,0.57-0.33,1.45v0.26h2.54v-0.26
		c0-0.59-0.07-1.53-0.22-2.82l2.91,0.36c0.37,0.05,0.58,0.17,0.62,0.38c0.02,0.22-0.14,0.45-0.48,0.68
		c-0.26,0.15-0.38,0.61-0.37,1.39v0.26h2c0.73,0,1.63-0.09,2.71-0.26v2.58c-1.17-0.15-2.07-0.23-2.71-0.23h-2
		c0.02,0.18,0.07,0.51,0.15,0.98c0.05,0.29,0.09,0.51,0.11,0.64c0.63,0,1.52-0.07,2.68-0.22c-0.16,1.19-0.25,2.01-0.25,2.49v4.17
		c0,0.67,0.08,1.53,0.25,2.56c-1.11-0.2-2.02-0.3-2.73-0.29h-1.97c0.05,0.25-0.16,0.5-0.62,0.75c-0.16,0.08-0.29,0.31-0.38,0.68
		h5.03c0.73-0.01,1.63-0.1,2.69-0.29v2.64c-1.1-0.16-2-0.25-2.69-0.26h-3.77c1.13,2,3.49,3.4,7.08,4.22
		c-0.96,0.72-1.68,1.55-2.16,2.5c-3.78-1.76-6.17-3.7-7.16-5.82c-0.63,1.92-3.13,3.86-7.51,5.8c-0.42-0.9-1.07-1.73-1.96-2.47
		c3.65-0.82,6.03-2.23,7.14-4.22h-3.64c-0.65,0-1.54,0.09-2.67,0.26v-2.61c1.23,0.17,2.12,0.26,2.67,0.26h4.33
		c0.03-0.2,0.04-0.46,0.04-0.79c0-0.22,0-0.43-0.01-0.64h-2.01c-0.5,0-1.44,0.1-2.8,0.29c0.17-1.05,0.25-1.9,0.25-2.56v-4.12
		c0.01-0.48-0.06-1.33-0.22-2.54c1.19,0.13,2,0.2,2.41,0.22c0.02-0.14,0.05-0.36,0.11-0.67c0.09-0.51,0.14-0.83,0.15-0.96h-1.15
		c-0.4-0.01-1.36,0.07-2.88,0.23v-2.56C44.01,148.43,44.97,148.51,45.53,148.52z M46.73,155.49h7.64v-1.2h-7.64V155.49z
		 M46.73,157.52v1.38h7.64v-1.38H46.73z M49.14,150.61c0.06,0.6,0.14,1.14,0.22,1.63h2.08c0.13-0.73,0.21-1.27,0.25-1.63H49.14z"/>
	<path d="M65.06,151.35h10.58c-0.05-0.37-0.1-1.11-0.16-2.2c-0.01-0.17-0.02-0.3-0.03-0.38c-0.03-0.83-0.13-1.98-0.31-3.45
		l3.42,0.37c0.27,0.05,0.41,0.16,0.41,0.33c0,0.17-0.15,0.41-0.44,0.71c-0.26,0.19-0.41,0.73-0.42,1.61
		c-0.02,0.86,0.04,1.86,0.18,3.01h5.32c0.39-0.01,1.28-0.09,2.65-0.23v2.53c-1.34-0.14-2.22-0.21-2.65-0.21h-5.1
		c0.59,6,2.1,10.53,4.51,13.59c0.22,0.29,0.44,0.43,0.68,0.4c0.23-0.02,0.39-0.19,0.47-0.49s0.23-1.3,0.45-2.97
		c0.94,0.84,1.83,1.5,2.68,1.97c-0.21,0.98-0.52,1.94-0.94,2.88c-0.54,1.12-1.34,1.69-2.42,1.71c-1.29-0.05-2.44-0.81-3.43-2.3
		c-2.48-3.67-4.02-8.6-4.62-14.79H65.06c-1.29,0.04-2.37,0.1-3.24,0.21v-2.56C62.8,151.2,63.88,151.29,65.06,151.35z M62.63,167.33
		c2-0.06,4-0.32,6.02-0.78v-8.18h-1.65c-0.98,0.04-2.01,0.11-3.08,0.22v-2.54c1.09,0.11,2.12,0.18,3.08,0.22h5.69
		c0.77-0.03,1.8-0.1,3.08-0.22v2.52c-0.91-0.09-1.94-0.15-3.08-0.19H71.2v7.53c2.11-0.44,4.21-1.08,6.29-1.91
		c-0.35,1.08-0.59,2.12-0.72,3.14c-4.47,0.77-8.89,1.84-13.28,3.19L62.63,167.33z M79.17,147.45l1.79-1.76
		c1.59,1.47,2.78,2.61,3.55,3.42l-1.9,1.93C81.55,149.71,80.4,148.52,79.17,147.45z"/>
	<path d="M91.61,157.55c1.22,0.13,2.25,0.21,3.08,0.23h6.13v-1.91h-4.65c-0.78,0.02-1.9,0.1-3.35,0.23c0.13-1.37,0.2-2.34,0.22-2.91
		v-1.26c-0.01-0.6-0.08-1.61-0.22-3.04c1.38,0.15,2.49,0.22,3.35,0.23h4.65v-0.67c0-0.52-0.06-1.56-0.19-3.12l2.67,0.37
		c0.56,0.06,0.85,0.18,0.89,0.34c0.05,0.16-0.13,0.42-0.56,0.75c-0.16,0.25-0.25,0.83-0.25,1.74v0.59h4.76
		c0.69-0.01,1.81-0.09,3.36-0.23c-0.13,1.1-0.21,1.96-0.23,2.58v1.71c0.03,0.71,0.1,1.68,0.23,2.91c-1.66-0.15-2.78-0.22-3.36-0.23
		h-4.76v1.91h6.15c0.42,0,1.46-0.08,3.12-0.23c-0.13,1.12-0.21,2.06-0.23,2.83v3.73c0,0.62,0.07,1.53,0.21,2.73h-2.88
		c0.11-0.63,0.16-1.12,0.16-1.48h-6.52v1.87c0.03,1.27,0.08,2.45,0.16,3.55h-2.91c0.09-0.87,0.15-2.05,0.19-3.55v-1.87h-6.47
		c0.04,0.52,0.1,1.19,0.21,2.01h-2.91c0.13-1.51,0.19-2.44,0.19-2.78v-4.28C91.8,159.33,91.72,158.4,91.61,157.55z M100.82,163.27
		v-3.39h-6.49v3.39H100.82z M95.5,151.22v2.56h5.32v-2.56H95.5z M103.37,151.22v2.56h5.43v-2.56H103.37z M103.37,159.88v3.39h6.55
		v-3.39H103.37z"/>
</g>
<rect x="38.17" y="298.64" class="st3" width="30" height="30"/>
<rect x="38.17" y="240.64" class="st4" width="30" height="30"/>
<g>
	<path d="M87.77,244.66c0.97,0.14,1.9,0.21,2.79,0.2H102c0.85-0.01,1.75-0.08,2.69-0.2v2.09c-0.87-0.13-1.77-0.19-2.69-0.19H99.9
		v8.27c-0.04,0.35,0.29,0.52,1.01,0.5c0.52,0.01,0.87-0.14,1.05-0.47c0.21-0.29,0.41-1,0.6-2.13c0.59,0.9,1.22,1.55,1.89,1.98
		c-0.44,1.18-0.86,1.88-1.25,2.11c-0.38,0.3-1.16,0.44-2.34,0.43c-1.32,0.01-2.14-0.12-2.46-0.4c-0.19-0.14-0.32-0.34-0.39-0.61
		c-0.07-0.24-0.11-0.64-0.11-1.19v-8.49h-2.4v3.85c0.02,2.02-0.24,3.56-0.78,4.63c-0.5,1.1-1.58,2.33-3.24,3.71
		c-0.37-0.54-0.86-1.04-1.49-1.51V260h12.89c0.81,0,1.65-0.07,2.51-0.2v2.07c-0.91-0.12-1.75-0.19-2.51-0.19H90.52
		c-0.59-0.01-1.5,0.06-2.75,0.19c0.14-0.77,0.2-1.66,0.2-2.66v-11.88C87.98,246.9,87.91,246.02,87.77,244.66z M90,246.56v10.51
		c2.31-1.38,3.48-3.59,3.52-6.66v-3.85H90z"/>
	<path d="M118.6,244.38v2c-0.93-0.11-1.62-0.17-2.07-0.19h-0.86v1.96h0.53c0.79-0.03,1.54-0.09,2.25-0.17
		c-0.09,0.93-0.14,1.62-0.15,2.06v9.82c0.03,0.79,0.08,1.64,0.15,2.52h-2.18c0.01-0.06,0.02-0.17,0.03-0.31
		c0.09-0.69,0.13-1.1,0.13-1.25h-5.63c0.01,0.08,0.02,0.21,0.03,0.4c0.06,0.82,0.1,1.37,0.14,1.67h-2.16
		c0.08-0.77,0.14-1.61,0.18-2.52v-10.24c-0.02-0.49-0.08-1.21-0.18-2.15c0.72,0.09,1.48,0.15,2.29,0.17h0.46v-1.96h-1.05
		c-0.52,0.01-1.22,0.07-2.12,0.17v-1.98c0.8,0.11,1.51,0.17,2.12,0.19h6C117.17,244.55,117.86,244.48,118.6,244.38z M111.78,255.71
		c-0.27-0.22-0.6-0.48-0.99-0.76v1.07h5.65v-1.32c-0.21,0.03-0.54,0.04-0.99,0.04c-0.62,0.01-1.01-0.15-1.19-0.47
		c-0.1-0.16-0.17-0.38-0.2-0.67c-0.04-0.25-0.05-0.66-0.05-1.24v-2.71h-0.77C113.3,252.51,112.82,254.53,111.78,255.71z
		 M110.79,249.66v4.45c0.3-0.5,0.5-1.06,0.6-1.69c0.11-0.6,0.16-1.52,0.16-2.76H110.79z M116.44,257.63h-5.65v1.58h5.65V257.63z
		 M113.23,246.19v1.96H114v-1.96H113.23z M115.92,253.14c0.26,0,0.44-0.01,0.53-0.02v-3.46h-0.77v2.93
		C115.66,252.97,115.74,253.15,115.92,253.14z M127.22,252.74c-0.64-0.09-1.41-0.15-2.31-0.17h-3.49v7.14
		c-0.02,0.26,0.08,0.44,0.31,0.51c0.23,0.08,0.73,0.11,1.49,0.11c1.35,0.01,2.21-0.21,2.6-0.68c0.32-0.32,0.48-0.9,0.48-1.73
		c0-0.28-0.02-0.59-0.05-0.92c0.64,0.34,1.13,0.57,1.47,0.67c0.34,0.11,0.68,0.16,1.04,0.13c-0.14,1.82-0.56,2.99-1.28,3.52
		c-0.67,0.61-2.01,0.9-4.03,0.88c-1.59,0.01-2.66-0.15-3.22-0.5c-0.56-0.32-0.83-0.96-0.81-1.94v-6.47
		c-0.04-0.95-0.09-1.8-0.17-2.55c0.87,0.09,1.73,0.14,2.56,0.17h3.25v-4.81h-3.37c-0.99,0.02-1.84,0.07-2.55,0.15v-2.01
		c0.71,0.09,1.56,0.16,2.55,0.2h2.98c0.84-0.04,1.69-0.09,2.55-0.17c-0.08,0.81-0.14,1.62-0.17,2.42v3.51
		C127.07,251.16,127.12,252,127.22,252.74z"/>
	<path d="M130.55,261.72c4.5-0.62,7.36-3.01,8.57-7.18h-5.34c-0.26,0-0.98,0.05-2.16,0.15v-2c0.75,0.1,1.47,0.17,2.16,0.19h5.59
		c0.08-0.84,0.15-1.99,0.21-3.47h-3.97c-0.26,0.56-0.72,1.37-1.38,2.43c-0.05,0.07-0.09,0.13-0.11,0.16c-0.8-0.3-1.59-0.53-2.35-0.7
		c1.68-1.83,2.84-4.39,3.46-7.68l2.37,0.84c0.24,0.09,0.35,0.21,0.33,0.39c-0.03,0.17-0.18,0.32-0.44,0.47
		c-0.27,0.12-0.53,0.5-0.77,1.14l-0.48,1.3h3.34v-1.93c-0.01-1.03-0.07-1.97-0.17-2.81l2.35,0.35c0.24,0.04,0.37,0.09,0.39,0.16
		c0.02,0.07,0.03,0.12,0.03,0.15c0,0.12-0.08,0.28-0.24,0.47c-0.23,0.26-0.34,0.72-0.33,1.39v2.22h4.55
		c0.52-0.01,1.21-0.07,2.08-0.17v2.02c-1.17-0.13-1.87-0.19-2.08-0.19h-4.55c-0.04,1.36-0.1,2.52-0.18,3.47h5.94
		c0.49-0.01,1.19-0.07,2.09-0.17v2c-0.9-0.1-1.59-0.16-2.09-0.17h-5.3c1.55,3.54,4.33,5.82,8.31,6.82c-0.86,0.73-1.46,1.39-1.8,1.98
		c-3.9-1.84-6.52-4.19-7.85-7.04c-1.03,3.27-3.89,5.75-8.56,7.43C131.83,263.23,131.28,262.56,130.55,261.72z"/>
	<path d="M155.69,257.53h-2.27c0.09-1.17,0.14-2.02,0.13-2.55v-8.25c0.01-0.44-0.04-1.27-0.15-2.49c1.04,0.13,1.83,0.19,2.37,0.18
		h3.7c0.57,0.01,1.44-0.05,2.61-0.18c-0.12,1.15-0.18,1.99-0.17,2.54v5.44c1.43-2.89,2.35-6.05,2.75-9.46l2,0.5
		c0.44,0.12,0.67,0.22,0.69,0.3c0.02,0.08,0.04,0.13,0.04,0.15c0,0.14-0.15,0.29-0.46,0.45c-0.26,0.17-0.42,0.44-0.48,0.79
		c-0.13,0.67-0.38,1.67-0.75,3h4.49c0.49,0.01,1.26-0.05,2.31-0.18v1.96c-0.93-0.12-1.69-0.18-2.27-0.17
		c-0.3,3.32-1.04,6.08-2.22,8.27c1.2,1.58,2.88,2.88,5.04,3.9c-0.81,0.51-1.46,1.07-1.96,1.69c-1.86-1.48-3.27-2.77-4.22-3.89
		c-1.43,1.4-3.29,2.78-5.56,4.11c-0.39-0.67-0.93-1.22-1.63-1.68c0.31-0.11,0.76-0.3,1.32-0.57c-1-1.18-2.05-2.25-3.15-3.19
		c-0.63,1.54-2.14,3.28-4.53,5.21c-0.44-0.54-1.01-1.04-1.69-1.49c2.46-1.39,4.04-3.18,4.73-5.37c0.3-1.63,0.46-3.4,0.48-5.32
		c0.01-1.11-0.04-2.07-0.15-2.87l2.13,0.46c0.37,0.09,0.58,0.2,0.61,0.35c0.04,0.15-0.1,0.34-0.41,0.57h0.02
		c-0.14,0.11-0.21,0.3-0.2,0.56c-0.01,2.85-0.2,5.06-0.57,6.64c-0.01,0.04-0.02,0.09-0.04,0.16c-0.04,0.14-0.06,0.25-0.09,0.32
		l0.82-0.82c1.53,1.4,2.7,2.54,3.49,3.39l-1.36,1.34c1.98-0.96,3.52-2.12,4.6-3.48c-0.73-1.46-1.34-3.1-1.83-4.93l-0.17,0.35
		c-0.58-0.24-1.17-0.4-1.76-0.46v1.8c0,0.62,0.05,1.45,0.15,2.51h-2.23c0.11-1.02,0.16-1.86,0.15-2.51v-8.6h-4.47v8.96
		C155.5,255.66,155.57,256.51,155.69,257.53z M168.21,249.55h-3c-0.14,0.5-0.35,1.07-0.63,1.72c0.09-0.01,0.23-0.02,0.41-0.04
		c0.15-0.02,0.37-0.04,0.64-0.06c0.26,1.88,0.66,3.43,1.19,4.64C167.59,254.01,168.05,251.93,168.21,249.55z"/>
</g>
<g>
	<path d="M87.77,304.66c0.97,0.14,1.9,0.21,2.79,0.2H102c0.85-0.01,1.75-0.08,2.69-0.2v2.09c-0.87-0.13-1.77-0.19-2.69-0.19H99.9
		v8.27c-0.04,0.35,0.29,0.52,1.01,0.5c0.52,0.01,0.87-0.14,1.05-0.47c0.21-0.29,0.41-1,0.6-2.13c0.59,0.9,1.22,1.55,1.89,1.98
		c-0.44,1.18-0.86,1.88-1.25,2.11c-0.38,0.3-1.16,0.44-2.34,0.43c-1.32,0.01-2.14-0.12-2.46-0.4c-0.19-0.14-0.32-0.34-0.39-0.61
		c-0.07-0.24-0.11-0.64-0.11-1.19v-8.49h-2.4v3.85c0.02,2.02-0.24,3.56-0.78,4.63c-0.5,1.1-1.58,2.33-3.24,3.71
		c-0.37-0.54-0.86-1.04-1.49-1.51V320h12.89c0.81,0,1.65-0.07,2.51-0.2v2.07c-0.91-0.12-1.75-0.19-2.51-0.19H90.52
		c-0.59-0.01-1.5,0.06-2.75,0.19c0.14-0.77,0.2-1.66,0.2-2.66v-11.88C87.98,306.9,87.91,306.02,87.77,304.66z M90,306.56v10.51
		c2.31-1.38,3.48-3.59,3.52-6.66v-3.85H90z"/>
	<path d="M118.6,304.38v2c-0.93-0.11-1.62-0.17-2.07-0.19h-0.86v1.96h0.53c0.79-0.03,1.54-0.09,2.25-0.17
		c-0.09,0.93-0.14,1.62-0.15,2.06v9.82c0.03,0.79,0.08,1.64,0.15,2.52h-2.18c0.01-0.06,0.02-0.17,0.03-0.31
		c0.09-0.69,0.13-1.1,0.13-1.25h-5.63c0.01,0.08,0.02,0.21,0.03,0.4c0.06,0.82,0.1,1.37,0.14,1.67h-2.16
		c0.08-0.77,0.14-1.61,0.18-2.52v-10.24c-0.02-0.49-0.08-1.21-0.18-2.15c0.72,0.09,1.48,0.15,2.29,0.17h0.46v-1.96h-1.05
		c-0.52,0.01-1.22,0.07-2.12,0.17v-1.98c0.8,0.11,1.51,0.17,2.12,0.19h6C117.17,304.55,117.86,304.48,118.6,304.38z M111.78,315.71
		c-0.27-0.22-0.6-0.48-0.99-0.76v1.07h5.65v-1.32c-0.21,0.03-0.54,0.04-0.99,0.04c-0.62,0.01-1.01-0.15-1.19-0.47
		c-0.1-0.16-0.17-0.38-0.2-0.67c-0.04-0.25-0.05-0.66-0.05-1.24v-2.71h-0.77C113.3,312.51,112.82,314.53,111.78,315.71z
		 M110.79,309.66v4.45c0.3-0.5,0.5-1.06,0.6-1.69c0.11-0.6,0.16-1.52,0.16-2.76H110.79z M116.44,317.63h-5.65v1.58h5.65V317.63z
		 M113.23,306.19v1.96H114v-1.96H113.23z M115.92,313.14c0.26,0,0.44-0.01,0.53-0.02v-3.46h-0.77v2.93
		C115.66,312.97,115.74,313.15,115.92,313.14z M127.22,312.74c-0.64-0.09-1.41-0.15-2.31-0.17h-3.49v7.14
		c-0.02,0.26,0.08,0.44,0.31,0.51c0.23,0.08,0.73,0.11,1.49,0.11c1.35,0.01,2.21-0.21,2.6-0.68c0.32-0.32,0.48-0.9,0.48-1.73
		c0-0.28-0.02-0.59-0.05-0.92c0.64,0.34,1.13,0.57,1.47,0.67c0.34,0.11,0.68,0.16,1.04,0.13c-0.14,1.82-0.56,2.99-1.28,3.52
		c-0.67,0.61-2.01,0.9-4.03,0.88c-1.59,0.01-2.66-0.15-3.22-0.5c-0.56-0.32-0.83-0.96-0.81-1.94v-6.47
		c-0.04-0.95-0.09-1.8-0.17-2.55c0.87,0.09,1.73,0.14,2.56,0.17h3.25v-4.81h-3.37c-0.99,0.02-1.84,0.07-2.55,0.15v-2.01
		c0.71,0.09,1.56,0.16,2.55,0.2h2.98c0.84-0.04,1.69-0.09,2.55-0.17c-0.08,0.81-0.14,1.62-0.17,2.42v3.51
		C127.07,311.16,127.12,312,127.22,312.74z"/>
	<path d="M129.92,322c1.11-0.89,1.85-1.96,2.21-3.21c0.41-1.27,0.61-3.21,0.6-5.83c0-1.01-0.03-2.24-0.09-3.7
		c-0.03-0.65-0.1-1.46-0.21-2.44c0.87,0.1,1.88,0.16,3.01,0.17h6.08c-0.01-0.27-0.04-0.8-0.09-1.58c-0.06-1.1-0.1-1.86-0.12-2.27
		l2.49,0.29c0.27,0.04,0.42,0.13,0.44,0.29s-0.09,0.35-0.33,0.57c-0.25,0.14-0.37,0.68-0.35,1.62v1.07h2.79
		c1.41-0.01,2.47-0.07,3.17-0.17v2.03c-0.74-0.11-1.78-0.18-3.13-0.2h-2.75c0.11,2.26,0.47,4.47,1.06,6.63
		c0.68-1.4,1.21-3.15,1.6-5.24l2.31,0.69c0.23,0.08,0.33,0.2,0.32,0.36c-0.02,0.16-0.16,0.32-0.42,0.49
		c-0.24,0.14-0.4,0.36-0.48,0.67c-0.57,1.74-1.4,3.55-2.47,5.44c0.72,1.54,1.5,2.54,2.36,3.01c0.01,0.01,0.03,0.01,0.05,0.01
		c0.24,0,0.45-0.86,0.62-2.58c0.82,0.87,1.5,1.45,2.05,1.74c-0.63,2.25-1.34,3.38-2.12,3.38c-1.35-0.19-2.78-1.45-4.26-3.76
		c-0.98,1.15-2.39,2.42-4.23,3.82c-0.54-0.75-1.19-1.36-1.93-1.85c2.04-0.61,3.78-1.94,5.22-4.01c-0.88-2.72-1.43-5.65-1.65-8.8
		h-6.99v2.69h2.81c0.87-0.01,1.75-0.08,2.64-0.2c-0.05,0.61-0.09,1.36-0.12,2.25c-0.04,2.23-0.09,3.68-0.17,4.36
		c-0.05,0.67-0.19,1.13-0.42,1.39c-0.49,0.81-1.89,1.24-4.18,1.3c-0.01-0.73-0.18-1.55-0.5-2.45c1.13,0.23,1.84,0.34,2.13,0.33
		c0.34,0,0.59-0.09,0.77-0.28c0.16-0.09,0.25-0.45,0.29-1.06c0.04-0.57,0.06-1.9,0.06-3.97h-3.3v1.05c0.01,0.36,0.02,0.62,0.02,0.79
		c0,3.53-0.99,6.29-2.98,8.29C131.14,322.66,130.53,322.29,129.92,322z M144.55,304.43l1.47-1.32c0.4,0.37,1.07,1.06,2,2.06
		c0.17,0.19,0.3,0.33,0.39,0.42l-1.61,1.32C146.14,306.03,145.39,305.21,144.55,304.43z"/>
	<path d="M160.02,317.89c-0.09,0.03-0.24,0.08-0.44,0.14c-2.96,0.97-5.12,1.71-6.49,2.23c-0.23-0.82-0.54-1.56-0.92-2.23
		c1.18-0.17,2.52-0.46,4.01-0.88v-9.25h-1.26c-0.8,0.01-1.58,0.09-2.33,0.23v-2.14c0.69,0.17,1.46,0.26,2.33,0.27h3.95
		c0.65,0,1.41-0.08,2.29-0.25v2.12c-0.72-0.12-1.49-0.2-2.29-0.23h-0.72v8.65c0.93-0.34,2.11-0.86,3.52-1.58
		c-0.25,1.03-0.35,1.87-0.31,2.5C160.85,317.61,160.4,317.75,160.02,317.89z M162.25,308.6l1.6-0.11c0-0.73-0.01-1.79-0.02-3.17
		c0.01-0.54-0.04-1.22-0.15-2.03l2.44,0.29c0.31,0.04,0.47,0.13,0.49,0.3c0.02,0.16-0.11,0.35-0.39,0.56
		c-0.19,0.12-0.28,0.59-0.28,1.41c-0.01,0.72-0.02,1.56-0.04,2.52l3.38-0.19c0.2-0.01,0.7-0.08,1.5-0.18
		c0.35-0.04,0.63-0.08,0.85-0.11c-0.09,1.02-0.14,2-0.15,2.93c-0.08,3.36-0.19,6.31-0.33,8.84c-0.04,1.23-0.42,2.07-1.13,2.5
		c-0.67,0.48-1.98,0.77-3.93,0.87c-0.02-0.77-0.25-1.58-0.7-2.43c1.1,0.11,1.79,0.17,2.06,0.16c1.04,0.02,1.58-0.34,1.61-1.08
		c0.12-1.98,0.25-5.25,0.4-9.81l-3.61,0.19v0.4c0.01,0.28,0.02,0.56,0.02,0.84c0,4.9-2.28,8.98-6.84,12.26
		c-0.54-0.55-1.28-1.07-2.2-1.55c1.85-0.83,3.4-2.06,4.66-3.67c1.56-1.85,2.32-4.48,2.29-7.87v-0.29l-1.16,0.1
		c-0.69,0.04-1.39,0.13-2.12,0.26l-0.13-2.06C160.96,308.55,161.59,308.6,162.25,308.6z"/>
</g>
<g>
	<path d="M8.89,5.78l5.92,14.55c0.3,0.71,0.93,2.48,1.88,5.29c0.35-1.14,1.01-2.9,1.97-5.29l5.75-14.55h5.78v24.77h-3.88V14.13
		c0-0.73,0.01-1.46,0.04-2.19s0.05-1.47,0.07-2.21c-0.27,0.75-0.49,1.36-0.67,1.84s-0.56,1.48-1.16,3.01l-6.28,15.96h-3.23
		l-6.5-16.15c-0.69-1.75-1.27-3.3-1.72-4.66c0.02,0.73,0.04,1.45,0.06,2.16s0.03,1.44,0.03,2.16v16.49H3.08V5.78H8.89z"/>
	<path d="M53.16,13.37c0,1.55-0.35,2.91-1.05,4.08s-1.71,2.09-3.04,2.74s-2.9,0.98-4.72,0.98h-3.73v9.37h-4.25V5.78h7.8
		c2.88,0,5.1,0.66,6.65,1.98S53.16,10.95,53.16,13.37z M48.87,13.41c0-1.43-0.43-2.54-1.29-3.34s-2.16-1.2-3.89-1.2h-3.06v9.25h3.2
		c1.59,0,2.83-0.41,3.72-1.22S48.87,14.92,48.87,13.41z"/>
	<path d="M76.03,0.26l3.5,1.58c0.39,0.19,0.56,0.4,0.51,0.63s-0.3,0.43-0.77,0.58c-0.34,0.12-0.59,0.3-0.76,0.54
		c-0.05,0.07-0.11,0.17-0.19,0.3c-0.14,0.19-0.25,0.34-0.33,0.46h6.77c0.91-0.01,1.87-0.15,2.87-0.42v3.38
		c-1.14-0.26-2.09-0.39-2.87-0.39h-2.53c0.06,0.08,0.15,0.21,0.26,0.39c0.42,0.64,0.73,1.09,0.93,1.34l-2.6,1.41
		c0.75-0.08,1.47-0.21,2.16-0.37c-0.21,1.13-0.33,2.54-0.35,4.25v6.12c0.01,1.85,0.12,3.29,0.32,4.32c-1.27-0.26-2.51-0.39-3.74-0.4
		h-0.54v1.48h5.55c1.38-0.08,2.75-0.22,4.1-0.42v3.52c-1.62-0.22-2.98-0.35-4.1-0.39h-5.55v2.02c0.04,1.91,0.16,3.31,0.37,4.2h-3.99
		c0.2-1.01,0.3-2.41,0.32-4.2v-2.02h-6.22c-0.75,2.37-3.87,4.66-9.37,6.87c-0.27-1.04-0.98-2.19-2.13-3.43
		c4.24-0.57,6.85-1.72,7.82-3.45h-4.57c-1.14,0.04-2.51,0.16-4.11,0.39v-3.52c1.86,0.25,3.23,0.39,4.11,0.42h5.26v-1.48h-0.69
		c-1.18,0.04-2.38,0.15-3.6,0.33c0.19-1.09,0.29-2.19,0.32-3.29V13.8c0-1.51-0.11-2.86-0.32-4.04c1.28,0.21,2.63,0.33,4.06,0.37
		h0.88c-0.55-1.03-1.19-2.05-1.92-3.06h-1.83c-1.7,2.3-3.16,4.04-4.39,5.22C58,11.41,57.12,10.6,56,9.86c2.72-1.86,5-4.97,6.84-9.32
		l3.36,1.62c0.28,0.15,0.42,0.33,0.42,0.53c0,0.05-0.02,0.13-0.05,0.26s-0.27,0.26-0.7,0.4c-0.21,0.06-0.41,0.21-0.6,0.46
		C65.13,4,64.97,4.23,64.79,4.5h3.88c1.43-0.02,2.61-0.16,3.53-0.42V6.8C73.99,4.78,75.26,2.6,76.03,0.26z M79.33,13.87v-1.13H65.41
		v1.13H79.33z M65.41,16.49v1.13h13.92v-1.13H65.41z M79.33,21.35v-1.13H65.41v1.13H79.33z M68.68,7.06h-0.04
		c0.14,0.2,0.35,0.49,0.62,0.88c0.28,0.41,0.49,0.7,0.62,0.88l-2.41,1.3h5.85c-0.91-0.68-1.89-1.23-2.92-1.65
		c0.02-0.02,0.06-0.06,0.12-0.11c0.5-0.4,0.88-0.74,1.14-1.02C70.66,7.18,69.66,7.09,68.68,7.06z M69.4,25.45h5.94v-1.48H69.4V25.45
		z M78.87,10.12c0.55,0,1.04-0.01,1.48-0.04c-0.55-1.07-1.19-2.12-1.92-3.16h-2.3c-0.68,1.09-1.47,2.16-2.37,3.2H78.87z"/>
	<path d="M91.93,13.8l2.06-2.6c2.46,1.69,4.44,3.14,5.94,4.36l-2.09,2.64C96.19,16.66,94.22,15.19,91.93,13.8z M92.18,31.94
		c2.55-3.18,4.88-7.24,6.96-12.2c0.82,1.43,1.6,2.51,2.34,3.23c-2.87,4.92-4.88,8.84-6.01,11.74L92.18,31.94z M94.24,5.48l2.23-2.46
		c2.67,1.95,4.64,3.5,5.91,4.66l-2.2,2.65C98.42,8.6,96.44,6.98,94.24,5.48z M113.64,20.26c0.4,0.16,0.59,0.38,0.57,0.64
		s-0.23,0.45-0.64,0.55c-0.59,0.19-1.07,0.53-1.44,1.04c-1.34,1.99-3.06,4.42-5.19,7.28l10.65-0.51c-0.88-1.41-2.13-3.13-3.74-5.19
		l2.92-1.83c2.29,3.22,4.59,6.57,6.91,10.04l-2.9,2.13c-0.63-1.23-1.14-2.12-1.51-2.65c-7.54,0.36-13.03,0.9-16.49,1.62l-1.51-3.39
		c1.04-0.11,1.81-0.38,2.3-0.83c2.61-3.23,4.73-6.52,6.36-9.86h-5.29c-0.91,0.01-2.08,0.12-3.5,0.32v-3.3
		c1.54,0.19,2.7,0.28,3.5,0.28h5.77v-5.68h-3.64c-0.53-0.01-1.73,0.08-3.6,0.28v-3.3c1.75,0.21,2.95,0.32,3.6,0.32h3.64V5.66
		c0-0.84-0.1-2.21-0.3-4.11l3.6,0.58c0.63,0.07,0.97,0.18,1,0.33s0.05,0.24,0.05,0.27c0,0.26-0.23,0.59-0.69,0.98
		c-0.27,0.22-0.4,0.87-0.4,1.95v2.55h4.68c0.94,0,2.13-0.11,3.57-0.32v3.3c-1.58-0.2-2.77-0.29-3.57-0.28h-4.68v5.68h7.1
		c1.07,0,2.23-0.09,3.48-0.28v3.36c-1.34-0.25-2.5-0.37-3.48-0.37h-9.51L113.64,20.26z"/>
</g>
<rect x="145.67" y="134.64" class="st3" width="49.88" height="49"/>
<rect x="195.54" y="134.64" class="st3" width="49.88" height="49"/>
<rect x="245.42" y="134.64" class="st4" width="49.88" height="49"/>
<rect x="295.29" y="134.64" class="st5" width="49.88" height="49"/>
<text transform="matrix(1 0 0 1 161.4731 170.8511)" class="st1 st2">A</text>
<text transform="matrix(1 0 0 1 210 170.4751)" class="st1 st2">B</text>
<rect x="345.29" y="134.64" class="st5" width="49.88" height="49"/>
<text transform="matrix(1 0 0 1 262 170.8081)" class="st1 st2">B</text>
<text transform="matrix(1 0 0 1 310.4731 170.8511)" class="st1 st2">C</text>
<text transform="matrix(1 0 0 1 360 170.8081)" class="st1 st2">A</text>
<g>
	<path d="M413.23,158.14l0.79-3.75c3.62-1.58,6.43-3.42,8.41-5.52h2.56l-4.53,21.61h-4.23l3.12-14.88
		c-0.88,0.57-1.89,1.08-3.04,1.55S414.13,157.95,413.23,158.14z"/>
</g>
<rect x="244.67" y="209.64" class="st3" width="49.88" height="49"/>
<rect x="294.54" y="209.64" class="st3" width="49.88" height="49"/>
<rect x="344.42" y="209.64" class="st4" width="49.88" height="49"/>
<rect x="394.29" y="209.64" class="st5" width="49.88" height="49"/>
<text transform="matrix(1 0 0 1 260.4731 245.8511)" class="st1 st2">A</text>
<text transform="matrix(1 0 0 1 309 245.4751)" class="st1 st2">B</text>
<rect x="444.29" y="209.64" class="st5" width="49.88" height="49"/>
<text transform="matrix(1 0 0 1 361 245.8081)" class="st1 st2">B</text>
<text transform="matrix(1 0 0 1 409.4731 245.8511)" class="st1 st2">C</text>
<text transform="matrix(1 0 0 1 459 245.8081)" class="st1 st2">A</text>
<g>
	<path d="M516.59,230.69l-4.12-0.62c0.33-1.99,1.11-3.52,2.32-4.58s2.74-1.59,4.56-1.59c2,0,3.57,0.54,4.72,1.63
		s1.71,2.46,1.71,4.13c0,0.85-0.18,1.7-0.53,2.56s-0.93,1.75-1.73,2.69c-0.58,0.66-1.52,1.6-2.83,2.82s-2.18,2.05-2.6,2.49
		s-0.83,0.92-1.22,1.41h7.44l-0.79,3.84h-13.05c0.14-1.05,0.45-2.06,0.93-3.01s1.09-1.84,1.81-2.66s2.05-2.14,3.97-3.97
		c1.45-1.39,2.36-2.29,2.74-2.71c0.68-0.76,1.15-1.42,1.41-1.98s0.38-1.06,0.38-1.51c0-0.72-0.21-1.31-0.64-1.76
		s-0.96-0.67-1.62-0.67c-0.66,0-1.25,0.25-1.74,0.75S516.85,229.38,516.59,230.69z"/>
</g>
<rect x="343.67" y="284.64" class="st3" width="49.88" height="49"/>
<rect x="393.54" y="284.64" class="st3" width="49.88" height="49"/>
<rect x="443.42" y="284.64" class="st3" width="49.88" height="49"/>
<rect x="493.29" y="284.64" class="st3" width="49.88" height="49"/>
<text transform="matrix(1 0 0 1 359.4731 320.8511)" class="st1 st2">A</text>
<text transform="matrix(1 0 0 1 408 320.4751)" class="st1 st2">B</text>
<rect x="543.29" y="284.64" class="st3" width="49.88" height="49"/>
<text transform="matrix(1 0 0 1 460 320.8081)" class="st1 st2">B</text>
<text transform="matrix(1 0 0 1 508.4731 320.8511)" class="st1 st2">C</text>
<text transform="matrix(1 0 0 1 558 320.8081)" class="st1 st2">A</text>
<g>
	<path d="M609.19,314.86l4.03-0.48c0.17,1.14,0.47,1.93,0.9,2.37s1.01,0.66,1.74,0.66c0.96,0,1.75-0.32,2.38-0.97
		s0.94-1.47,0.94-2.47c0-0.88-0.25-1.58-0.76-2.09s-1.19-0.77-2.05-0.77c-0.21,0-0.44,0.02-0.67,0.06l0.73-3.5
		c0.15,0.02,0.29,0.03,0.42,0.03c1.12,0,1.98-0.29,2.56-0.86s0.88-1.35,0.88-2.32c0-0.69-0.2-1.24-0.59-1.64s-0.92-0.6-1.56-0.6
		c-0.61,0-1.15,0.22-1.63,0.67s-0.86,1.2-1.14,2.28l-3.84-0.76c0.49-1.58,1.17-2.8,2.04-3.65c1.32-1.27,2.94-1.9,4.86-1.9
		c1.97,0,3.47,0.55,4.5,1.65s1.54,2.41,1.54,3.95c0,1.11-0.33,2.12-0.98,3.02s-1.55,1.56-2.7,1.98c0.91,0.48,1.58,1.1,2.01,1.86
		s0.64,1.56,0.64,2.39c0,1.58-0.56,3.04-1.68,4.37c-1.53,1.82-3.51,2.72-5.93,2.72c-1.82,0-3.31-0.52-4.49-1.56
		S609.44,316.77,609.19,314.86z"/>
</g>
</svg>
