<?xml version="1.0" encoding="utf-8"?>
<!-- Generator: Adobe Illustrator 22.1.0, SVG Export Plug-In . SVG Version: 6.00 Build 0)  -->
<svg version="1.1" id="图层_1" xmlns="http://www.w3.org/2000/svg" xmlns:xlink="http://www.w3.org/1999/xlink" x="0px" y="0px"
	 viewBox="0 0 568.47 331.14" style="enable-background:new 0 0 568.47 331.14;" xml:space="preserve">
<style type="text/css">
	.st0{fill:#DBDADA;stroke:#000000;stroke-miterlimit:10;}
	.st1{font-family:'ArialMT';}
	.st2{font-size:30px;}
	.st3{fill:#FFF38B;stroke:#000000;stroke-miterlimit:10;}
	.st4{fill:#FF5050;stroke:#000000;stroke-miterlimit:10;}
	.st5{fill:#FFFFFF;stroke:#000000;stroke-miterlimit:10;}
</style>
<rect x="139.17" y="54.64" class="st0" width="49.88" height="49"/>
<rect x="189.04" y="54.64" class="st0" width="49.88" height="49"/>
<rect x="238.92" y="54.64" class="st0" width="49.88" height="49"/>
<rect x="288.79" y="54.64" class="st0" width="49.88" height="49"/>
<rect x="338.67" y="54.64" class="st0" width="49.88" height="49"/>
<text transform="matrix(1 0 0 1 154.4731 90.8511)" class="st1 st2">A</text>
<text transform="matrix(1 0 0 1 254.4731 90.8511)" class="st1 st2">A</text>
<text transform="matrix(1 0 0 1 205 90.8081)" class="st1 st2">B</text>
<text transform="matrix(1 0 0 1 354.4731 90.8511)" class="st1 st2">B</text>
<text transform="matrix(1 0 0 1 304 90.8081)" class="st1 st2">A</text>
<g>
	<path d="M30.12,72.7h-0.45c-0.55-0.01-1.51,0.06-2.88,0.22v-2.54c1.36,0.14,2.32,0.21,2.88,0.22h0.9V67.2
		c0-0.52-0.06-1.47-0.19-2.86l2.6,0.37c0.48,0.07,0.74,0.16,0.77,0.25c0.03,0.1,0.05,0.16,0.05,0.2c0,0.16-0.16,0.36-0.48,0.59
		c-0.18,0.06-0.27,0.55-0.26,1.45v3.39c0.57,0,1.55-0.07,2.94-0.22v2.57c-1.19-0.16-2.17-0.25-2.94-0.25v0.97
		c1.57,1.49,2.78,2.66,3.64,3.53l-2.01,2.02c-0.05-0.06-0.11-0.16-0.21-0.29c-0.62-0.92-1.09-1.56-1.42-1.93v9.91
		c-0.01,0.44,0.06,1.42,0.21,2.94h-2.88c0.13-1.45,0.19-2.43,0.19-2.94v-8.6c-0.56,1.19-1.35,2.68-2.38,4.48
		c-0.85-0.62-1.76-1.12-2.75-1.49C27.39,79.34,28.95,76.47,30.12,72.7z M38.53,67.52h1.15v-0.26c-0.01-0.53-0.09-1.48-0.23-2.86
		l2.94,0.37c0.44,0.05,0.67,0.18,0.68,0.37c0.02,0.19-0.18,0.42-0.6,0.67c-0.23,0.09-0.34,0.57-0.33,1.45v0.26h2.54v-0.26
		c0-0.59-0.07-1.53-0.22-2.82l2.91,0.36c0.37,0.05,0.58,0.17,0.62,0.38c0.02,0.22-0.14,0.45-0.48,0.68
		c-0.26,0.15-0.38,0.61-0.37,1.39v0.26h2c0.73,0,1.63-0.09,2.71-0.26v2.58c-1.17-0.15-2.07-0.23-2.71-0.23h-2
		c0.02,0.18,0.07,0.51,0.15,0.98c0.05,0.29,0.09,0.51,0.11,0.64c0.63,0,1.52-0.07,2.68-0.22c-0.16,1.19-0.25,2.01-0.25,2.49v4.17
		c0,0.67,0.08,1.53,0.25,2.56c-1.11-0.2-2.02-0.3-2.73-0.29h-1.97c0.05,0.25-0.16,0.5-0.62,0.75c-0.16,0.08-0.29,0.31-0.38,0.68
		h5.03c0.73-0.01,1.63-0.1,2.69-0.29v2.64c-1.1-0.16-2-0.25-2.69-0.26h-3.77c1.13,2,3.49,3.4,7.08,4.22
		c-0.96,0.72-1.68,1.55-2.16,2.5c-3.78-1.76-6.17-3.7-7.16-5.82c-0.63,1.92-3.13,3.86-7.51,5.8c-0.42-0.9-1.07-1.73-1.96-2.47
		c3.65-0.82,6.03-2.23,7.14-4.22h-3.64c-0.65,0-1.54,0.09-2.67,0.26v-2.61c1.23,0.17,2.12,0.26,2.67,0.26h4.33
		c0.03-0.2,0.04-0.46,0.04-0.79c0-0.22,0-0.43-0.01-0.64h-2.01c-0.5,0-1.44,0.1-2.8,0.29c0.17-1.05,0.25-1.9,0.25-2.56v-4.12
		c0.01-0.48-0.06-1.33-0.22-2.54c1.19,0.13,2,0.2,2.41,0.22c0.02-0.14,0.05-0.36,0.11-0.67c0.09-0.51,0.14-0.83,0.15-0.96h-1.15
		c-0.4-0.01-1.36,0.07-2.88,0.23v-2.56C37.01,67.43,37.97,67.51,38.53,67.52z M39.73,74.49h7.64v-1.2h-7.64V74.49z M39.73,76.52
		v1.38h7.64v-1.38H39.73z M42.14,69.61c0.06,0.6,0.14,1.14,0.22,1.63h2.08c0.13-0.73,0.21-1.27,0.25-1.63H42.14z"/>
	<path d="M58.06,70.35h10.58c-0.05-0.37-0.1-1.11-0.16-2.2c-0.01-0.17-0.02-0.3-0.03-0.38c-0.03-0.83-0.13-1.98-0.31-3.45l3.42,0.37
		c0.27,0.05,0.41,0.16,0.41,0.33c0,0.17-0.15,0.41-0.44,0.71c-0.26,0.19-0.41,0.73-0.42,1.61c-0.02,0.86,0.04,1.86,0.18,3.01h5.32
		c0.39-0.01,1.28-0.09,2.65-0.23v2.53c-1.34-0.14-2.22-0.21-2.65-0.21h-5.1c0.59,6,2.1,10.53,4.51,13.59
		c0.22,0.29,0.44,0.43,0.68,0.4c0.23-0.02,0.39-0.19,0.47-0.49s0.23-1.3,0.45-2.97c0.94,0.84,1.83,1.5,2.68,1.97
		c-0.21,0.98-0.52,1.94-0.94,2.88c-0.54,1.12-1.34,1.69-2.42,1.71c-1.29-0.05-2.44-0.81-3.43-2.3c-2.48-3.67-4.02-8.6-4.62-14.79
		H58.06c-1.29,0.04-2.37,0.1-3.24,0.21v-2.56C55.8,70.2,56.88,70.29,58.06,70.35z M55.63,86.33c2-0.06,4-0.32,6.02-0.78v-8.18h-1.65
		c-0.98,0.04-2.01,0.11-3.08,0.22v-2.54c1.09,0.11,2.12,0.18,3.08,0.22h5.69c0.77-0.03,1.8-0.1,3.08-0.22v2.52
		c-0.91-0.09-1.94-0.15-3.08-0.19H64.2v7.53c2.11-0.44,4.21-1.08,6.29-1.91c-0.35,1.08-0.59,2.12-0.72,3.14
		c-4.47,0.77-8.89,1.84-13.28,3.19L55.63,86.33z M72.17,66.45l1.79-1.76c1.59,1.47,2.78,2.61,3.55,3.42l-1.9,1.93
		C74.55,68.71,73.4,67.52,72.17,66.45z"/>
	<path d="M84.61,76.55c1.22,0.13,2.25,0.21,3.08,0.23h6.13v-1.91h-4.65c-0.78,0.02-1.9,0.1-3.35,0.23c0.13-1.37,0.2-2.34,0.22-2.91
		v-1.26c-0.01-0.6-0.08-1.61-0.22-3.04c1.38,0.15,2.49,0.22,3.35,0.23h4.65v-0.67c0-0.52-0.06-1.56-0.19-3.12l2.67,0.37
		c0.56,0.06,0.85,0.18,0.89,0.34c0.05,0.16-0.13,0.42-0.56,0.75c-0.16,0.25-0.25,0.83-0.25,1.74v0.59h4.76
		c0.69-0.01,1.81-0.09,3.36-0.23c-0.13,1.1-0.21,1.96-0.23,2.58v1.71c0.03,0.71,0.1,1.68,0.23,2.91c-1.66-0.15-2.78-0.22-3.36-0.23
		h-4.76v1.91h6.15c0.42,0,1.46-0.08,3.12-0.23c-0.13,1.12-0.21,2.06-0.23,2.83v3.73c0,0.62,0.07,1.53,0.21,2.73h-2.88
		c0.11-0.63,0.16-1.12,0.16-1.48h-6.52v1.87c0.03,1.27,0.08,2.45,0.16,3.55h-2.91c0.09-0.87,0.15-2.05,0.19-3.55v-1.87h-6.47
		c0.04,0.52,0.1,1.19,0.21,2.01h-2.91c0.13-1.51,0.19-2.44,0.19-2.78v-4.28C84.8,78.33,84.72,77.4,84.61,76.55z M93.82,82.27v-3.39
		h-6.49v3.39H93.82z M88.5,70.22v2.56h5.32v-2.56H88.5z M96.37,70.22v2.56h5.43v-2.56H96.37z M96.37,78.88v3.39h6.55v-3.39H96.37z"
		/>
</g>
<g>
	<path d="M30.12,148.7h-0.45c-0.55-0.01-1.51,0.06-2.88,0.22v-2.54c1.36,0.14,2.32,0.21,2.88,0.22h0.9v-3.39
		c0-0.52-0.06-1.47-0.19-2.86l2.6,0.37c0.48,0.07,0.74,0.16,0.77,0.25c0.03,0.1,0.05,0.16,0.05,0.2c0,0.16-0.16,0.36-0.48,0.59
		c-0.18,0.06-0.27,0.55-0.26,1.45v3.39c0.57,0,1.55-0.07,2.94-0.22v2.57c-1.19-0.16-2.17-0.25-2.94-0.25v0.97
		c1.57,1.49,2.78,2.66,3.64,3.53l-2.01,2.02c-0.05-0.06-0.11-0.16-0.21-0.29c-0.62-0.92-1.09-1.56-1.42-1.93v9.91
		c-0.01,0.44,0.06,1.42,0.21,2.94h-2.88c0.13-1.45,0.19-2.43,0.19-2.94v-8.6c-0.56,1.19-1.35,2.68-2.38,4.48
		c-0.85-0.62-1.76-1.12-2.75-1.49C27.39,155.34,28.95,152.47,30.12,148.7z M38.53,143.52h1.15v-0.26c-0.01-0.53-0.09-1.48-0.23-2.86
		l2.94,0.37c0.44,0.05,0.67,0.18,0.68,0.37c0.02,0.19-0.18,0.42-0.6,0.67c-0.23,0.09-0.34,0.57-0.33,1.45v0.26h2.54v-0.26
		c0-0.59-0.07-1.53-0.22-2.82l2.91,0.36c0.37,0.05,0.58,0.17,0.62,0.38c0.02,0.22-0.14,0.45-0.48,0.68
		c-0.26,0.15-0.38,0.61-0.37,1.39v0.26h2c0.73,0,1.63-0.09,2.71-0.26v2.58c-1.17-0.15-2.07-0.23-2.71-0.23h-2
		c0.02,0.18,0.07,0.51,0.15,0.98c0.05,0.29,0.09,0.51,0.11,0.64c0.63,0,1.52-0.07,2.68-0.22c-0.16,1.19-0.25,2.01-0.25,2.49v4.17
		c0,0.67,0.08,1.53,0.25,2.56c-1.11-0.2-2.02-0.3-2.73-0.29h-1.97c0.05,0.25-0.16,0.5-0.62,0.75c-0.16,0.08-0.29,0.31-0.38,0.68
		h5.03c0.73-0.01,1.63-0.1,2.69-0.29v2.64c-1.1-0.16-2-0.25-2.69-0.26h-3.77c1.13,2,3.49,3.4,7.08,4.22
		c-0.96,0.72-1.68,1.55-2.16,2.5c-3.78-1.76-6.17-3.7-7.16-5.82c-0.63,1.92-3.13,3.86-7.51,5.8c-0.42-0.9-1.07-1.73-1.96-2.47
		c3.65-0.82,6.03-2.23,7.14-4.22h-3.64c-0.65,0-1.54,0.09-2.67,0.26v-2.61c1.23,0.17,2.12,0.26,2.67,0.26h4.33
		c0.03-0.2,0.04-0.46,0.04-0.79c0-0.22,0-0.43-0.01-0.64h-2.01c-0.5,0-1.44,0.1-2.8,0.29c0.17-1.05,0.25-1.9,0.25-2.56v-4.12
		c0.01-0.48-0.06-1.33-0.22-2.54c1.19,0.13,2,0.2,2.41,0.22c0.02-0.14,0.05-0.36,0.11-0.67c0.09-0.51,0.14-0.83,0.15-0.96h-1.15
		c-0.4-0.01-1.36,0.07-2.88,0.23v-2.56C37.01,143.43,37.97,143.51,38.53,143.52z M39.73,150.49h7.64v-1.2h-7.64V150.49z
		 M39.73,152.52v1.38h7.64v-1.38H39.73z M42.14,145.61c0.06,0.6,0.14,1.14,0.22,1.63h2.08c0.13-0.73,0.21-1.27,0.25-1.63H42.14z"/>
	<path d="M58.06,146.35h10.58c-0.05-0.37-0.1-1.11-0.16-2.2c-0.01-0.17-0.02-0.3-0.03-0.38c-0.03-0.83-0.13-1.98-0.31-3.45
		l3.42,0.37c0.27,0.05,0.41,0.16,0.41,0.33c0,0.17-0.15,0.41-0.44,0.71c-0.26,0.19-0.41,0.73-0.42,1.61
		c-0.02,0.86,0.04,1.86,0.18,3.01h5.32c0.39-0.01,1.28-0.09,2.65-0.23v2.53c-1.34-0.14-2.22-0.21-2.65-0.21h-5.1
		c0.59,6,2.1,10.53,4.51,13.59c0.22,0.29,0.44,0.43,0.68,0.4c0.23-0.02,0.39-0.19,0.47-0.49s0.23-1.3,0.45-2.97
		c0.94,0.84,1.83,1.5,2.68,1.97c-0.21,0.98-0.52,1.94-0.94,2.88c-0.54,1.12-1.34,1.69-2.42,1.71c-1.29-0.05-2.44-0.81-3.43-2.3
		c-2.48-3.67-4.02-8.6-4.62-14.79H58.06c-1.29,0.04-2.37,0.1-3.24,0.21v-2.56C55.8,146.2,56.88,146.29,58.06,146.35z M55.63,162.33
		c2-0.06,4-0.32,6.02-0.78v-8.18h-1.65c-0.98,0.04-2.01,0.11-3.08,0.22v-2.54c1.09,0.11,2.12,0.18,3.08,0.22h5.69
		c0.77-0.03,1.8-0.1,3.08-0.22v2.52c-0.91-0.09-1.94-0.15-3.08-0.19H64.2v7.53c2.11-0.44,4.21-1.08,6.29-1.91
		c-0.35,1.08-0.59,2.12-0.72,3.14c-4.47,0.77-8.89,1.84-13.28,3.19L55.63,162.33z M72.17,142.45l1.79-1.76
		c1.59,1.47,2.78,2.61,3.55,3.42l-1.9,1.93C74.55,144.71,73.4,143.52,72.17,142.45z"/>
	<path d="M84.61,152.55c1.22,0.13,2.25,0.21,3.08,0.23h6.13v-1.91h-4.65c-0.78,0.02-1.9,0.1-3.35,0.23c0.13-1.37,0.2-2.34,0.22-2.91
		v-1.26c-0.01-0.6-0.08-1.61-0.22-3.04c1.38,0.15,2.49,0.22,3.35,0.23h4.65v-0.67c0-0.52-0.06-1.56-0.19-3.12l2.67,0.37
		c0.56,0.06,0.85,0.18,0.89,0.34c0.05,0.16-0.13,0.42-0.56,0.75c-0.16,0.25-0.25,0.83-0.25,1.74v0.59h4.76
		c0.69-0.01,1.81-0.09,3.36-0.23c-0.13,1.1-0.21,1.96-0.23,2.58v1.71c0.03,0.71,0.1,1.68,0.23,2.91c-1.66-0.15-2.78-0.22-3.36-0.23
		h-4.76v1.91h6.15c0.42,0,1.46-0.08,3.12-0.23c-0.13,1.12-0.21,2.06-0.23,2.83v3.73c0,0.62,0.07,1.53,0.21,2.73h-2.88
		c0.11-0.63,0.16-1.12,0.16-1.48h-6.52v1.87c0.03,1.27,0.08,2.45,0.16,3.55h-2.91c0.09-0.87,0.15-2.05,0.19-3.55v-1.87h-6.47
		c0.04,0.52,0.1,1.19,0.21,2.01h-2.91c0.13-1.51,0.19-2.44,0.19-2.78v-4.28C84.8,154.33,84.72,153.4,84.61,152.55z M93.82,158.27
		v-3.39h-6.49v3.39H93.82z M88.5,146.22v2.56h5.32v-2.56H88.5z M96.37,146.22v2.56h5.43v-2.56H96.37z M96.37,154.88v3.39h6.55v-3.39
		H96.37z"/>
</g>
<rect x="31.17" y="292.64" class="st3" width="30" height="30"/>
<rect x="31.17" y="234.64" class="st4" width="30" height="30"/>
<g>
	<path d="M80.77,238.66c0.97,0.14,1.9,0.21,2.79,0.2H95c0.85-0.01,1.75-0.08,2.69-0.2v2.09c-0.87-0.13-1.77-0.19-2.69-0.19H92.9
		v8.27c-0.04,0.35,0.29,0.52,1.01,0.5c0.52,0.01,0.87-0.14,1.05-0.47c0.21-0.29,0.41-1,0.6-2.13c0.59,0.9,1.22,1.55,1.89,1.98
		c-0.44,1.18-0.86,1.88-1.25,2.11c-0.38,0.3-1.16,0.44-2.34,0.43c-1.32,0.01-2.14-0.12-2.46-0.4c-0.19-0.14-0.32-0.34-0.39-0.61
		c-0.07-0.24-0.11-0.64-0.11-1.19v-8.49h-2.4v3.85c0.02,2.02-0.24,3.56-0.78,4.63c-0.5,1.1-1.58,2.33-3.24,3.71
		c-0.37-0.54-0.86-1.04-1.49-1.51V254h12.89c0.81,0,1.65-0.07,2.51-0.2v2.07c-0.91-0.12-1.75-0.19-2.51-0.19H83.52
		c-0.59-0.01-1.5,0.06-2.75,0.19c0.14-0.77,0.2-1.66,0.2-2.66v-11.88C80.98,240.9,80.91,240.02,80.77,238.66z M83,240.56v10.51
		c2.31-1.38,3.48-3.59,3.52-6.66v-3.85H83z"/>
	<path d="M111.6,238.38v2c-0.93-0.11-1.62-0.17-2.07-0.19h-0.86v1.96h0.53c0.79-0.03,1.54-0.09,2.25-0.17
		c-0.09,0.93-0.14,1.62-0.15,2.06v9.82c0.03,0.79,0.08,1.64,0.15,2.52h-2.18c0.01-0.06,0.02-0.17,0.03-0.31
		c0.09-0.69,0.13-1.1,0.13-1.25h-5.63c0.01,0.08,0.02,0.21,0.03,0.4c0.06,0.82,0.1,1.37,0.14,1.67h-2.16
		c0.08-0.77,0.14-1.61,0.18-2.52v-10.24c-0.02-0.49-0.08-1.21-0.18-2.15c0.72,0.09,1.48,0.15,2.29,0.17h0.46v-1.96h-1.05
		c-0.52,0.01-1.22,0.07-2.12,0.17v-1.98c0.8,0.11,1.51,0.17,2.12,0.19h6C110.17,238.55,110.86,238.48,111.6,238.38z M104.78,249.71
		c-0.27-0.22-0.6-0.48-0.99-0.76v1.07h5.65v-1.32c-0.21,0.03-0.54,0.04-0.99,0.04c-0.62,0.01-1.01-0.15-1.19-0.47
		c-0.1-0.16-0.17-0.38-0.2-0.67c-0.04-0.25-0.05-0.66-0.05-1.24v-2.71h-0.77C106.3,246.51,105.82,248.53,104.78,249.71z
		 M103.79,243.66v4.45c0.3-0.5,0.5-1.06,0.6-1.69c0.11-0.6,0.16-1.52,0.16-2.76H103.79z M109.44,251.63h-5.65v1.58h5.65V251.63z
		 M106.23,240.19v1.96H107v-1.96H106.23z M108.92,247.14c0.26,0,0.44-0.01,0.53-0.02v-3.46h-0.77v2.93
		C108.66,246.97,108.74,247.15,108.92,247.14z M120.22,246.74c-0.64-0.09-1.41-0.15-2.31-0.17h-3.49v7.14
		c-0.02,0.26,0.08,0.44,0.31,0.51c0.23,0.08,0.73,0.11,1.49,0.11c1.35,0.01,2.21-0.21,2.6-0.68c0.32-0.32,0.48-0.9,0.48-1.73
		c0-0.28-0.02-0.59-0.05-0.92c0.64,0.34,1.13,0.57,1.47,0.67c0.34,0.11,0.68,0.16,1.04,0.13c-0.14,1.82-0.56,2.99-1.28,3.52
		c-0.67,0.61-2.01,0.9-4.03,0.88c-1.59,0.01-2.66-0.15-3.22-0.5c-0.56-0.32-0.83-0.96-0.81-1.94v-6.47
		c-0.04-0.95-0.09-1.8-0.17-2.55c0.87,0.09,1.73,0.14,2.56,0.17h3.25v-4.81h-3.37c-0.99,0.02-1.84,0.07-2.55,0.15v-2.01
		c0.71,0.09,1.56,0.16,2.55,0.2h2.98c0.84-0.04,1.69-0.09,2.55-0.17c-0.08,0.81-0.14,1.62-0.17,2.42v3.51
		C120.07,245.16,120.12,246,120.22,246.74z"/>
	<path d="M123.55,255.72c4.5-0.62,7.36-3.01,8.57-7.18h-5.34c-0.26,0-0.98,0.05-2.16,0.15v-2c0.75,0.1,1.47,0.17,2.16,0.19h5.59
		c0.08-0.84,0.15-1.99,0.21-3.47h-3.97c-0.26,0.56-0.72,1.37-1.38,2.43c-0.05,0.07-0.09,0.13-0.11,0.16c-0.8-0.3-1.59-0.53-2.35-0.7
		c1.68-1.83,2.84-4.39,3.46-7.68l2.37,0.84c0.24,0.09,0.35,0.21,0.33,0.39c-0.03,0.17-0.18,0.32-0.44,0.47
		c-0.27,0.12-0.53,0.5-0.77,1.14l-0.48,1.3h3.34v-1.93c-0.01-1.03-0.07-1.97-0.17-2.81l2.35,0.35c0.24,0.04,0.37,0.09,0.39,0.16
		c0.02,0.07,0.03,0.12,0.03,0.15c0,0.12-0.08,0.28-0.24,0.47c-0.23,0.26-0.34,0.72-0.33,1.39v2.22h4.55
		c0.52-0.01,1.21-0.07,2.08-0.17v2.02c-1.17-0.13-1.87-0.19-2.08-0.19h-4.55c-0.04,1.36-0.1,2.52-0.18,3.47h5.94
		c0.49-0.01,1.19-0.07,2.09-0.17v2c-0.9-0.1-1.59-0.16-2.09-0.17h-5.3c1.55,3.54,4.33,5.82,8.31,6.82c-0.86,0.73-1.46,1.39-1.8,1.98
		c-3.9-1.84-6.52-4.19-7.85-7.04c-1.03,3.27-3.89,5.75-8.56,7.43C124.83,257.23,124.28,256.56,123.55,255.72z"/>
	<path d="M148.69,251.53h-2.27c0.09-1.17,0.14-2.02,0.13-2.55v-8.25c0.01-0.44-0.04-1.27-0.15-2.49c1.04,0.13,1.83,0.19,2.37,0.18
		h3.7c0.57,0.01,1.44-0.05,2.61-0.18c-0.12,1.15-0.18,1.99-0.17,2.54v5.44c1.43-2.89,2.35-6.05,2.75-9.46l2,0.5
		c0.44,0.12,0.67,0.22,0.69,0.3c0.02,0.08,0.04,0.13,0.04,0.15c0,0.14-0.15,0.29-0.46,0.45c-0.26,0.17-0.42,0.44-0.48,0.79
		c-0.13,0.67-0.38,1.67-0.75,3h4.49c0.49,0.01,1.26-0.05,2.31-0.18v1.96c-0.93-0.12-1.69-0.18-2.27-0.17
		c-0.3,3.32-1.04,6.08-2.22,8.27c1.2,1.58,2.88,2.88,5.04,3.9c-0.81,0.51-1.46,1.07-1.96,1.69c-1.86-1.48-3.27-2.77-4.22-3.89
		c-1.43,1.4-3.29,2.78-5.56,4.11c-0.39-0.67-0.93-1.22-1.63-1.68c0.31-0.11,0.76-0.3,1.32-0.57c-1-1.18-2.05-2.25-3.15-3.19
		c-0.63,1.54-2.14,3.28-4.53,5.21c-0.44-0.54-1.01-1.04-1.69-1.49c2.46-1.39,4.04-3.18,4.73-5.37c0.3-1.63,0.46-3.4,0.48-5.32
		c0.01-1.11-0.04-2.07-0.15-2.87l2.13,0.46c0.37,0.09,0.58,0.2,0.61,0.35c0.04,0.15-0.1,0.34-0.41,0.57h0.02
		c-0.14,0.11-0.21,0.3-0.2,0.56c-0.01,2.85-0.2,5.06-0.57,6.64c-0.01,0.04-0.02,0.09-0.04,0.16c-0.04,0.14-0.06,0.25-0.09,0.32
		l0.82-0.82c1.53,1.4,2.7,2.54,3.49,3.39l-1.36,1.34c1.98-0.96,3.52-2.12,4.6-3.48c-0.73-1.46-1.34-3.1-1.83-4.93l-0.17,0.35
		c-0.58-0.24-1.17-0.4-1.76-0.46v1.8c0,0.62,0.05,1.45,0.15,2.51h-2.23c0.11-1.02,0.16-1.86,0.15-2.51v-8.6h-4.47v8.96
		C148.5,249.66,148.57,250.51,148.69,251.53z M161.21,243.55h-3c-0.14,0.5-0.35,1.07-0.63,1.72c0.09-0.01,0.23-0.02,0.41-0.04
		c0.15-0.02,0.37-0.04,0.64-0.06c0.26,1.88,0.66,3.43,1.19,4.64C160.59,248.01,161.05,245.93,161.21,243.55z"/>
</g>
<g>
	<path d="M80.77,298.66c0.97,0.14,1.9,0.21,2.79,0.2H95c0.85-0.01,1.75-0.08,2.69-0.2v2.09c-0.87-0.13-1.77-0.19-2.69-0.19H92.9
		v8.27c-0.04,0.35,0.29,0.52,1.01,0.5c0.52,0.01,0.87-0.14,1.05-0.47c0.21-0.29,0.41-1,0.6-2.13c0.59,0.9,1.22,1.55,1.89,1.98
		c-0.44,1.18-0.86,1.88-1.25,2.11c-0.38,0.3-1.16,0.44-2.34,0.43c-1.32,0.01-2.14-0.12-2.46-0.4c-0.19-0.14-0.32-0.34-0.39-0.61
		c-0.07-0.24-0.11-0.64-0.11-1.19v-8.49h-2.4v3.85c0.02,2.02-0.24,3.56-0.78,4.63c-0.5,1.1-1.58,2.33-3.24,3.71
		c-0.37-0.54-0.86-1.04-1.49-1.51V314h12.89c0.81,0,1.65-0.07,2.51-0.2v2.07c-0.91-0.12-1.75-0.19-2.51-0.19H83.52
		c-0.59-0.01-1.5,0.06-2.75,0.19c0.14-0.77,0.2-1.66,0.2-2.66v-11.88C80.98,300.9,80.91,300.02,80.77,298.66z M83,300.56v10.51
		c2.31-1.38,3.48-3.59,3.52-6.66v-3.85H83z"/>
	<path d="M111.6,298.38v2c-0.93-0.11-1.62-0.17-2.07-0.19h-0.86v1.96h0.53c0.79-0.03,1.54-0.09,2.25-0.17
		c-0.09,0.93-0.14,1.62-0.15,2.06v9.82c0.03,0.79,0.08,1.64,0.15,2.52h-2.18c0.01-0.06,0.02-0.17,0.03-0.31
		c0.09-0.69,0.13-1.1,0.13-1.25h-5.63c0.01,0.08,0.02,0.21,0.03,0.4c0.06,0.82,0.1,1.37,0.14,1.67h-2.16
		c0.08-0.77,0.14-1.61,0.18-2.52v-10.24c-0.02-0.49-0.08-1.21-0.18-2.15c0.72,0.09,1.48,0.15,2.29,0.17h0.46v-1.96h-1.05
		c-0.52,0.01-1.22,0.07-2.12,0.17v-1.98c0.8,0.11,1.51,0.17,2.12,0.19h6C110.17,298.55,110.86,298.48,111.6,298.38z M104.78,309.71
		c-0.27-0.22-0.6-0.48-0.99-0.76v1.07h5.65v-1.32c-0.21,0.03-0.54,0.04-0.99,0.04c-0.62,0.01-1.01-0.15-1.19-0.47
		c-0.1-0.16-0.17-0.38-0.2-0.67c-0.04-0.25-0.05-0.66-0.05-1.24v-2.71h-0.77C106.3,306.51,105.82,308.53,104.78,309.71z
		 M103.79,303.66v4.45c0.3-0.5,0.5-1.06,0.6-1.69c0.11-0.6,0.16-1.52,0.16-2.76H103.79z M109.44,311.63h-5.65v1.58h5.65V311.63z
		 M106.23,300.19v1.96H107v-1.96H106.23z M108.92,307.14c0.26,0,0.44-0.01,0.53-0.02v-3.46h-0.77v2.93
		C108.66,306.97,108.74,307.15,108.92,307.14z M120.22,306.74c-0.64-0.09-1.41-0.15-2.31-0.17h-3.49v7.14
		c-0.02,0.26,0.08,0.44,0.31,0.51c0.23,0.08,0.73,0.11,1.49,0.11c1.35,0.01,2.21-0.21,2.6-0.68c0.32-0.32,0.48-0.9,0.48-1.73
		c0-0.28-0.02-0.59-0.05-0.92c0.64,0.34,1.13,0.57,1.47,0.67c0.34,0.11,0.68,0.16,1.04,0.13c-0.14,1.82-0.56,2.99-1.28,3.52
		c-0.67,0.61-2.01,0.9-4.03,0.88c-1.59,0.01-2.66-0.15-3.22-0.5c-0.56-0.32-0.83-0.96-0.81-1.94v-6.47
		c-0.04-0.95-0.09-1.8-0.17-2.55c0.87,0.09,1.73,0.14,2.56,0.17h3.25v-4.81h-3.37c-0.99,0.02-1.84,0.07-2.55,0.15v-2.01
		c0.71,0.09,1.56,0.16,2.55,0.2h2.98c0.84-0.04,1.69-0.09,2.55-0.17c-0.08,0.81-0.14,1.62-0.17,2.42v3.51
		C120.07,305.16,120.12,306,120.22,306.74z"/>
	<path d="M122.92,316c1.11-0.89,1.85-1.96,2.21-3.21c0.41-1.27,0.61-3.21,0.6-5.83c0-1.01-0.03-2.24-0.09-3.7
		c-0.03-0.65-0.1-1.46-0.21-2.44c0.87,0.1,1.88,0.16,3.01,0.17h6.08c-0.01-0.27-0.04-0.8-0.09-1.58c-0.06-1.1-0.1-1.86-0.12-2.27
		l2.49,0.29c0.27,0.04,0.42,0.13,0.44,0.29s-0.09,0.35-0.33,0.57c-0.25,0.14-0.37,0.68-0.35,1.62v1.07h2.79
		c1.41-0.01,2.47-0.07,3.17-0.17v2.03c-0.74-0.11-1.78-0.18-3.13-0.2h-2.75c0.11,2.26,0.47,4.47,1.06,6.63
		c0.68-1.4,1.21-3.15,1.6-5.24l2.31,0.69c0.23,0.08,0.33,0.2,0.32,0.36c-0.02,0.16-0.16,0.32-0.42,0.49
		c-0.24,0.14-0.4,0.36-0.48,0.67c-0.57,1.74-1.4,3.55-2.47,5.44c0.72,1.54,1.5,2.54,2.36,3.01c0.01,0.01,0.03,0.01,0.05,0.01
		c0.24,0,0.45-0.86,0.62-2.58c0.82,0.87,1.5,1.45,2.05,1.74c-0.63,2.25-1.34,3.38-2.12,3.38c-1.35-0.19-2.78-1.45-4.26-3.76
		c-0.98,1.15-2.39,2.42-4.23,3.82c-0.54-0.75-1.19-1.36-1.93-1.85c2.04-0.61,3.78-1.94,5.22-4.01c-0.88-2.72-1.43-5.65-1.65-8.8
		h-6.99v2.69h2.81c0.87-0.01,1.75-0.08,2.64-0.2c-0.05,0.61-0.09,1.36-0.12,2.25c-0.04,2.23-0.09,3.68-0.17,4.36
		c-0.05,0.67-0.19,1.13-0.42,1.39c-0.49,0.81-1.89,1.24-4.18,1.3c-0.01-0.73-0.18-1.55-0.5-2.45c1.13,0.23,1.84,0.34,2.13,0.33
		c0.34,0,0.59-0.09,0.77-0.28c0.16-0.09,0.25-0.45,0.29-1.06c0.04-0.57,0.06-1.9,0.06-3.97h-3.3v1.05c0.01,0.36,0.02,0.62,0.02,0.79
		c0,3.53-0.99,6.29-2.98,8.29C124.14,316.66,123.53,316.29,122.92,316z M137.55,298.43l1.47-1.32c0.4,0.37,1.07,1.06,2,2.06
		c0.17,0.19,0.3,0.33,0.39,0.42l-1.61,1.32C139.14,300.03,138.39,299.21,137.55,298.43z"/>
	<path d="M153.02,311.89c-0.09,0.03-0.24,0.08-0.44,0.14c-2.96,0.97-5.12,1.71-6.49,2.23c-0.23-0.82-0.54-1.56-0.92-2.23
		c1.18-0.17,2.52-0.46,4.01-0.88v-9.25h-1.26c-0.8,0.01-1.58,0.09-2.33,0.23v-2.14c0.69,0.17,1.46,0.26,2.33,0.27h3.95
		c0.65,0,1.41-0.08,2.29-0.25v2.12c-0.72-0.12-1.49-0.2-2.29-0.23h-0.72v8.65c0.93-0.34,2.11-0.86,3.52-1.58
		c-0.25,1.03-0.35,1.87-0.31,2.5C153.85,311.61,153.4,311.75,153.02,311.89z M155.25,302.6l1.6-0.11c0-0.73-0.01-1.79-0.02-3.17
		c0.01-0.54-0.04-1.22-0.15-2.03l2.44,0.29c0.31,0.04,0.47,0.13,0.49,0.3c0.02,0.16-0.11,0.35-0.39,0.56
		c-0.19,0.12-0.28,0.59-0.28,1.41c-0.01,0.72-0.02,1.56-0.04,2.52l3.38-0.19c0.2-0.01,0.7-0.08,1.5-0.18
		c0.35-0.04,0.63-0.08,0.85-0.11c-0.09,1.02-0.14,2-0.15,2.93c-0.08,3.36-0.19,6.31-0.33,8.84c-0.04,1.23-0.42,2.07-1.13,2.5
		c-0.67,0.48-1.98,0.77-3.93,0.87c-0.02-0.77-0.25-1.58-0.7-2.43c1.1,0.11,1.79,0.17,2.06,0.16c1.04,0.02,1.58-0.34,1.61-1.08
		c0.12-1.98,0.25-5.25,0.4-9.81l-3.61,0.19v0.4c0.01,0.28,0.02,0.56,0.02,0.84c0,4.9-2.28,8.98-6.84,12.26
		c-0.54-0.55-1.28-1.07-2.2-1.55c1.85-0.83,3.4-2.06,4.66-3.67c1.56-1.85,2.32-4.48,2.29-7.87v-0.29l-1.16,0.1
		c-0.69,0.04-1.39,0.13-2.12,0.26l-0.13-2.06C153.96,302.55,154.59,302.6,155.25,302.6z"/>
</g>
<g>
	<path d="M10.16,34.27H6.08c0.18-1.22,0.26-2.81,0.25-4.78V11.26c0-1.34-0.08-2.77-0.25-4.31c1.51,0.2,2.93,0.3,4.25,0.32h2.16
		c1.02-2.19,1.65-4.16,1.9-5.91l4.22,1.05c0.55,0.15,0.84,0.38,0.86,0.67c-0.01,0.3-0.29,0.57-0.83,0.79
		c-0.57,0.22-1.07,0.76-1.48,1.6c-0.12,0.22-0.29,0.59-0.53,1.09c-0.15,0.32-0.26,0.55-0.33,0.7h9.9c0.97,0,2.39-0.11,4.25-0.32
		c-0.19,1.54-0.29,2.95-0.3,4.24v18c0.02,1.73,0.12,3.33,0.3,4.8h-4.15c0.23-1.16,0.35-2.16,0.33-2.99v-0.26H9.9V31
		C9.9,31.93,9.98,33.02,10.16,34.27z M9.9,10.05v3.99h16.75v-3.99H9.9z M9.9,16.82v3.92h16.75v-3.92H9.9z M9.9,23.52v4.5h16.75v-4.5
		H9.9z"/>
	<path d="M37.65,30.5c5.72-0.98,12.16-3.66,19.34-8.03H43.77c-0.73,0-1.9,0.11-3.52,0.33v-3.29c1.55,0.22,2.72,0.33,3.52,0.33h0.95
		V9.23c0-0.55-0.08-1.68-0.23-3.39c-0.01-0.14-0.02-0.25-0.04-0.32c1.43,0.19,2.72,0.28,3.88,0.28h1.09
		c0.76-1.38,1.36-2.94,1.79-4.68l2.99,1.07c0.8,0.3,1.2,0.57,1.2,0.81c0.02,0.23-0.35,0.49-1.13,0.77c-0.23,0.06-0.5,0.33-0.79,0.83
		c-0.04,0.06-0.09,0.14-0.16,0.25c-0.2,0.33-0.41,0.64-0.63,0.95h7.28c1.42,0,2.78-0.09,4.1-0.28c-0.21,1.46-0.32,2.7-0.32,3.71
		v7.66c0.5-0.53,1.29-1.46,2.36-2.81c0.07-0.09,0.12-0.16,0.16-0.21l2.46,2.41c0.41,0.41,0.62,0.71,0.62,0.9
		c0,0.05-0.01,0.09-0.04,0.12c-0.07,0.19-0.53,0.33-1.37,0.42c-0.32,0.04-0.8,0.33-1.44,0.9c-0.79,0.79-1.7,1.61-2.74,2.48v9.37
		c0.06,1.48-0.46,2.46-1.56,2.95c-1.07,0.56-3.19,0.88-6.36,0.97c-0.32-1.17-0.86-2.42-1.62-3.74c2.25,0.23,3.69,0.35,4.32,0.33
		c0.77,0,1.3-0.1,1.58-0.3c0.28-0.18,0.42-0.53,0.4-1.07v-5.94c-5.34,3.66-12.04,6.97-20.09,9.93
		C39.97,32.46,39.05,31.43,37.65,30.5z M60.52,10.47v-2H47.99v2H60.52z M47.99,13.11v2.09h12.53v-2.09H47.99z M47.99,17.82v2.02
		h12.53v-2.02H47.99z"/>
	<path d="M75.99,3.81c1.59,0.23,3.12,0.35,4.57,0.33h18.72c1.39-0.01,2.86-0.12,4.39-0.33v3.43c-1.43-0.21-2.89-0.32-4.39-0.32
		h-3.45v13.54c-0.07,0.57,0.48,0.85,1.65,0.83c0.84,0.02,1.42-0.23,1.72-0.77c0.34-0.47,0.67-1.63,0.98-3.48
		c0.97,1.46,2,2.54,3.09,3.23c-0.73,1.93-1.41,3.08-2.04,3.45c-0.62,0.49-1.9,0.73-3.83,0.7c-2.16,0.02-3.5-0.19-4.03-0.65
		c-0.3-0.22-0.52-0.56-0.63-1c-0.12-0.4-0.18-1.05-0.18-1.95V6.92h-3.92v6.29c0.04,3.3-0.39,5.83-1.28,7.58
		c-0.82,1.79-2.59,3.81-5.31,6.06c-0.6-0.88-1.41-1.71-2.44-2.48v4.54h21.09c1.32,0,2.7-0.11,4.11-0.33v3.39
		c-1.49-0.2-2.86-0.3-4.11-0.32H80.49c-0.96-0.01-2.46,0.09-4.5,0.32c0.22-1.27,0.33-2.72,0.33-4.36V8.17
		C76.32,7.48,76.21,6.03,75.99,3.81z M79.63,6.92v17.19c3.77-2.25,5.7-5.88,5.77-10.9V6.92H79.63z"/>
	<path d="M126.44,3.35v3.27c-1.52-0.18-2.65-0.28-3.39-0.32h-1.41v3.2h0.86c1.29-0.05,2.51-0.14,3.67-0.28
		c-0.14,1.52-0.22,2.65-0.25,3.38v16.07c0.05,1.3,0.13,2.68,0.25,4.13h-3.57c0.01-0.11,0.03-0.28,0.05-0.51
		c0.14-1.13,0.21-1.8,0.21-2.04h-9.21c0.01,0.13,0.03,0.35,0.05,0.65c0.09,1.34,0.17,2.24,0.23,2.72h-3.53
		c0.13-1.25,0.23-2.63,0.3-4.13V12.74c-0.04-0.81-0.13-1.98-0.3-3.52c1.17,0.15,2.42,0.25,3.74,0.28h0.76v-3.2h-1.72
		c-0.84,0.02-2,0.12-3.46,0.28V3.35c1.31,0.18,2.47,0.28,3.46,0.32h9.83C124.09,3.62,125.23,3.52,126.44,3.35z M115.28,21.88
		c-0.45-0.36-0.98-0.78-1.62-1.25v1.76h9.25v-2.16c-0.35,0.05-0.89,0.07-1.62,0.07c-1.01,0.01-1.66-0.25-1.95-0.77
		c-0.16-0.26-0.28-0.62-0.33-1.09c-0.06-0.41-0.09-1.08-0.09-2.02v-4.43h-1.27C117.77,16.66,116.98,19.96,115.28,21.88z
		 M113.66,11.99v7.28c0.49-0.82,0.82-1.74,0.98-2.76c0.18-0.98,0.26-2.49,0.26-4.52H113.66z M122.91,25.03h-9.25v2.58h9.25V25.03z
		 M117.65,6.31v3.2h1.27v-3.2H117.65z M122.04,17.68c0.43,0,0.72-0.01,0.86-0.04v-5.66h-1.27v4.8
		C121.63,17.41,121.76,17.7,122.04,17.68z M140.54,17.03c-1.05-0.15-2.31-0.25-3.78-0.28h-5.71v11.69
		c-0.04,0.43,0.13,0.71,0.51,0.83s1.19,0.18,2.44,0.18c2.2,0.02,3.62-0.35,4.25-1.11c0.53-0.53,0.79-1.47,0.79-2.83
		c0-0.46-0.03-0.96-0.09-1.51c1.05,0.56,1.86,0.93,2.41,1.09c0.55,0.19,1.12,0.26,1.71,0.21c-0.22,2.98-0.92,4.9-2.09,5.77
		c-1.09,1-3.29,1.48-6.59,1.44c-2.6,0.02-4.36-0.25-5.27-0.83c-0.91-0.52-1.35-1.58-1.32-3.18V17.93c-0.06-1.56-0.15-2.95-0.28-4.17
		c1.43,0.14,2.82,0.23,4.18,0.28h5.33V6.17h-5.52c-1.62,0.04-3.01,0.12-4.17,0.25V3.13c1.16,0.15,2.55,0.26,4.17,0.33h4.87
		c1.38-0.06,2.77-0.15,4.17-0.28c-0.13,1.32-0.22,2.64-0.28,3.96v5.75C140.29,14.44,140.38,15.82,140.54,17.03z"/>
</g>
<rect x="188.67" y="131.64" class="st4" width="49.88" height="49"/>
<rect x="238.54" y="131.64" class="st5" width="49.88" height="49"/>
<rect x="288.42" y="131.64" class="st5" width="49.88" height="49"/>
<rect x="338.29" y="131.64" class="st5" width="49.88" height="49"/>
<text transform="matrix(1 0 0 1 204.4731 167.8511)" class="st1 st2">A</text>
<text transform="matrix(1 0 0 1 253 167.4751)" class="st1 st2">B</text>
<rect x="388.29" y="131.64" class="st5" width="49.88" height="49"/>
<text transform="matrix(1 0 0 1 305 167.8081)" class="st1 st2">B</text>
<text transform="matrix(1 0 0 1 353.4731 167.8511)" class="st1 st2">A</text>
<text transform="matrix(1 0 0 1 403 167.8081)" class="st1 st2">B</text>
<g>
	<path d="M456.23,155.14l0.79-3.75c3.62-1.58,6.43-3.42,8.41-5.52h2.56l-4.53,21.61h-4.23l3.12-14.88
		c-0.88,0.57-1.89,1.08-3.04,1.55S457.13,154.95,456.23,155.14z"/>
</g>
<rect x="238.67" y="206.64" class="st3" width="49.88" height="49"/>
<rect x="288.54" y="206.64" class="st4" width="49.88" height="49"/>
<rect x="338.42" y="206.64" class="st5" width="49.88" height="49"/>
<rect x="388.29" y="206.64" class="st5" width="49.88" height="49"/>
<text transform="matrix(1 0 0 1 254.4731 242.8511)" class="st1 st2">A</text>
<text transform="matrix(1 0 0 1 303 242.4751)" class="st1 st2">B</text>
<rect x="438.29" y="206.64" class="st5" width="49.88" height="49"/>
<text transform="matrix(1 0 0 1 355 242.8081)" class="st1 st2">B</text>
<text transform="matrix(1 0 0 1 403.4731 242.8511)" class="st1 st2">A</text>
<text transform="matrix(1 0 0 1 453 242.8081)" class="st1 st2">B</text>
<g>
	<path d="M510.59,227.69l-4.12-0.62c0.33-1.99,1.11-3.52,2.32-4.58s2.74-1.59,4.56-1.59c2,0,3.57,0.54,4.72,1.63
		s1.71,2.46,1.71,4.13c0,0.85-0.18,1.7-0.53,2.56s-0.93,1.75-1.73,2.69c-0.58,0.66-1.52,1.6-2.83,2.82s-2.18,2.05-2.6,2.49
		s-0.83,0.92-1.22,1.41h7.44l-0.79,3.84h-13.05c0.14-1.05,0.45-2.06,0.93-3.01s1.09-1.84,1.81-2.66s2.05-2.14,3.97-3.97
		c1.45-1.39,2.36-2.29,2.74-2.71c0.68-0.76,1.15-1.42,1.41-1.98s0.38-1.06,0.38-1.51c0-0.72-0.21-1.31-0.64-1.76
		s-0.96-0.67-1.62-0.67c-0.66,0-1.25,0.25-1.74,0.75S510.85,226.38,510.59,227.69z"/>
</g>
<rect x="287.67" y="281.64" class="st3" width="49.88" height="49"/>
<rect x="337.54" y="281.64" class="st3" width="49.88" height="49"/>
<rect x="387.42" y="281.64" class="st5" width="49.88" height="49"/>
<rect x="437.29" y="281.64" class="st5" width="49.88" height="49"/>
<text transform="matrix(1 0 0 1 303.4731 317.8511)" class="st1 st2">A</text>
<text transform="matrix(1 0 0 1 352 317.4751)" class="st1 st2">B</text>
<rect x="487.29" y="281.64" class="st5" width="49.88" height="49"/>
<text transform="matrix(1 0 0 1 404 317.8081)" class="st1 st2">B</text>
<text transform="matrix(1 0 0 1 452.4731 317.8511)" class="st1 st2">A</text>
<text transform="matrix(1 0 0 1 502 317.8081)" class="st1 st2">B</text>
<g>
	<path d="M553.19,311.86l4.03-0.48c0.17,1.14,0.47,1.93,0.9,2.37s1.01,0.66,1.74,0.66c0.96,0,1.75-0.32,2.38-0.97
		s0.94-1.47,0.94-2.47c0-0.88-0.25-1.58-0.76-2.09s-1.19-0.77-2.05-0.77c-0.21,0-0.44,0.02-0.67,0.06l0.73-3.5
		c0.15,0.02,0.29,0.03,0.42,0.03c1.12,0,1.98-0.29,2.56-0.86s0.88-1.35,0.88-2.32c0-0.69-0.2-1.24-0.59-1.64s-0.92-0.6-1.56-0.6
		c-0.61,0-1.15,0.22-1.63,0.67s-0.86,1.2-1.14,2.28l-3.84-0.76c0.49-1.58,1.17-2.8,2.04-3.65c1.32-1.27,2.94-1.9,4.86-1.9
		c1.97,0,3.47,0.55,4.5,1.65s1.54,2.41,1.54,3.95c0,1.11-0.33,2.12-0.98,3.02s-1.55,1.56-2.7,1.98c0.91,0.48,1.58,1.1,2.01,1.86
		c0.43,0.76,0.64,1.56,0.64,2.39c0,1.58-0.56,3.04-1.68,4.37c-1.53,1.82-3.51,2.72-5.93,2.72c-1.82,0-3.31-0.52-4.49-1.56
		S553.44,313.77,553.19,311.86z"/>
</g>
</svg>
