<?xml version="1.0" encoding="utf-8"?>
<!-- Generator: Adobe Illustrator 22.1.0, SVG Export Plug-In . SVG Version: 6.00 Build 0)  -->
<svg version="1.1" id="图层_1" xmlns="http://www.w3.org/2000/svg" xmlns:xlink="http://www.w3.org/1999/xlink" x="0px" y="0px"
	 viewBox="0 0 622.35 775.14" style="enable-background:new 0 0 622.35 775.14;" xml:space="preserve">
<style type="text/css">
	.st0{fill:#DBDADA;stroke:#000000;stroke-miterlimit:10;}
	.st1{font-family:'ArialMT';}
	.st2{font-size:30px;}
	.st3{fill:#FFF38B;stroke:#000000;stroke-miterlimit:10;}
	.st4{fill:#FF5050;stroke:#000000;stroke-miterlimit:10;}
	.st5{fill:none;stroke:#29ABE2;stroke-width:3;stroke-miterlimit:10;}
	.st6{fill:none;stroke:#29ABE2;stroke-width:3;stroke-miterlimit:10;stroke-dasharray:11.6522,11.6522;}
	.st7{fill:none;stroke:#29ABE2;stroke-width:3;stroke-miterlimit:10;stroke-dasharray:13.6,13.6;}
	.st8{fill:none;stroke:#29ABE2;stroke-width:3;stroke-miterlimit:10;stroke-dasharray:11.4737,11.4737;}
	.st9{fill:none;stroke:#29ABE2;stroke-width:3;stroke-miterlimit:10;stroke-dasharray:10.7429,10.7429;}
	.st10{fill:none;stroke:#00FF00;stroke-width:1.5;stroke-miterlimit:10;stroke-dasharray:11.8513,5.9257;}
	.st11{fill:none;stroke:#00FF00;stroke-width:1.5;stroke-miterlimit:10;stroke-dasharray:11.5162,5.7581;}
</style>
<rect x="138.17" y="575.64" class="st0" width="49.88" height="49"/>
<rect x="188.04" y="575.64" class="st0" width="49.88" height="49"/>
<rect x="237.92" y="575.64" class="st0" width="49.88" height="49"/>
<rect x="287.79" y="575.64" class="st0" width="49.88" height="49"/>
<rect x="337.67" y="575.64" class="st0" width="49.88" height="49"/>
<rect x="387.54" y="575.64" class="st0" width="49.88" height="49"/>
<rect x="437.42" y="575.64" class="st0" width="49.88" height="49"/>
<rect x="487.29" y="575.64" class="st0" width="49.88" height="49"/>
<text transform="matrix(1 0 0 1 153.4731 611.8511)" class="st1 st2">A</text>
<text transform="matrix(1 0 0 1 253.4731 611.8511)" class="st1 st2">C</text>
<text transform="matrix(1 0 0 1 204 611.8081)" class="st1 st2">B</text>
<text transform="matrix(1 0 0 1 353.4731 611.8511)" class="st1 st2">A</text>
<text transform="matrix(1 0 0 1 303 611.8081)" class="st1 st2">D</text>
<text transform="matrix(1 0 0 1 402 611.4751)" class="st1 st2">B</text>
<rect x="537.29" y="575.64" class="st0" width="49.88" height="49"/>
<text transform="matrix(1 0 0 1 454 611.8081)" class="st1 st2">C</text>
<text transform="matrix(1 0 0 1 502.4731 611.8511)" class="st1 st2">D</text>
<text transform="matrix(1 0 0 1 552 611.8081)" class="st1 st2">E</text>
<g>
	<path d="M40.43,67.64v2.68h-5.76V86.9h-3.31V70.32h-5.67v-2.68H40.43z"/>
	<path d="M45.27,80.49c0.05,1.43,0.36,2.53,0.95,3.3c0.59,0.77,1.39,1.16,2.41,1.16c0.69,0,1.31-0.17,1.85-0.52
		c0.54-0.35,1.03-0.93,1.47-1.75l2.47,1.19c-0.54,0.87-1.08,1.52-1.61,1.97c-0.54,0.45-1.16,0.78-1.88,1
		c-0.72,0.22-1.57,0.33-2.55,0.33c-2.05,0-3.63-0.65-4.74-1.93c-1.11-1.29-1.67-3.1-1.67-5.43c0-2.35,0.58-4.14,1.75-5.37
		c1.17-1.23,2.76-1.84,4.77-1.84c2,0,3.52,0.65,4.58,1.96c1.06,1.31,1.59,3.16,1.59,5.54v0.38H45.27z M48.38,74.77
		c-0.92,0-1.65,0.33-2.2,0.98s-0.84,1.56-0.89,2.72h6.1c-0.09-1.24-0.37-2.17-0.85-2.78C50.07,75.08,49.35,74.77,48.38,74.77z"/>
	<path d="M62.63,78.02l3.21-5.13h3.43l-4.87,6.77l5.17,7.25h-3.43l-3.51-5.35l-3.54,5.35h-3.34l5.1-7.21L56,72.89h3.39L62.63,78.02z
		"/>
	<path d="M75.91,87.15c-1.09,0-1.96-0.31-2.59-0.94c-0.63-0.62-0.95-1.52-0.95-2.69v-8.35H70.3v-2.28h2.11l1-3.39h2.09v3.39h3.38
		v2.28H75.5v7.56c0,1.39,0.59,2.08,1.76,2.08c0.56,0,1.15-0.06,1.79-0.18v2.11C78.01,87.01,76.96,87.15,75.91,87.15z"/>
</g>
<g>
	<path d="M40.8,149.54c0,1.2-0.27,2.26-0.81,3.17c-0.54,0.91-1.33,1.62-2.37,2.13c-1.03,0.51-2.26,0.77-3.67,0.77h-2.9v7.29h-3.31
		v-19.26h6.07c2.24,0,3.97,0.51,5.17,1.54C40.19,146.2,40.8,147.66,40.8,149.54z M37.46,149.57c0-1.11-0.33-1.98-1-2.6
		c-0.67-0.62-1.68-0.93-3.03-0.93h-2.38v7.19h2.49c1.24,0,2.2-0.32,2.89-0.95C37.12,151.65,37.46,150.75,37.46,149.57z"/>
	<path d="M54.43,162.9h-3.04l-0.11-2.21c-0.46,0.91-1.03,1.55-1.68,1.93c-0.66,0.37-1.46,0.56-2.42,0.56c-1.44,0-2.54-0.37-3.3-1.12
		c-0.76-0.75-1.14-1.79-1.14-3.12c0-1.46,0.52-2.57,1.56-3.35c1.04-0.77,2.57-1.19,4.59-1.26l2.39-0.08v-0.44
		c0-1.08-0.18-1.87-0.53-2.36c-0.35-0.49-0.95-0.73-1.78-0.73c-0.74,0-1.28,0.14-1.63,0.42c-0.35,0.28-0.59,0.71-0.72,1.29
		l-3.04-0.48c0.27-1.19,0.85-2.05,1.72-2.57c0.87-0.52,2.11-0.78,3.71-0.78c1.87,0,3.24,0.44,4.11,1.33
		c0.87,0.88,1.31,2.26,1.31,4.12V162.9z M48.14,160.96c0.98,0,1.75-0.34,2.31-1.02c0.56-0.68,0.85-1.55,0.85-2.62v-1.27l-1.49,0.05
		c-1.34,0.06-2.3,0.3-2.89,0.71s-0.88,1.05-0.88,1.93C46.03,160.22,46.73,160.96,48.14,160.96z"/>
	<path d="M62.53,163.15c-1.09,0-1.96-0.31-2.59-0.94c-0.63-0.62-0.95-1.52-0.95-2.69v-8.35h-2.06v-2.28h2.11l1-3.39h2.09v3.39h3.38
		v2.28h-3.38v7.56c0,1.39,0.59,2.08,1.76,2.08c0.56,0,1.15-0.06,1.79-0.18v2.11C64.64,163.01,63.59,163.15,62.53,163.15z"/>
	<path d="M72.65,163.15c-1.09,0-1.96-0.31-2.59-0.94c-0.63-0.62-0.95-1.52-0.95-2.69v-8.35h-2.06v-2.28h2.11l1-3.39h2.09v3.39h3.38
		v2.28h-3.38v7.56c0,1.39,0.59,2.08,1.76,2.08c0.56,0,1.15-0.06,1.79-0.18v2.11C74.76,163.01,73.71,163.15,72.65,163.15z"/>
	<path d="M81.03,156.49c0.05,1.43,0.36,2.53,0.95,3.3c0.59,0.77,1.39,1.16,2.41,1.16c0.69,0,1.31-0.17,1.85-0.52
		c0.54-0.35,1.03-0.93,1.47-1.75l2.47,1.19c-0.54,0.87-1.08,1.52-1.61,1.97c-0.54,0.45-1.16,0.78-1.88,1
		c-0.72,0.22-1.57,0.33-2.55,0.33c-2.05,0-3.63-0.65-4.74-1.93c-1.11-1.29-1.67-3.1-1.67-5.43c0-2.35,0.58-4.14,1.75-5.37
		c1.17-1.23,2.76-1.84,4.77-1.84c2,0,3.52,0.65,4.58,1.96c1.06,1.31,1.59,3.16,1.59,5.54v0.38H81.03z M84.15,150.77
		c-0.92,0-1.65,0.33-2.2,0.98s-0.84,1.56-0.89,2.72h6.1c-0.09-1.24-0.37-2.17-0.85-2.78C85.84,151.08,85.12,150.77,84.15,150.77z"/>
	<path d="M99.98,151.21c-1.02,0-1.84,0.45-2.45,1.35c-0.61,0.9-0.92,2.11-0.92,3.63v6.71h-3.14v-10.55c0-1.48-0.03-2.63-0.1-3.46
		h2.99c0.09,1.09,0.14,2.15,0.14,3.17h0.05c0.44-1.29,0.94-2.19,1.52-2.7s1.33-0.76,2.27-0.76c0.43,0,0.78,0.06,1.07,0.18v2.58
		C100.95,151.26,100.47,151.21,99.98,151.21z"/>
	<path d="M113.08,162.9v-7.83c0-1.42-0.22-2.44-0.66-3.06c-0.44-0.62-1.14-0.93-2.1-0.93c-1.03,0-1.84,0.4-2.43,1.19
		s-0.88,1.87-0.88,3.23v7.41h-3.14v-10.79c0-1.08-0.04-2.16-0.12-3.23h2.99c0.1,1.37,0.15,2.27,0.15,2.71h0.05
		c0.54-1.05,1.16-1.81,1.87-2.28c0.71-0.47,1.63-0.71,2.75-0.71c1.56,0,2.73,0.46,3.51,1.38c0.78,0.92,1.17,2.34,1.17,4.27v8.65
		H113.08z"/>
</g>
<g>
	<path d="M5.77,22.3c0.06,1.84,0.47,3.25,1.22,4.25s1.79,1.49,3.1,1.49c0.89,0,1.68-0.22,2.38-0.67s1.33-1.2,1.89-2.25l3.18,1.53
		c-0.69,1.11-1.38,1.96-2.07,2.53s-1.5,1-2.42,1.29s-2.01,0.43-3.28,0.43c-2.64,0-4.67-0.83-6.1-2.49s-2.14-3.99-2.14-6.99
		c0-3.02,0.75-5.32,2.25-6.9s3.54-2.36,6.13-2.36c2.57,0,4.53,0.84,5.89,2.52s2.04,4.06,2.04,7.13v0.49H5.77z M9.77,14.96
		c-1.18,0-2.13,0.42-2.83,1.27s-1.08,2.01-1.14,3.5h7.84c-0.12-1.59-0.48-2.79-1.09-3.58S11.02,14.96,9.77,14.96z"/>
	<path d="M28.09,19.12l4.13-6.59h4.41l-6.26,8.7l6.64,9.32h-4.41l-4.52-6.87l-4.55,6.87h-4.29l6.56-9.26l-6.24-8.75h4.36
		L28.09,19.12z"/>
	<path d="M53.53,30.55h-3.9l-0.14-2.85c-0.6,1.17-1.32,2-2.16,2.48s-1.88,0.72-3.11,0.72c-1.85,0-3.27-0.48-4.25-1.44
		s-1.47-2.3-1.47-4.01c0-1.88,0.67-3.31,2-4.31s3.3-1.54,5.91-1.62l3.08-0.11v-0.56c0-1.39-0.23-2.41-0.68-3.03
		s-1.22-0.94-2.29-0.94c-0.95,0-1.65,0.18-2.1,0.54s-0.76,0.91-0.92,1.66l-3.9-0.62c0.35-1.54,1.09-2.64,2.21-3.3s2.71-1,4.77-1
		c2.4,0,4.16,0.57,5.28,1.71s1.68,2.9,1.68,5.29V30.55z M45.44,28.05c1.25,0,2.24-0.44,2.97-1.31s1.09-2,1.09-3.37v-1.63l-1.92,0.07
		c-1.72,0.08-2.96,0.39-3.72,0.91s-1.13,1.35-1.13,2.48C42.73,27.1,43.63,28.05,45.44,28.05z"/>
	<path d="M69.98,30.55V20.48c0-1.86-0.26-3.18-0.78-3.96s-1.35-1.17-2.49-1.17c-1.24,0-2.23,0.5-2.95,1.51s-1.09,2.4-1.09,4.17v9.53
		h-4.04V16.68c0-1.39-0.05-2.78-0.16-4.15h3.85c0.13,1.76,0.19,2.92,0.19,3.48h0.07c0.68-1.38,1.46-2.37,2.36-2.96
		s2.02-0.89,3.39-0.89c2.82,0,4.61,1.28,5.34,3.85h0.12c0.63-1.32,1.4-2.3,2.31-2.92s2.08-0.93,3.52-0.93
		c1.93,0,3.38,0.59,4.34,1.76s1.44,3.01,1.44,5.5v11.13h-4.06V20.48c0-1.83-0.27-3.14-0.8-3.94s-1.38-1.2-2.54-1.2
		c-1.23,0-2.2,0.5-2.91,1.49s-1.06,2.35-1.06,4.09v9.63H69.98z"/>
	<path d="M107.98,21.44c0,2.95-0.69,5.27-2.07,6.94s-3.29,2.51-5.74,2.51c-1.41,0-2.56-0.27-3.46-0.81s-1.62-1.32-2.16-2.36h-0.09
		c0.02,0.47,0.04,0.93,0.06,1.39s0.03,0.92,0.03,1.39v6.96h-4.06V16.54c0-1.22-0.05-2.55-0.14-4.01h3.9
		c0.15,1.22,0.23,2.24,0.23,3.06h0.07c1.13-2.29,3.1-3.43,5.92-3.43c2.43,0,4.28,0.8,5.57,2.4S107.98,18.45,107.98,21.44z
		 M103.76,21.48c0-4.22-1.48-6.33-4.45-6.33c-1.58,0-2.78,0.54-3.6,1.63s-1.23,2.67-1.23,4.75s0.4,3.66,1.2,4.75
		s1.99,1.63,3.57,1.63C102.26,27.91,103.76,25.77,103.76,21.48z"/>
	<path d="M112.2,30.55V4.99h4.04v25.56H112.2z"/>
	<path d="M124.7,22.3c0.06,1.84,0.47,3.25,1.22,4.25s1.79,1.49,3.1,1.49c0.89,0,1.68-0.22,2.38-0.67s1.33-1.2,1.89-2.25l3.18,1.53
		c-0.69,1.11-1.38,1.96-2.07,2.53s-1.5,1-2.42,1.29s-2.01,0.43-3.28,0.43c-2.64,0-4.67-0.83-6.1-2.49s-2.14-3.99-2.14-6.99
		c0-3.02,0.75-5.32,2.25-6.9s3.54-2.36,6.13-2.36c2.57,0,4.53,0.84,5.89,2.52s2.04,4.06,2.04,7.13v0.49H124.7z M128.71,14.96
		c-1.18,0-2.13,0.42-2.83,1.27s-1.08,2.01-1.14,3.5h7.84c-0.12-1.59-0.48-2.79-1.09-3.58S129.95,14.96,128.71,14.96z"/>
	<path d="M150.49,27.3h6.42V9.47l-5.8,3.71V9.82l6.05-4.04h3.78V27.3h5.47v3.25h-15.91V27.3z"/>
</g>
<rect x="138.17" y="129.64" class="st3" width="49.88" height="49"/>
<rect x="188.04" y="129.64" class="st3" width="49.88" height="49"/>
<rect x="237.92" y="129.64" class="st3" width="49.88" height="49"/>
<rect x="287.79" y="129.64" class="st3" width="49.88" height="49"/>
<rect x="337.67" y="129.64" class="st3" width="49.88" height="49"/>
<rect x="387.54" y="129.64" class="st4" width="49.88" height="49"/>
<text transform="matrix(1 0 0 1 153.4731 165.8511)" class="st1 st2">A</text>
<text transform="matrix(1 0 0 1 253.4731 165.8511)" class="st1 st2">C</text>
<text transform="matrix(1 0 0 1 204 165.8081)" class="st1 st2">B</text>
<text transform="matrix(1 0 0 1 353.4731 165.8511)" class="st1 st2">B</text>
<text transform="matrix(1 0 0 1 303 165.8081)" class="st1 st2">A</text>
<text transform="matrix(1 0 0 1 402 165.4751)" class="st1 st2">D</text>
<g>
	<path d="M466.47,166.14h-4.12v-15.51c-1.5,1.41-3.28,2.45-5.32,3.12v-3.74c1.07-0.35,2.24-1.02,3.5-2s2.12-2.13,2.59-3.44h3.34
		V166.14z"/>
</g>
<rect x="289.17" y="204.64" class="st3" width="49.88" height="49"/>
<rect x="339.04" y="204.64" class="st3" width="49.88" height="49"/>
<rect x="388.92" y="204.64" class="st3" width="49.88" height="49"/>
<rect x="438.79" y="204.64" class="st3" width="49.88" height="49"/>
<rect x="488.67" y="204.64" class="st3" width="49.88" height="49"/>
<rect x="538.54" y="204.64" class="st3" width="49.88" height="49"/>
<text transform="matrix(1 0 0 1 304.4731 240.8511)" class="st1 st2">A</text>
<text transform="matrix(1 0 0 1 404.4731 240.8511)" class="st1 st2">C</text>
<text transform="matrix(1 0 0 1 355 240.8081)" class="st1 st2">B</text>
<text transform="matrix(1 0 0 1 504.4731 240.8511)" class="st1 st2">B</text>
<text transform="matrix(1 0 0 1 454 240.8081)" class="st1 st2">A</text>
<text transform="matrix(1 0 0 1 553 240.4751)" class="st1 st2">D</text>
<g>
	<path d="M620.84,237.32v3.82h-14.43c0.16-1.45,0.63-2.81,1.41-4.11s2.32-3.01,4.63-5.15c1.86-1.73,2.99-2.9,3.41-3.52
		c0.57-0.85,0.85-1.69,0.85-2.52c0-0.92-0.25-1.62-0.74-2.12s-1.17-0.74-2.04-0.74c-0.86,0-1.54,0.26-2.05,0.78s-0.8,1.38-0.88,2.58
		l-4.1-0.41c0.24-2.27,1.01-3.89,2.3-4.88s2.9-1.48,4.83-1.48c2.12,0,3.78,0.57,5,1.71s1.82,2.56,1.82,4.26
		c0,0.97-0.17,1.89-0.52,2.76s-0.9,1.79-1.65,2.75c-0.5,0.63-1.4,1.55-2.7,2.74s-2.12,1.98-2.47,2.37s-0.63,0.77-0.84,1.14H620.84z"
		/>
</g>
<g>
	<g>
		<polyline class="st5" points="400.67,188.14 400.67,194.14 394.67,194.14 		"/>
		<line class="st6" x1="383.01" y1="194.14" x2="132.49" y2="194.14"/>
		<polyline class="st5" points="126.67,194.14 120.67,194.14 120.67,188.14 		"/>
		<line class="st7" x1="120.67" y1="174.54" x2="120.67" y2="126.94"/>
		<polyline class="st5" points="120.67,120.14 120.67,114.14 126.67,114.14 		"/>
		<line class="st6" x1="138.32" y1="114.14" x2="388.84" y2="114.14"/>
		<polyline class="st5" points="394.67,114.14 400.67,114.14 400.67,120.14 		"/>
		<line class="st7" x1="400.67" y1="133.74" x2="400.67" y2="181.34"/>
	</g>
</g>
<rect x="139.17" y="320.64" class="st0" width="49.88" height="49"/>
<rect x="189.04" y="320.64" class="st0" width="49.88" height="49"/>
<rect x="238.92" y="320.64" class="st0" width="49.88" height="49"/>
<rect x="288.79" y="320.64" class="st0" width="49.88" height="49"/>
<rect x="338.67" y="320.64" class="st0" width="49.88" height="49"/>
<rect x="388.54" y="320.64" class="st0" width="49.88" height="49"/>
<rect x="438.42" y="320.64" class="st0" width="49.88" height="49"/>
<rect x="488.29" y="320.64" class="st0" width="49.88" height="49"/>
<text transform="matrix(1 0 0 1 154.4731 356.8511)" class="st1 st2">D</text>
<text transform="matrix(1 0 0 1 254.4731 356.8511)" class="st1 st2">D</text>
<text transform="matrix(1 0 0 1 205 356.8081)" class="st1 st2">B</text>
<text transform="matrix(1 0 0 1 354.4731 356.8511)" class="st1 st2">B</text>
<text transform="matrix(1 0 0 1 304 356.8081)" class="st1 st2">D</text>
<text transform="matrix(1 0 0 1 403 356.4751)" class="st1 st2">D</text>
<text transform="matrix(1 0 0 1 455 356.8081)" class="st1 st2">D</text>
<text transform="matrix(1 0 0 1 503.4731 356.8511)" class="st1 st2">A</text>
<g>
	<path d="M40.43,333.64v2.68h-5.76v16.58h-3.31v-16.58h-5.67v-2.68H40.43z"/>
	<path d="M45.27,346.49c0.05,1.43,0.36,2.53,0.95,3.3c0.59,0.77,1.39,1.15,2.41,1.15c0.69,0,1.31-0.17,1.85-0.52
		c0.54-0.35,1.03-0.93,1.47-1.75l2.47,1.19c-0.54,0.87-1.08,1.52-1.61,1.97c-0.54,0.45-1.16,0.78-1.88,1.01
		c-0.72,0.22-1.57,0.33-2.55,0.33c-2.05,0-3.63-0.64-4.74-1.93c-1.11-1.29-1.67-3.1-1.67-5.44c0-2.35,0.58-4.14,1.75-5.37
		c1.17-1.23,2.76-1.84,4.77-1.84c2,0,3.52,0.65,4.58,1.96c1.06,1.31,1.59,3.16,1.59,5.54v0.38H45.27z M48.38,340.77
		c-0.92,0-1.65,0.33-2.2,0.98s-0.84,1.56-0.89,2.72h6.1c-0.09-1.24-0.37-2.17-0.85-2.78C50.07,341.08,49.35,340.77,48.38,340.77z"/>
	<path d="M62.63,344.01l3.21-5.13h3.43l-4.87,6.77l5.17,7.25h-3.43l-3.51-5.35l-3.54,5.35h-3.34l5.1-7.21L56,338.89h3.39
		L62.63,344.01z"/>
	<path d="M75.91,353.15c-1.09,0-1.96-0.31-2.59-0.94c-0.63-0.63-0.95-1.52-0.95-2.69v-8.35H70.3v-2.28h2.11l1-3.39h2.09v3.39h3.38
		v2.28H75.5v7.56c0,1.39,0.59,2.08,1.76,2.08c0.56,0,1.15-0.06,1.79-0.18v2.11C78.01,353.01,76.96,353.15,75.91,353.15z"/>
</g>
<g>
	<path d="M40.8,415.54c0,1.2-0.27,2.26-0.81,3.17c-0.54,0.91-1.33,1.62-2.37,2.13c-1.03,0.51-2.26,0.77-3.67,0.77h-2.9v7.29h-3.31
		v-19.26h6.07c2.24,0,3.97,0.51,5.17,1.54C40.19,412.2,40.8,413.66,40.8,415.54z M37.46,415.57c0-1.11-0.33-1.98-1-2.6
		c-0.67-0.62-1.68-0.93-3.03-0.93h-2.38v7.19h2.49c1.24,0,2.2-0.32,2.89-0.95C37.12,417.65,37.46,416.75,37.46,415.57z"/>
	<path d="M54.43,428.9h-3.04l-0.11-2.21c-0.46,0.91-1.03,1.55-1.68,1.93c-0.66,0.37-1.46,0.56-2.42,0.56c-1.44,0-2.54-0.37-3.3-1.12
		c-0.76-0.75-1.14-1.79-1.14-3.12c0-1.46,0.52-2.57,1.56-3.35c1.04-0.77,2.57-1.19,4.59-1.26l2.39-0.08v-0.44
		c0-1.08-0.18-1.87-0.53-2.36c-0.35-0.49-0.95-0.73-1.78-0.73c-0.74,0-1.28,0.14-1.63,0.42c-0.35,0.28-0.59,0.71-0.72,1.29
		l-3.04-0.48c0.27-1.19,0.85-2.05,1.72-2.57c0.87-0.52,2.11-0.78,3.71-0.78c1.87,0,3.24,0.44,4.11,1.33
		c0.87,0.88,1.31,2.26,1.31,4.12V428.9z M48.14,426.96c0.98,0,1.75-0.34,2.31-1.02c0.56-0.68,0.85-1.55,0.85-2.62v-1.27l-1.49,0.05
		c-1.34,0.06-2.3,0.3-2.89,0.71s-0.88,1.05-0.88,1.93C46.03,426.22,46.73,426.96,48.14,426.96z"/>
	<path d="M62.53,429.15c-1.09,0-1.96-0.31-2.59-0.94c-0.63-0.63-0.95-1.52-0.95-2.69v-8.35h-2.06v-2.28h2.11l1-3.39h2.09v3.39h3.38
		v2.28h-3.38v7.56c0,1.39,0.59,2.08,1.76,2.08c0.56,0,1.15-0.06,1.79-0.18v2.11C64.64,429.01,63.59,429.15,62.53,429.15z"/>
	<path d="M72.65,429.15c-1.09,0-1.96-0.31-2.59-0.94c-0.63-0.63-0.95-1.52-0.95-2.69v-8.35h-2.06v-2.28h2.11l1-3.39h2.09v3.39h3.38
		v2.28h-3.38v7.56c0,1.39,0.59,2.08,1.76,2.08c0.56,0,1.15-0.06,1.79-0.18v2.11C74.76,429.01,73.71,429.15,72.65,429.15z"/>
	<path d="M81.03,422.49c0.05,1.43,0.36,2.53,0.95,3.3c0.59,0.77,1.39,1.15,2.41,1.15c0.69,0,1.31-0.17,1.85-0.52
		c0.54-0.35,1.03-0.93,1.47-1.75l2.47,1.19c-0.54,0.87-1.08,1.52-1.61,1.97c-0.54,0.45-1.16,0.78-1.88,1.01
		c-0.72,0.22-1.57,0.33-2.55,0.33c-2.05,0-3.63-0.64-4.74-1.93c-1.11-1.29-1.67-3.1-1.67-5.44c0-2.35,0.58-4.14,1.75-5.37
		c1.17-1.23,2.76-1.84,4.77-1.84c2,0,3.52,0.65,4.58,1.96c1.06,1.31,1.59,3.16,1.59,5.54v0.38H81.03z M84.15,416.77
		c-0.92,0-1.65,0.33-2.2,0.98s-0.84,1.56-0.89,2.72h6.1c-0.09-1.24-0.37-2.17-0.85-2.78C85.84,417.08,85.12,416.77,84.15,416.77z"/>
	<path d="M99.98,417.21c-1.02,0-1.84,0.45-2.45,1.35c-0.61,0.9-0.92,2.11-0.92,3.63v6.71h-3.14v-10.55c0-1.48-0.03-2.63-0.1-3.46
		h2.99c0.09,1.09,0.14,2.15,0.14,3.17h0.05c0.44-1.29,0.94-2.19,1.52-2.7s1.33-0.76,2.27-0.76c0.43,0,0.78,0.06,1.07,0.18v2.58
		C100.95,417.26,100.47,417.21,99.98,417.21z"/>
	<path d="M113.08,428.9v-7.83c0-1.42-0.22-2.44-0.66-3.06c-0.44-0.62-1.14-0.93-2.1-0.93c-1.03,0-1.84,0.4-2.43,1.19
		s-0.88,1.87-0.88,3.23v7.41h-3.14v-10.79c0-1.08-0.04-2.16-0.12-3.23h2.99c0.1,1.37,0.15,2.27,0.15,2.71h0.05
		c0.54-1.05,1.16-1.81,1.87-2.28c0.71-0.47,1.63-0.71,2.75-0.71c1.56,0,2.73,0.46,3.51,1.38c0.78,0.92,1.17,2.34,1.17,4.27v8.65
		H113.08z"/>
</g>
<g>
	<path d="M5.77,288.3c0.06,1.84,0.47,3.25,1.22,4.25s1.79,1.49,3.1,1.49c0.89,0,1.68-0.22,2.38-0.67s1.33-1.2,1.89-2.25l3.18,1.53
		c-0.69,1.11-1.38,1.96-2.07,2.53s-1.5,1-2.42,1.29s-2.01,0.43-3.28,0.43c-2.64,0-4.67-0.83-6.1-2.49s-2.14-3.99-2.14-6.99
		c0-3.02,0.75-5.32,2.25-6.9s3.54-2.36,6.13-2.36c2.57,0,4.53,0.84,5.89,2.52s2.04,4.06,2.04,7.13v0.49H5.77z M9.77,280.96
		c-1.18,0-2.13,0.42-2.83,1.27s-1.08,2.01-1.14,3.5h7.84c-0.12-1.59-0.48-2.79-1.09-3.58S11.02,280.96,9.77,280.96z"/>
	<path d="M28.09,285.12l4.13-6.59h4.41l-6.26,8.7l6.64,9.32h-4.41l-4.52-6.87l-4.55,6.87h-4.29l6.56-9.26l-6.24-8.75h4.36
		L28.09,285.12z"/>
	<path d="M53.53,296.55h-3.9l-0.14-2.85c-0.6,1.17-1.32,2-2.16,2.48s-1.88,0.72-3.11,0.72c-1.85,0-3.27-0.48-4.25-1.44
		s-1.47-2.3-1.47-4.01c0-1.88,0.67-3.31,2-4.31s3.3-1.54,5.91-1.62l3.08-0.11v-0.56c0-1.39-0.23-2.41-0.68-3.03
		s-1.22-0.94-2.29-0.94c-0.95,0-1.65,0.18-2.1,0.54s-0.76,0.91-0.92,1.66l-3.9-0.62c0.35-1.54,1.09-2.64,2.21-3.3s2.71-1,4.77-1
		c2.4,0,4.16,0.57,5.28,1.71s1.68,2.9,1.68,5.29V296.55z M45.44,294.05c1.25,0,2.24-0.44,2.97-1.31s1.09-2,1.09-3.37v-1.63
		l-1.92,0.07c-1.72,0.08-2.96,0.39-3.72,0.91s-1.13,1.35-1.13,2.48C42.73,293.1,43.63,294.05,45.44,294.05z"/>
	<path d="M69.98,296.55v-10.07c0-1.86-0.26-3.18-0.78-3.96s-1.35-1.17-2.49-1.17c-1.24,0-2.23,0.5-2.95,1.51s-1.09,2.4-1.09,4.17
		v9.53h-4.04v-13.87c0-1.39-0.05-2.78-0.16-4.15h3.85c0.13,1.76,0.19,2.92,0.19,3.48h0.07c0.68-1.38,1.46-2.37,2.36-2.96
		s2.02-0.89,3.39-0.89c2.82,0,4.61,1.28,5.34,3.85h0.12c0.63-1.32,1.4-2.3,2.31-2.92s2.08-0.93,3.52-0.93
		c1.93,0,3.38,0.59,4.34,1.76s1.44,3.01,1.44,5.5v11.13h-4.06v-10.07c0-1.83-0.27-3.14-0.8-3.94s-1.38-1.2-2.54-1.2
		c-1.23,0-2.2,0.5-2.91,1.49s-1.06,2.35-1.06,4.09v9.63H69.98z"/>
	<path d="M107.98,287.44c0,2.95-0.69,5.27-2.07,6.94s-3.29,2.51-5.74,2.51c-1.41,0-2.56-0.27-3.46-0.81s-1.62-1.32-2.16-2.36h-0.09
		c0.02,0.47,0.04,0.93,0.06,1.39s0.03,0.92,0.03,1.39v6.96h-4.06v-20.94c0-1.22-0.05-2.55-0.14-4.01h3.9
		c0.15,1.22,0.23,2.24,0.23,3.06h0.07c1.13-2.29,3.1-3.43,5.92-3.43c2.43,0,4.28,0.8,5.57,2.4S107.98,284.45,107.98,287.44z
		 M103.76,287.48c0-4.22-1.48-6.33-4.45-6.33c-1.58,0-2.78,0.54-3.6,1.63s-1.23,2.67-1.23,4.75s0.4,3.66,1.2,4.75
		s1.99,1.63,3.57,1.63C102.26,293.91,103.76,291.77,103.76,287.48z"/>
	<path d="M112.2,296.55v-25.56h4.04v25.56H112.2z"/>
	<path d="M124.7,288.3c0.06,1.84,0.47,3.25,1.22,4.25s1.79,1.49,3.1,1.49c0.89,0,1.68-0.22,2.38-0.67s1.33-1.2,1.89-2.25l3.18,1.53
		c-0.69,1.11-1.38,1.96-2.07,2.53s-1.5,1-2.42,1.29s-2.01,0.43-3.28,0.43c-2.64,0-4.67-0.83-6.1-2.49s-2.14-3.99-2.14-6.99
		c0-3.02,0.75-5.32,2.25-6.9s3.54-2.36,6.13-2.36c2.57,0,4.53,0.84,5.89,2.52s2.04,4.06,2.04,7.13v0.49H124.7z M128.71,280.96
		c-1.18,0-2.13,0.42-2.83,1.27s-1.08,2.01-1.14,3.5h7.84c-0.12-1.59-0.48-2.79-1.09-3.58S129.95,280.96,128.71,280.96z"/>
	<path d="M149.59,296.55v-2.83c0.59-1.36,1.42-2.7,2.5-4.01s2.52-2.72,4.32-4.22c2.17-1.8,3.6-3.2,4.3-4.18s1.05-1.94,1.05-2.87
		c0-1.2-0.33-2.12-1-2.77s-1.61-0.98-2.83-0.98c-2.34,0-3.68,1.26-4.01,3.78l-4.08-0.28c0.25-2.13,1.06-3.8,2.45-4.99
		s3.24-1.79,5.55-1.79c2.53,0,4.5,0.6,5.92,1.8s2.12,2.9,2.12,5.09c0,1.03-0.2,2-0.61,2.89s-0.99,1.78-1.75,2.65s-2,2-3.73,3.38
		c-3,2.38-4.87,4.35-5.61,5.92h12.08v3.39H149.59z"/>
</g>
<rect x="138.17" y="395.64" class="st3" width="49.88" height="49"/>
<rect x="188.04" y="395.64" class="st3" width="49.88" height="49"/>
<rect x="237.92" y="395.64" class="st3" width="49.88" height="49"/>
<rect x="287.79" y="395.64" class="st3" width="49.88" height="49"/>
<rect x="337.67" y="395.64" class="st4" width="49.88" height="49"/>
<text transform="matrix(1 0 0 1 153.4731 431.8511)" class="st1 st2">D</text>
<text transform="matrix(1 0 0 1 253.4731 431.8511)" class="st1 st2">D</text>
<text transform="matrix(1 0 0 1 204 431.8081)" class="st1 st2">B</text>
<text transform="matrix(1 0 0 1 353.4731 431.8511)" class="st1 st2">A</text>
<text transform="matrix(1 0 0 1 303 431.8081)" class="st1 st2">D</text>
<g>
	<path d="M421.47,432.14h-4.12v-15.51c-1.5,1.41-3.28,2.45-5.32,3.12v-3.74c1.07-0.35,2.24-1.02,3.5-2
		c1.26-0.98,2.12-2.13,2.59-3.44h3.34V432.14z"/>
</g>
<g>
	<g>
		<polyline class="st5" points="353.67,447 353.67,453 347.67,453 		"/>
		<line class="st8" x1="336.19" y1="453" x2="135.4" y2="453"/>
		<polyline class="st5" points="129.67,453 123.67,453 123.67,447 		"/>
		<line class="st9" x1="123.67" y1="436.26" x2="123.67" y2="398.66"/>
		<polyline class="st5" points="123.67,393.28 123.67,387.28 129.67,387.28 		"/>
		<line class="st8" x1="141.14" y1="387.28" x2="341.93" y2="387.28"/>
		<polyline class="st5" points="347.67,387.28 353.67,387.28 353.67,393.28 		"/>
		<line class="st9" x1="353.67" y1="404.03" x2="353.67" y2="441.63"/>
	</g>
</g>
<rect x="289.17" y="470.64" class="st3" width="49.88" height="49"/>
<rect x="339.04" y="470.64" class="st3" width="49.88" height="49"/>
<rect x="388.92" y="470.64" class="st3" width="49.88" height="49"/>
<rect x="438.79" y="470.64" class="st3" width="49.88" height="49"/>
<rect x="488.67" y="470.64" class="st3" width="49.88" height="49"/>
<text transform="matrix(1 0 0 1 304.4731 506.8511)" class="st1 st2">D</text>
<text transform="matrix(1 0 0 1 404.4731 506.8511)" class="st1 st2">D</text>
<text transform="matrix(1 0 0 1 355 506.8081)" class="st1 st2">B</text>
<text transform="matrix(1 0 0 1 504.4731 506.8511)" class="st1 st2">A</text>
<text transform="matrix(1 0 0 1 454 506.8081)" class="st1 st2">D</text>
<g>
	<path d="M575.84,503.32v3.82h-14.43c0.16-1.45,0.63-2.81,1.41-4.11c0.78-1.29,2.32-3.01,4.63-5.15c1.86-1.73,2.99-2.9,3.41-3.52
		c0.57-0.85,0.85-1.69,0.85-2.52c0-0.92-0.25-1.62-0.74-2.12c-0.49-0.49-1.17-0.74-2.04-0.74c-0.86,0-1.54,0.26-2.05,0.78
		s-0.8,1.38-0.88,2.58l-4.1-0.41c0.24-2.27,1.01-3.89,2.3-4.88s2.9-1.48,4.83-1.48c2.12,0,3.78,0.57,5,1.71s1.82,2.56,1.82,4.26
		c0,0.97-0.17,1.89-0.52,2.76c-0.35,0.87-0.9,1.79-1.65,2.75c-0.5,0.63-1.4,1.55-2.7,2.74s-2.12,1.98-2.47,2.37
		s-0.63,0.77-0.84,1.14H575.84z"/>
</g>
<g>
	<ellipse class="st10" cx="188.17" cy="154.64" rx="60" ry="27.5"/>
</g>
<g>
	<ellipse class="st10" cx="339.67" cy="154.64" rx="60" ry="27.5"/>
</g>
<g>
	<circle class="st11" cx="163.17" cy="420.64" r="27.5"/>
</g>
<g>
	<circle class="st11" cx="313.17" cy="420.64" r="27.5"/>
</g>
<g>
	<path d="M40.43,588.64v2.68h-5.76v16.58h-3.31v-16.58h-5.67v-2.68H40.43z"/>
	<path d="M45.27,601.49c0.05,1.43,0.36,2.53,0.95,3.3c0.59,0.77,1.39,1.15,2.41,1.15c0.69,0,1.31-0.17,1.85-0.52
		c0.54-0.35,1.03-0.93,1.47-1.75l2.47,1.19c-0.54,0.87-1.08,1.52-1.61,1.97c-0.54,0.45-1.16,0.78-1.88,1.01
		c-0.72,0.22-1.57,0.33-2.55,0.33c-2.05,0-3.63-0.64-4.74-1.93c-1.11-1.29-1.67-3.1-1.67-5.44c0-2.35,0.58-4.14,1.75-5.37
		c1.17-1.23,2.76-1.84,4.77-1.84c2,0,3.52,0.65,4.58,1.96c1.06,1.31,1.59,3.16,1.59,5.54v0.38H45.27z M48.38,595.77
		c-0.92,0-1.65,0.33-2.2,0.98s-0.84,1.56-0.89,2.72h6.1c-0.09-1.24-0.37-2.17-0.85-2.78C50.07,596.08,49.35,595.77,48.38,595.77z"/>
	<path d="M62.63,599.01l3.21-5.13h3.43l-4.87,6.77l5.17,7.25h-3.43l-3.51-5.35l-3.54,5.35h-3.34l5.1-7.21L56,593.89h3.39
		L62.63,599.01z"/>
	<path d="M75.91,608.15c-1.09,0-1.96-0.31-2.59-0.94c-0.63-0.63-0.95-1.52-0.95-2.69v-8.35H70.3v-2.28h2.11l1-3.39h2.09v3.39h3.38
		v2.28H75.5v7.56c0,1.39,0.59,2.08,1.76,2.08c0.56,0,1.15-0.06,1.79-0.18v2.11C78.01,608.01,76.96,608.15,75.91,608.15z"/>
</g>
<g>
	<path d="M40.8,670.54c0,1.2-0.27,2.26-0.81,3.17c-0.54,0.91-1.33,1.62-2.37,2.13c-1.03,0.51-2.26,0.77-3.67,0.77h-2.9v7.29h-3.31
		v-19.26h6.07c2.24,0,3.97,0.51,5.17,1.54C40.19,667.2,40.8,668.66,40.8,670.54z M37.46,670.57c0-1.11-0.33-1.98-1-2.6
		c-0.67-0.62-1.68-0.93-3.03-0.93h-2.38v7.19h2.49c1.24,0,2.2-0.32,2.89-0.95C37.12,672.65,37.46,671.75,37.46,670.57z"/>
	<path d="M54.43,683.9h-3.04l-0.11-2.21c-0.46,0.91-1.03,1.55-1.68,1.93c-0.66,0.37-1.46,0.56-2.42,0.56c-1.44,0-2.54-0.37-3.3-1.12
		c-0.76-0.75-1.14-1.79-1.14-3.12c0-1.46,0.52-2.57,1.56-3.35c1.04-0.77,2.57-1.19,4.59-1.26l2.39-0.08v-0.44
		c0-1.08-0.18-1.87-0.53-2.36c-0.35-0.49-0.95-0.73-1.78-0.73c-0.74,0-1.28,0.14-1.63,0.42c-0.35,0.28-0.59,0.71-0.72,1.29
		l-3.04-0.48c0.27-1.19,0.85-2.05,1.72-2.57c0.87-0.52,2.11-0.78,3.71-0.78c1.87,0,3.24,0.44,4.11,1.33
		c0.87,0.88,1.31,2.26,1.31,4.12V683.9z M48.14,681.96c0.98,0,1.75-0.34,2.31-1.02c0.56-0.68,0.85-1.55,0.85-2.62v-1.27l-1.49,0.05
		c-1.34,0.06-2.3,0.3-2.89,0.71s-0.88,1.05-0.88,1.93C46.03,681.22,46.73,681.96,48.14,681.96z"/>
	<path d="M62.53,684.15c-1.09,0-1.96-0.31-2.59-0.94c-0.63-0.63-0.95-1.52-0.95-2.69v-8.35h-2.06v-2.28h2.11l1-3.39h2.09v3.39h3.38
		v2.28h-3.38v7.56c0,1.39,0.59,2.08,1.76,2.08c0.56,0,1.15-0.06,1.79-0.18v2.11C64.64,684.01,63.59,684.15,62.53,684.15z"/>
	<path d="M72.65,684.15c-1.09,0-1.96-0.31-2.59-0.94c-0.63-0.63-0.95-1.52-0.95-2.69v-8.35h-2.06v-2.28h2.11l1-3.39h2.09v3.39h3.38
		v2.28h-3.38v7.56c0,1.39,0.59,2.08,1.76,2.08c0.56,0,1.15-0.06,1.79-0.18v2.11C74.76,684.01,73.71,684.15,72.65,684.15z"/>
	<path d="M81.03,677.49c0.05,1.43,0.36,2.53,0.95,3.3c0.59,0.77,1.39,1.15,2.41,1.15c0.69,0,1.31-0.17,1.85-0.52
		c0.54-0.35,1.03-0.93,1.47-1.75l2.47,1.19c-0.54,0.87-1.08,1.52-1.61,1.97c-0.54,0.45-1.16,0.78-1.88,1.01
		c-0.72,0.22-1.57,0.33-2.55,0.33c-2.05,0-3.63-0.64-4.74-1.93c-1.11-1.29-1.67-3.1-1.67-5.44c0-2.35,0.58-4.14,1.75-5.37
		c1.17-1.23,2.76-1.84,4.77-1.84c2,0,3.52,0.65,4.58,1.96c1.06,1.31,1.59,3.16,1.59,5.54v0.38H81.03z M84.15,671.77
		c-0.92,0-1.65,0.33-2.2,0.98s-0.84,1.56-0.89,2.72h6.1c-0.09-1.24-0.37-2.17-0.85-2.78C85.84,672.08,85.12,671.77,84.15,671.77z"/>
	<path d="M99.98,672.21c-1.02,0-1.84,0.45-2.45,1.35c-0.61,0.9-0.92,2.11-0.92,3.63v6.71h-3.14v-10.55c0-1.48-0.03-2.63-0.1-3.46
		h2.99c0.09,1.09,0.14,2.15,0.14,3.17h0.05c0.44-1.29,0.94-2.19,1.52-2.7s1.33-0.76,2.27-0.76c0.43,0,0.78,0.06,1.07,0.18v2.58
		C100.95,672.26,100.47,672.21,99.98,672.21z"/>
	<path d="M113.08,683.9v-7.83c0-1.42-0.22-2.44-0.66-3.06c-0.44-0.62-1.14-0.93-2.1-0.93c-1.03,0-1.84,0.4-2.43,1.19
		s-0.88,1.87-0.88,3.23v7.41h-3.14v-10.79c0-1.08-0.04-2.16-0.12-3.23h2.99c0.1,1.37,0.15,2.27,0.15,2.71h0.05
		c0.54-1.05,1.16-1.81,1.87-2.28c0.71-0.47,1.63-0.71,2.75-0.71c1.56,0,2.73,0.46,3.51,1.38c0.78,0.92,1.17,2.34,1.17,4.27v8.65
		H113.08z"/>
</g>
<g>
	<path d="M5.77,543.3c0.06,1.84,0.47,3.25,1.22,4.25s1.79,1.49,3.1,1.49c0.89,0,1.68-0.22,2.38-0.67s1.33-1.2,1.89-2.25l3.18,1.53
		c-0.69,1.11-1.38,1.96-2.07,2.53s-1.5,1-2.42,1.29s-2.01,0.43-3.28,0.43c-2.64,0-4.67-0.83-6.1-2.49s-2.14-3.99-2.14-6.99
		c0-3.02,0.75-5.32,2.25-6.9s3.54-2.36,6.13-2.36c2.57,0,4.53,0.84,5.89,2.52s2.04,4.06,2.04,7.13v0.49H5.77z M9.77,535.96
		c-1.18,0-2.13,0.42-2.83,1.27s-1.08,2.01-1.14,3.5h7.84c-0.12-1.59-0.48-2.79-1.09-3.58S11.02,535.96,9.77,535.96z"/>
	<path d="M28.09,540.12l4.13-6.59h4.41l-6.26,8.7l6.64,9.32h-4.41l-4.52-6.87l-4.55,6.87h-4.29l6.56-9.26l-6.24-8.75h4.36
		L28.09,540.12z"/>
	<path d="M53.53,551.55h-3.9l-0.14-2.85c-0.6,1.17-1.32,2-2.16,2.48s-1.88,0.72-3.11,0.72c-1.85,0-3.27-0.48-4.25-1.44
		s-1.47-2.3-1.47-4.01c0-1.88,0.67-3.31,2-4.31s3.3-1.54,5.91-1.62l3.08-0.11v-0.56c0-1.39-0.23-2.41-0.68-3.03
		s-1.22-0.94-2.29-0.94c-0.95,0-1.65,0.18-2.1,0.54s-0.76,0.91-0.92,1.66l-3.9-0.62c0.35-1.54,1.09-2.64,2.21-3.3s2.71-1,4.77-1
		c2.4,0,4.16,0.57,5.28,1.71s1.68,2.9,1.68,5.29V551.55z M45.44,549.05c1.25,0,2.24-0.44,2.97-1.31s1.09-2,1.09-3.37v-1.63
		l-1.92,0.07c-1.72,0.08-2.96,0.39-3.72,0.91s-1.13,1.35-1.13,2.48C42.73,548.1,43.63,549.05,45.44,549.05z"/>
	<path d="M69.98,551.55v-10.07c0-1.86-0.26-3.18-0.78-3.96s-1.35-1.17-2.49-1.17c-1.24,0-2.23,0.5-2.95,1.51s-1.09,2.4-1.09,4.17
		v9.53h-4.04v-13.87c0-1.39-0.05-2.78-0.16-4.15h3.85c0.13,1.76,0.19,2.92,0.19,3.48h0.07c0.68-1.38,1.46-2.37,2.36-2.96
		s2.02-0.89,3.39-0.89c2.82,0,4.61,1.28,5.34,3.85h0.12c0.63-1.32,1.4-2.3,2.31-2.92s2.08-0.93,3.52-0.93
		c1.93,0,3.38,0.59,4.34,1.76s1.44,3.01,1.44,5.5v11.13h-4.06v-10.07c0-1.83-0.27-3.14-0.8-3.94s-1.38-1.2-2.54-1.2
		c-1.23,0-2.2,0.5-2.91,1.49s-1.06,2.35-1.06,4.09v9.63H69.98z"/>
	<path d="M107.98,542.44c0,2.95-0.69,5.27-2.07,6.94s-3.29,2.51-5.74,2.51c-1.41,0-2.56-0.27-3.46-0.81s-1.62-1.32-2.16-2.36h-0.09
		c0.02,0.47,0.04,0.93,0.06,1.39s0.03,0.92,0.03,1.39v6.96h-4.06v-20.94c0-1.22-0.05-2.55-0.14-4.01h3.9
		c0.15,1.22,0.23,2.24,0.23,3.06h0.07c1.13-2.29,3.1-3.43,5.92-3.43c2.43,0,4.28,0.8,5.57,2.4S107.98,539.45,107.98,542.44z
		 M103.76,542.48c0-4.22-1.48-6.33-4.45-6.33c-1.58,0-2.78,0.54-3.6,1.63s-1.23,2.67-1.23,4.75s0.4,3.66,1.2,4.75
		s1.99,1.63,3.57,1.63C102.26,548.91,103.76,546.77,103.76,542.48z"/>
	<path d="M112.2,551.55v-25.56h4.04v25.56H112.2z"/>
	<path d="M124.7,543.3c0.06,1.84,0.47,3.25,1.22,4.25s1.79,1.49,3.1,1.49c0.89,0,1.68-0.22,2.38-0.67s1.33-1.2,1.89-2.25l3.18,1.53
		c-0.69,1.11-1.38,1.96-2.07,2.53s-1.5,1-2.42,1.29s-2.01,0.43-3.28,0.43c-2.64,0-4.67-0.83-6.1-2.49s-2.14-3.99-2.14-6.99
		c0-3.02,0.75-5.32,2.25-6.9s3.54-2.36,6.13-2.36c2.57,0,4.53,0.84,5.89,2.52s2.04,4.06,2.04,7.13v0.49H124.7z M128.71,535.96
		c-1.18,0-2.13,0.42-2.83,1.27s-1.08,2.01-1.14,3.5h7.84c-0.12-1.59-0.48-2.79-1.09-3.58S129.95,535.96,128.71,535.96z"/>
	<path d="M166.27,544.69c0,2.34-0.73,4.13-2.19,5.37s-3.55,1.85-6.28,1.85c-2.54,0-4.55-0.58-6.01-1.73s-2.34-2.88-2.62-5.18
		l4.1-0.37c0.19,1.36,0.66,2.36,1.41,3.01s1.79,0.98,3.13,0.98c1.39,0,2.46-0.36,3.2-1.07s1.11-1.73,1.11-3.06
		c0-1.22-0.46-2.17-1.37-2.84s-2.26-1.01-4.03-1.01h-1.81v-3.36h1.72c1.58,0,2.79-0.33,3.64-0.99s1.27-1.61,1.27-2.84
		c0-1.27-0.33-2.21-0.98-2.84s-1.58-0.94-2.8-0.94c-2.41,0-3.76,1.22-4.04,3.67l-4.01-0.3c0.25-2.11,1.08-3.74,2.51-4.9
		s3.29-1.74,5.59-1.74c2.51,0,4.44,0.57,5.78,1.71s2.02,2.76,2.02,4.86c0,1.49-0.42,2.75-1.26,3.77s-2.12,1.72-3.86,2.08v0.07
		c1.8,0.2,3.22,0.81,4.25,1.85S166.27,543.1,166.27,544.69z"/>
</g>
<rect x="138.17" y="650.64" class="st3" width="49.88" height="49"/>
<rect x="188.04" y="650.64" class="st3" width="49.88" height="49"/>
<rect x="237.92" y="650.64" class="st3" width="49.88" height="49"/>
<rect x="287.79" y="650.64" class="st3" width="49.88" height="49"/>
<rect x="337.67" y="650.64" class="st4" width="49.88" height="49"/>
<text transform="matrix(1 0 0 1 153.4731 686.8511)" class="st1 st2">A</text>
<text transform="matrix(1 0 0 1 253.4731 686.8511)" class="st1 st2">C</text>
<text transform="matrix(1 0 0 1 204 686.8081)" class="st1 st2">B</text>
<text transform="matrix(1 0 0 1 353.4731 686.8511)" class="st1 st2">E</text>
<text transform="matrix(1 0 0 1 303 686.8081)" class="st1 st2">D</text>
<g>
	<path d="M421.47,687.14h-4.12v-15.51c-1.5,1.41-3.28,2.45-5.32,3.12v-3.74c1.07-0.35,2.24-1.02,3.5-2
		c1.26-0.98,2.12-2.13,2.59-3.44h3.34V687.14z"/>
</g>
<g>
	<g>
		<polyline class="st5" points="353.67,702 353.67,708 347.67,708 		"/>
		<line class="st8" x1="336.19" y1="708" x2="135.4" y2="708"/>
		<polyline class="st5" points="129.67,708 123.67,708 123.67,702 		"/>
		<line class="st9" x1="123.67" y1="691.26" x2="123.67" y2="653.66"/>
		<polyline class="st5" points="123.67,648.28 123.67,642.28 129.67,642.28 		"/>
		<line class="st8" x1="141.14" y1="642.28" x2="341.93" y2="642.28"/>
		<polyline class="st5" points="347.67,642.28 353.67,642.28 353.67,648.28 		"/>
		<line class="st9" x1="353.67" y1="659.03" x2="353.67" y2="696.63"/>
	</g>
</g>
<rect x="338.17" y="725.64" class="st3" width="49.88" height="49"/>
<rect x="388.04" y="725.64" class="st3" width="49.88" height="49"/>
<rect x="437.92" y="725.64" class="st3" width="49.88" height="49"/>
<rect x="487.79" y="725.64" class="st3" width="49.88" height="49"/>
<rect x="537.67" y="725.64" class="st3" width="49.88" height="49"/>
<text transform="matrix(1 0 0 1 353.4731 761.8511)" class="st1 st2">A</text>
<text transform="matrix(1 0 0 1 453.4731 761.8511)" class="st1 st2">C</text>
<text transform="matrix(1 0 0 1 404 761.8081)" class="st1 st2">B</text>
<text transform="matrix(1 0 0 1 553.4731 761.8511)" class="st1 st2">E</text>
<text transform="matrix(1 0 0 1 503 761.8081)" class="st1 st2">D</text>
<g>
	<path d="M620.84,758.32v3.82h-14.43c0.16-1.45,0.63-2.81,1.41-4.11c0.78-1.29,2.32-3.01,4.63-5.15c1.86-1.73,2.99-2.9,3.41-3.52
		c0.57-0.85,0.85-1.69,0.85-2.52c0-0.92-0.25-1.62-0.74-2.12c-0.49-0.49-1.17-0.74-2.04-0.74c-0.86,0-1.54,0.26-2.05,0.78
		s-0.8,1.38-0.88,2.58l-4.1-0.41c0.24-2.27,1.01-3.89,2.3-4.88s2.9-1.48,4.83-1.48c2.12,0,3.78,0.57,5,1.71s1.82,2.56,1.82,4.26
		c0,0.97-0.17,1.89-0.52,2.76c-0.35,0.87-0.9,1.79-1.65,2.75c-0.5,0.63-1.4,1.55-2.7,2.74s-2.12,1.98-2.47,2.37
		s-0.63,0.77-0.84,1.14H620.84z"/>
</g>
<rect x="138.17" y="54.64" class="st0" width="49.88" height="49"/>
<rect x="188.04" y="54.64" class="st0" width="49.88" height="49"/>
<rect x="237.92" y="54.64" class="st0" width="49.88" height="49"/>
<rect x="287.79" y="54.64" class="st0" width="49.88" height="49"/>
<rect x="337.67" y="54.64" class="st0" width="49.88" height="49"/>
<rect x="387.54" y="54.64" class="st0" width="49.88" height="49"/>
<rect x="437.42" y="54.64" class="st0" width="49.88" height="49"/>
<rect x="487.29" y="54.64" class="st0" width="49.88" height="49"/>
<text transform="matrix(1 0 0 1 153.4731 90.8511)" class="st1 st2">A</text>
<text transform="matrix(1 0 0 1 253.4731 90.8511)" class="st1 st2">C</text>
<text transform="matrix(1 0 0 1 204 90.8081)" class="st1 st2">B</text>
<text transform="matrix(1 0 0 1 353.4731 90.8511)" class="st1 st2">B</text>
<text transform="matrix(1 0 0 1 303 90.8081)" class="st1 st2">A</text>
<text transform="matrix(1 0 0 1 402 90.4751)" class="st1 st2">C</text>
<rect x="537.29" y="54.64" class="st0" width="49.88" height="49"/>
<text transform="matrix(1 0 0 1 454 90.8081)" class="st1 st2">A</text>
<text transform="matrix(1 0 0 1 502.4731 90.8511)" class="st1 st2">B</text>
<text transform="matrix(1 0 0 1 552 90.8081)" class="st1 st2">D</text>
</svg>
