<?xml version="1.0" encoding="utf-8"?>
<!-- Generator: Adobe Illustrator 22.1.0, SVG Export Plug-In . SVG Version: 6.00 Build 0)  -->
<svg version="1.1" id="图层_1" xmlns="http://www.w3.org/2000/svg" xmlns:xlink="http://www.w3.org/1999/xlink" x="0px" y="0px"
	 viewBox="0 0 622.35 254.14" style="enable-background:new 0 0 622.35 254.14;" xml:space="preserve">
<style type="text/css">
	.st0{fill:#FFF38B;stroke:#000000;stroke-miterlimit:10;}
	.st1{fill:#FF5050;stroke:#000000;stroke-miterlimit:10;}
	.st2{fill:#FFFFFF;stroke:#000000;stroke-miterlimit:10;}
	.st3{font-family:'ArialMT';}
	.st4{font-size:30px;}
	.st5{fill:#DBDADA;stroke:#000000;stroke-miterlimit:10;}
</style>
<g>
	<path d="M40.43,67.64v2.68h-5.76V86.9h-3.31V70.32h-5.67v-2.68H40.43z"/>
	<path d="M45.27,80.49c0.05,1.43,0.36,2.53,0.95,3.3c0.59,0.77,1.39,1.16,2.41,1.16c0.69,0,1.31-0.17,1.85-0.52
		c0.54-0.35,1.03-0.93,1.47-1.75l2.47,1.19c-0.54,0.87-1.08,1.52-1.61,1.97c-0.54,0.45-1.16,0.78-1.88,1
		c-0.72,0.22-1.57,0.33-2.55,0.33c-2.05,0-3.63-0.65-4.74-1.93c-1.11-1.29-1.67-3.1-1.67-5.43c0-2.35,0.58-4.14,1.75-5.37
		c1.17-1.23,2.76-1.84,4.77-1.84c2,0,3.52,0.65,4.58,1.96c1.06,1.31,1.59,3.16,1.59,5.54v0.38H45.27z M48.38,74.77
		c-0.92,0-1.65,0.33-2.2,0.98s-0.84,1.56-0.89,2.72h6.1c-0.09-1.24-0.37-2.17-0.85-2.78C50.07,75.08,49.35,74.77,48.38,74.77z"/>
	<path d="M62.63,78.02l3.21-5.13h3.43l-4.87,6.77l5.17,7.25h-3.43l-3.51-5.35l-3.54,5.35h-3.34l5.1-7.21L56,72.89h3.39L62.63,78.02z
		"/>
	<path d="M75.91,87.15c-1.09,0-1.96-0.31-2.59-0.94c-0.63-0.62-0.95-1.52-0.95-2.69v-8.35H70.3v-2.28h2.11l1-3.39h2.09v3.39h3.38
		v2.28H75.5v7.56c0,1.39,0.59,2.08,1.76,2.08c0.56,0,1.15-0.06,1.79-0.18v2.11C78.01,87.01,76.96,87.15,75.91,87.15z"/>
</g>
<g>
	<path d="M40.8,149.54c0,1.2-0.27,2.26-0.81,3.17c-0.54,0.91-1.33,1.62-2.37,2.13c-1.03,0.51-2.26,0.77-3.67,0.77h-2.9v7.29h-3.31
		v-19.26h6.07c2.24,0,3.97,0.51,5.17,1.54C40.19,146.2,40.8,147.66,40.8,149.54z M37.46,149.57c0-1.11-0.33-1.98-1-2.6
		c-0.67-0.62-1.68-0.93-3.03-0.93h-2.38v7.19h2.49c1.24,0,2.2-0.32,2.89-0.95C37.12,151.65,37.46,150.75,37.46,149.57z"/>
	<path d="M54.43,162.9h-3.04l-0.11-2.21c-0.46,0.91-1.03,1.55-1.68,1.93c-0.66,0.37-1.46,0.56-2.42,0.56c-1.44,0-2.54-0.37-3.3-1.12
		c-0.76-0.75-1.14-1.79-1.14-3.12c0-1.46,0.52-2.57,1.56-3.35c1.04-0.77,2.57-1.19,4.59-1.26l2.39-0.08v-0.44
		c0-1.08-0.18-1.87-0.53-2.36c-0.35-0.49-0.95-0.73-1.78-0.73c-0.74,0-1.28,0.14-1.63,0.42c-0.35,0.28-0.59,0.71-0.72,1.29
		l-3.04-0.48c0.27-1.19,0.85-2.05,1.72-2.57c0.87-0.52,2.11-0.78,3.71-0.78c1.87,0,3.24,0.44,4.11,1.33
		c0.87,0.88,1.31,2.26,1.31,4.12V162.9z M48.14,160.96c0.98,0,1.75-0.34,2.31-1.02c0.56-0.68,0.85-1.55,0.85-2.62v-1.27l-1.49,0.05
		c-1.34,0.06-2.3,0.3-2.89,0.71s-0.88,1.05-0.88,1.93C46.03,160.22,46.73,160.96,48.14,160.96z"/>
	<path d="M62.53,163.15c-1.09,0-1.96-0.31-2.59-0.94c-0.63-0.62-0.95-1.52-0.95-2.69v-8.35h-2.06v-2.28h2.11l1-3.39h2.09v3.39h3.38
		v2.28h-3.38v7.56c0,1.39,0.59,2.08,1.76,2.08c0.56,0,1.15-0.06,1.79-0.18v2.11C64.64,163.01,63.59,163.15,62.53,163.15z"/>
	<path d="M72.65,163.15c-1.09,0-1.96-0.31-2.59-0.94c-0.63-0.62-0.95-1.52-0.95-2.69v-8.35h-2.06v-2.28h2.11l1-3.39h2.09v3.39h3.38
		v2.28h-3.38v7.56c0,1.39,0.59,2.08,1.76,2.08c0.56,0,1.15-0.06,1.79-0.18v2.11C74.76,163.01,73.71,163.15,72.65,163.15z"/>
	<path d="M81.03,156.49c0.05,1.43,0.36,2.53,0.95,3.3c0.59,0.77,1.39,1.16,2.41,1.16c0.69,0,1.31-0.17,1.85-0.52
		c0.54-0.35,1.03-0.93,1.47-1.75l2.47,1.19c-0.54,0.87-1.08,1.52-1.61,1.97c-0.54,0.45-1.16,0.78-1.88,1
		c-0.72,0.22-1.57,0.33-2.55,0.33c-2.05,0-3.63-0.65-4.74-1.93c-1.11-1.29-1.67-3.1-1.67-5.43c0-2.35,0.58-4.14,1.75-5.37
		c1.17-1.23,2.76-1.84,4.77-1.84c2,0,3.52,0.65,4.58,1.96c1.06,1.31,1.59,3.16,1.59,5.54v0.38H81.03z M84.15,150.77
		c-0.92,0-1.65,0.33-2.2,0.98s-0.84,1.56-0.89,2.72h6.1c-0.09-1.24-0.37-2.17-0.85-2.78C85.84,151.08,85.12,150.77,84.15,150.77z"/>
	<path d="M99.98,151.21c-1.02,0-1.84,0.45-2.45,1.35c-0.61,0.9-0.92,2.11-0.92,3.63v6.71h-3.14v-10.55c0-1.48-0.03-2.63-0.1-3.46
		h2.99c0.09,1.09,0.14,2.15,0.14,3.17h0.05c0.44-1.29,0.94-2.19,1.52-2.7s1.33-0.76,2.27-0.76c0.43,0,0.78,0.06,1.07,0.18v2.58
		C100.95,151.26,100.47,151.21,99.98,151.21z"/>
	<path d="M113.08,162.9v-7.83c0-1.42-0.22-2.44-0.66-3.06c-0.44-0.62-1.14-0.93-2.1-0.93c-1.03,0-1.84,0.4-2.43,1.19
		s-0.88,1.87-0.88,3.23v7.41h-3.14v-10.79c0-1.08-0.04-2.16-0.12-3.23h2.99c0.1,1.37,0.15,2.27,0.15,2.71h0.05
		c0.54-1.05,1.16-1.81,1.87-2.28c0.71-0.47,1.63-0.71,2.75-0.71c1.56,0,2.73,0.46,3.51,1.38c0.78,0.92,1.17,2.34,1.17,4.27v8.65
		H113.08z"/>
</g>
<g>
	<path d="M16.96,30.55L9.7,19.23L7.37,21.5v9.05H3.09V5.78h4.27v11.44l8.88-11.44h5.08l-8.47,10.67l9.28,14.1H16.96z"/>
	<path d="M30.88,5.78l5.92,14.55c0.3,0.71,0.93,2.48,1.88,5.29c0.35-1.14,1.01-2.9,1.97-5.29l5.75-14.55h5.78v24.77H48.3V14.13
		c0-0.73,0.01-1.46,0.04-2.19s0.05-1.47,0.07-2.21c-0.27,0.75-0.49,1.36-0.67,1.84s-0.56,1.48-1.16,3.01l-6.28,15.96h-3.23
		l-6.5-16.15c-0.69-1.75-1.27-3.3-1.72-4.66c0.02,0.73,0.04,1.45,0.06,2.16s0.03,1.44,0.03,2.16v16.49h-3.87V5.78H30.88z"/>
	<path d="M75.15,13.37c0,1.55-0.35,2.91-1.05,4.08s-1.71,2.09-3.04,2.74s-2.9,0.98-4.72,0.98h-3.73v9.37h-4.25V5.78h7.8
		c2.88,0,5.1,0.66,6.65,1.98S75.15,10.95,75.15,13.37z M70.86,13.41c0-1.43-0.43-2.54-1.29-3.34s-2.16-1.2-3.89-1.2h-3.06v9.25h3.2
		c1.59,0,2.83-0.41,3.72-1.22S70.86,14.92,70.86,13.41z"/>
	<path d="M91.97,22.3c0.06,1.84,0.47,3.25,1.22,4.25s1.79,1.49,3.1,1.49c0.89,0,1.68-0.22,2.38-0.67s1.33-1.2,1.89-2.25l3.18,1.53
		c-0.69,1.11-1.38,1.96-2.07,2.53s-1.5,1-2.42,1.29s-2.01,0.43-3.28,0.43c-2.64,0-4.67-0.83-6.1-2.49s-2.14-3.99-2.14-6.99
		c0-3.02,0.75-5.32,2.25-6.9s3.54-2.36,6.13-2.36c2.57,0,4.53,0.84,5.89,2.52s2.04,4.06,2.04,7.13v0.49H91.97z M95.98,14.96
		c-1.18,0-2.13,0.42-2.83,1.27s-1.08,2.01-1.14,3.5h7.84c-0.12-1.59-0.48-2.79-1.09-3.58S97.22,14.96,95.98,14.96z"/>
	<path d="M114.29,19.12l4.13-6.59h4.41l-6.26,8.7l6.64,9.32h-4.41l-4.52-6.87l-4.55,6.87h-4.29l6.56-9.26l-6.24-8.75h4.36
		L114.29,19.12z"/>
	<path d="M139.73,30.55h-3.9l-0.14-2.85c-0.6,1.17-1.32,2-2.16,2.48s-1.88,0.72-3.11,0.72c-1.85,0-3.27-0.48-4.25-1.44
		s-1.47-2.3-1.47-4.01c0-1.88,0.67-3.31,2-4.31s3.3-1.54,5.91-1.62l3.08-0.11v-0.56c0-1.39-0.23-2.41-0.68-3.03
		s-1.22-0.94-2.29-0.94c-0.95,0-1.65,0.18-2.1,0.54s-0.76,0.91-0.92,1.66l-3.9-0.62c0.35-1.54,1.09-2.64,2.21-3.3s2.71-1,4.77-1
		c2.4,0,4.16,0.57,5.28,1.71s1.68,2.9,1.68,5.29V30.55z M131.64,28.05c1.25,0,2.24-0.44,2.97-1.31s1.09-2,1.09-3.37v-1.63
		l-1.92,0.07c-1.72,0.08-2.96,0.39-3.72,0.91s-1.13,1.35-1.13,2.48C128.94,27.1,129.84,28.05,131.64,28.05z"/>
	<path d="M156.18,30.55V20.48c0-1.86-0.26-3.18-0.78-3.96s-1.35-1.17-2.49-1.17c-1.24,0-2.23,0.5-2.95,1.51s-1.09,2.4-1.09,4.17
		v9.53h-4.04V16.68c0-1.39-0.05-2.78-0.16-4.15h3.85c0.13,1.76,0.19,2.92,0.19,3.48h0.07c0.68-1.38,1.46-2.37,2.36-2.96
		s2.02-0.89,3.39-0.89c2.82,0,4.61,1.28,5.34,3.85H160c0.63-1.32,1.4-2.3,2.31-2.92s2.08-0.93,3.52-0.93c1.93,0,3.38,0.59,4.34,1.76
		s1.44,3.01,1.44,5.5v11.13h-4.06V20.48c0-1.83-0.27-3.14-0.8-3.94s-1.38-1.2-2.54-1.2c-1.23,0-2.2,0.5-2.91,1.49
		s-1.06,2.35-1.06,4.09v9.63H156.18z"/>
	<path d="M194.19,21.44c0,2.95-0.69,5.27-2.07,6.94s-3.29,2.51-5.74,2.51c-1.41,0-2.56-0.27-3.46-0.81s-1.62-1.32-2.16-2.36h-0.09
		c0.02,0.47,0.04,0.93,0.06,1.39s0.03,0.92,0.03,1.39v6.96h-4.06V16.54c0-1.22-0.05-2.55-0.14-4.01h3.9
		c0.15,1.22,0.23,2.24,0.23,3.06h0.07c1.13-2.29,3.1-3.43,5.92-3.43c2.43,0,4.28,0.8,5.57,2.4S194.19,18.45,194.19,21.44z
		 M189.97,21.48c0-4.22-1.48-6.33-4.45-6.33c-1.58,0-2.78,0.54-3.6,1.63s-1.23,2.67-1.23,4.75s0.4,3.66,1.2,4.75
		s1.99,1.63,3.57,1.63C188.46,27.91,189.97,25.77,189.97,21.48z"/>
	<path d="M198.4,30.55V4.99h4.04v25.56H198.4z"/>
	<path d="M210.9,22.3c0.06,1.84,0.47,3.25,1.22,4.25s1.79,1.49,3.1,1.49c0.89,0,1.68-0.22,2.38-0.67s1.33-1.2,1.89-2.25l3.18,1.53
		c-0.69,1.11-1.38,1.96-2.07,2.53s-1.5,1-2.42,1.29s-2.01,0.43-3.28,0.43c-2.64,0-4.67-0.83-6.1-2.49s-2.14-3.99-2.14-6.99
		c0-3.02,0.75-5.32,2.25-6.9s3.54-2.36,6.13-2.36c2.57,0,4.53,0.84,5.89,2.52s2.04,4.06,2.04,7.13v0.49H210.9z M214.91,14.96
		c-1.18,0-2.13,0.42-2.83,1.27s-1.08,2.01-1.14,3.5h7.84c-0.12-1.59-0.48-2.79-1.09-3.58S216.15,14.96,214.91,14.96z"/>
</g>
<rect x="138.17" y="129.64" class="st0" width="49.88" height="49"/>
<rect x="188.04" y="129.64" class="st0" width="49.88" height="49"/>
<rect x="237.92" y="129.64" class="st0" width="49.88" height="49"/>
<rect x="287.79" y="129.64" class="st0" width="49.88" height="49"/>
<rect x="337.67" y="129.64" class="st1" width="49.88" height="49"/>
<rect x="387.54" y="129.64" class="st2" width="49.88" height="49"/>
<text transform="matrix(1 0 0 1 153.4731 165.8511)" class="st3 st4">A</text>
<text transform="matrix(1 0 0 1 253.4731 165.8511)" class="st3 st4">C</text>
<text transform="matrix(1 0 0 1 204 165.8081)" class="st3 st4">B</text>
<text transform="matrix(1 0 0 1 353.4731 165.8511)" class="st3 st4">B</text>
<text transform="matrix(1 0 0 1 303 165.8081)" class="st3 st4">A</text>
<text transform="matrix(1 0 0 1 402 165.4751)" class="st3 st4">D</text>
<g>
	<path d="M466.47,166.14h-4.12v-15.51c-1.5,1.41-3.28,2.45-5.32,3.12v-3.74c1.07-0.35,2.24-1.02,3.5-2s2.12-2.13,2.59-3.44h3.34
		V166.14z"/>
</g>
<rect x="289.17" y="204.64" class="st0" width="49.88" height="49"/>
<rect x="339.04" y="204.64" class="st1" width="49.88" height="49"/>
<rect x="388.92" y="204.64" class="st2" width="49.88" height="49"/>
<rect x="438.79" y="204.64" class="st2" width="49.88" height="49"/>
<rect x="488.67" y="204.64" class="st2" width="49.88" height="49"/>
<rect x="538.54" y="204.64" class="st2" width="49.88" height="49"/>
<text transform="matrix(1 0 0 1 304.4731 240.8511)" class="st3 st4">A</text>
<text transform="matrix(1 0 0 1 404.4731 240.8511)" class="st3 st4">C</text>
<text transform="matrix(1 0 0 1 355 240.8081)" class="st3 st4">B</text>
<text transform="matrix(1 0 0 1 504.4731 240.8511)" class="st3 st4">B</text>
<text transform="matrix(1 0 0 1 454 240.8081)" class="st3 st4">A</text>
<text transform="matrix(1 0 0 1 553 240.4751)" class="st3 st4">D</text>
<g>
	<path d="M620.84,237.32v3.82h-14.43c0.16-1.45,0.63-2.81,1.41-4.11s2.32-3.01,4.63-5.15c1.86-1.73,2.99-2.9,3.41-3.52
		c0.57-0.85,0.85-1.69,0.85-2.52c0-0.92-0.25-1.62-0.74-2.12s-1.17-0.74-2.04-0.74c-0.86,0-1.54,0.26-2.05,0.78s-0.8,1.38-0.88,2.58
		l-4.1-0.41c0.24-2.27,1.01-3.89,2.3-4.88s2.9-1.48,4.83-1.48c2.12,0,3.78,0.57,5,1.71s1.82,2.56,1.82,4.26
		c0,0.97-0.17,1.89-0.52,2.76s-0.9,1.79-1.65,2.75c-0.5,0.63-1.4,1.55-2.7,2.74s-2.12,1.98-2.47,2.37s-0.63,0.77-0.84,1.14H620.84z"
		/>
</g>
<rect x="138.17" y="54.64" class="st5" width="49.88" height="49"/>
<rect x="188.04" y="54.64" class="st5" width="49.88" height="49"/>
<rect x="237.92" y="54.64" class="st5" width="49.88" height="49"/>
<rect x="287.79" y="54.64" class="st5" width="49.88" height="49"/>
<rect x="337.67" y="54.64" class="st5" width="49.88" height="49"/>
<rect x="387.54" y="54.64" class="st5" width="49.88" height="49"/>
<rect x="437.42" y="54.64" class="st5" width="49.88" height="49"/>
<rect x="487.29" y="54.64" class="st5" width="49.88" height="49"/>
<text transform="matrix(1 0 0 1 153.4731 90.8511)" class="st3 st4">A</text>
<text transform="matrix(1 0 0 1 253.4731 90.8511)" class="st3 st4">C</text>
<text transform="matrix(1 0 0 1 204 90.8081)" class="st3 st4">B</text>
<text transform="matrix(1 0 0 1 353.4731 90.8511)" class="st3 st4">C</text>
<text transform="matrix(1 0 0 1 303 90.8081)" class="st3 st4">A</text>
<text transform="matrix(1 0 0 1 402 90.4751)" class="st3 st4">C</text>
<rect x="537.29" y="54.64" class="st5" width="49.88" height="49"/>
<text transform="matrix(1 0 0 1 454 90.8081)" class="st3 st4">A</text>
<text transform="matrix(1 0 0 1 502.4731 90.8511)" class="st3 st4">B</text>
<text transform="matrix(1 0 0 1 552 90.8081)" class="st3 st4">D</text>
</svg>
