<?xml version="1.0" encoding="utf-8"?>
<!-- Generator: Adobe Illustrator 22.1.0, SVG Export Plug-In . SVG Version: 6.00 Build 0)  -->
<svg version="1.1" id="图层_1" xmlns="http://www.w3.org/2000/svg" xmlns:xlink="http://www.w3.org/1999/xlink" x="0px" y="0px"
	 viewBox="0 0 624.47 334.14" style="enable-background:new 0 0 624.47 334.14;" xml:space="preserve">
<style type="text/css">
	.st0{fill:#DBDADA;stroke:#000000;stroke-miterlimit:10;}
	.st1{font-family:'ArialMT';}
	.st2{font-size:30px;}
	.st3{fill:#FFF38B;stroke:#000000;stroke-miterlimit:10;}
	.st4{fill:#FF5050;stroke:#000000;stroke-miterlimit:10;}
	.st5{fill:#FFFFFF;stroke:#000000;stroke-miterlimit:10;}
</style>
<rect x="146.17" y="59.64" class="st0" width="49.88" height="49"/>
<rect x="196.04" y="59.64" class="st0" width="49.88" height="49"/>
<rect x="245.92" y="59.64" class="st0" width="49.88" height="49"/>
<rect x="295.79" y="59.64" class="st0" width="49.88" height="49"/>
<rect x="345.67" y="59.64" class="st0" width="49.88" height="49"/>
<rect x="395.54" y="59.64" class="st0" width="49.88" height="49"/>
<rect x="445.42" y="59.64" class="st0" width="49.88" height="49"/>
<rect x="495.29" y="59.64" class="st0" width="49.88" height="49"/>
<text transform="matrix(1 0 0 1 161.4731 95.8511)" class="st1 st2">A</text>
<text transform="matrix(1 0 0 1 261.4731 95.8511)" class="st1 st2">A</text>
<text transform="matrix(1 0 0 1 212 95.8081)" class="st1 st2">B</text>
<text transform="matrix(1 0 0 1 361.4731 95.8511)" class="st1 st2">A</text>
<text transform="matrix(1 0 0 1 311 95.8081)" class="st1 st2">B</text>
<text transform="matrix(1 0 0 1 410 95.4751)" class="st1 st2">B</text>
<rect x="545.29" y="59.64" class="st0" width="49.88" height="49"/>
<text transform="matrix(1 0 0 1 462 95.8081)" class="st1 st2">B</text>
<text transform="matrix(1 0 0 1 510.4731 95.8511)" class="st1 st2">C</text>
<text transform="matrix(1 0 0 1 560 95.8081)" class="st1 st2">A</text>
<g>
	<path d="M47.43,72.64v2.68h-5.76V91.9h-3.31V75.32h-5.67v-2.68H47.43z"/>
	<path d="M52.27,85.49c0.05,1.43,0.36,2.53,0.95,3.3c0.59,0.77,1.39,1.16,2.41,1.16c0.69,0,1.31-0.17,1.85-0.52
		c0.54-0.35,1.03-0.93,1.47-1.75l2.47,1.19c-0.54,0.87-1.08,1.52-1.61,1.97c-0.54,0.45-1.16,0.78-1.88,1
		c-0.72,0.22-1.57,0.33-2.55,0.33c-2.05,0-3.63-0.65-4.74-1.93c-1.11-1.29-1.67-3.1-1.67-5.43c0-2.35,0.58-4.14,1.75-5.37
		c1.17-1.23,2.76-1.84,4.77-1.84c2,0,3.52,0.65,4.58,1.96c1.06,1.31,1.59,3.16,1.59,5.54v0.38H52.27z M55.38,79.77
		c-0.92,0-1.65,0.33-2.2,0.98s-0.84,1.56-0.89,2.72h6.1c-0.09-1.24-0.37-2.17-0.85-2.78C57.07,80.08,56.35,79.77,55.38,79.77z"/>
	<path d="M69.63,83.02l3.21-5.13h3.43l-4.87,6.77l5.17,7.25h-3.43l-3.51-5.35l-3.54,5.35h-3.34l5.1-7.21L63,77.89h3.39L69.63,83.02z
		"/>
	<path d="M82.91,92.15c-1.09,0-1.96-0.31-2.59-0.94c-0.63-0.62-0.95-1.52-0.95-2.69v-8.35H77.3v-2.28h2.11l1-3.39h2.09v3.39h3.38
		v2.28H82.5v7.56c0,1.39,0.59,2.08,1.76,2.08c0.56,0,1.15-0.06,1.79-0.18v2.11C85.01,92.01,83.96,92.15,82.91,92.15z"/>
</g>
<g>
	<path d="M47.8,154.54c0,1.2-0.27,2.26-0.81,3.17c-0.54,0.91-1.33,1.62-2.37,2.13c-1.03,0.51-2.26,0.77-3.67,0.77h-2.9v7.29h-3.31
		v-19.26h6.07c2.24,0,3.97,0.51,5.17,1.54C47.19,151.2,47.8,152.66,47.8,154.54z M44.46,154.57c0-1.11-0.33-1.98-1-2.6
		c-0.67-0.62-1.68-0.93-3.03-0.93h-2.38v7.19h2.49c1.24,0,2.2-0.32,2.89-0.95C44.12,156.65,44.46,155.75,44.46,154.57z"/>
	<path d="M61.43,167.9h-3.04l-0.11-2.21c-0.46,0.91-1.03,1.55-1.68,1.93c-0.66,0.37-1.46,0.56-2.42,0.56c-1.44,0-2.54-0.37-3.3-1.12
		c-0.76-0.75-1.14-1.79-1.14-3.12c0-1.46,0.52-2.57,1.56-3.35c1.04-0.77,2.57-1.19,4.59-1.26l2.39-0.08v-0.44
		c0-1.08-0.18-1.87-0.53-2.36c-0.35-0.49-0.95-0.73-1.78-0.73c-0.74,0-1.28,0.14-1.63,0.42c-0.35,0.28-0.59,0.71-0.72,1.29
		l-3.04-0.48c0.27-1.19,0.85-2.05,1.72-2.57c0.87-0.52,2.11-0.78,3.71-0.78c1.87,0,3.24,0.44,4.11,1.33
		c0.87,0.88,1.31,2.26,1.31,4.12V167.9z M55.14,165.96c0.98,0,1.75-0.34,2.31-1.02c0.56-0.68,0.85-1.55,0.85-2.62v-1.27l-1.49,0.05
		c-1.34,0.06-2.3,0.3-2.89,0.71s-0.88,1.05-0.88,1.93C53.03,165.22,53.73,165.96,55.14,165.96z"/>
	<path d="M69.53,168.15c-1.09,0-1.96-0.31-2.59-0.94c-0.63-0.62-0.95-1.52-0.95-2.69v-8.35h-2.06v-2.28h2.11l1-3.39h2.09v3.39h3.38
		v2.28h-3.38v7.56c0,1.39,0.59,2.08,1.76,2.08c0.56,0,1.15-0.06,1.79-0.18v2.11C71.64,168.01,70.59,168.15,69.53,168.15z"/>
	<path d="M79.65,168.15c-1.09,0-1.96-0.31-2.59-0.94c-0.63-0.62-0.95-1.52-0.95-2.69v-8.35h-2.06v-2.28h2.11l1-3.39h2.09v3.39h3.38
		v2.28h-3.38v7.56c0,1.39,0.59,2.08,1.76,2.08c0.56,0,1.15-0.06,1.79-0.18v2.11C81.76,168.01,80.71,168.15,79.65,168.15z"/>
	<path d="M88.03,161.49c0.05,1.43,0.36,2.53,0.95,3.3c0.59,0.77,1.39,1.16,2.41,1.16c0.69,0,1.31-0.17,1.85-0.52
		c0.54-0.35,1.03-0.93,1.47-1.75l2.47,1.19c-0.54,0.87-1.08,1.52-1.61,1.97c-0.54,0.45-1.16,0.78-1.88,1
		c-0.72,0.22-1.57,0.33-2.55,0.33c-2.05,0-3.63-0.65-4.74-1.93c-1.11-1.29-1.67-3.1-1.67-5.43c0-2.35,0.58-4.14,1.75-5.37
		c1.17-1.23,2.76-1.84,4.77-1.84c2,0,3.52,0.65,4.58,1.96c1.06,1.31,1.59,3.16,1.59,5.54v0.38H88.03z M91.15,155.77
		c-0.92,0-1.65,0.33-2.2,0.98s-0.84,1.56-0.89,2.72h6.1c-0.09-1.24-0.37-2.17-0.85-2.78C92.84,156.08,92.12,155.77,91.15,155.77z"/>
	<path d="M106.98,156.21c-1.02,0-1.84,0.45-2.45,1.35c-0.61,0.9-0.92,2.11-0.92,3.63v6.71h-3.14v-10.55c0-1.48-0.03-2.63-0.1-3.46
		h2.99c0.09,1.09,0.14,2.15,0.14,3.17h0.05c0.44-1.29,0.94-2.19,1.52-2.7s1.33-0.76,2.27-0.76c0.43,0,0.78,0.06,1.07,0.18v2.58
		C107.95,156.26,107.47,156.21,106.98,156.21z"/>
	<path d="M120.08,167.9v-7.83c0-1.42-0.22-2.44-0.66-3.06c-0.44-0.62-1.14-0.93-2.1-0.93c-1.03,0-1.84,0.4-2.43,1.19
		s-0.88,1.87-0.88,3.23v7.41h-3.14v-10.79c0-1.08-0.04-2.16-0.12-3.23h2.99c0.1,1.37,0.15,2.27,0.15,2.71h0.05
		c0.54-1.05,1.16-1.81,1.87-2.28c0.71-0.47,1.63-0.71,2.75-0.71c1.56,0,2.73,0.46,3.51,1.38c0.78,0.92,1.17,2.34,1.17,4.27v8.65
		H120.08z"/>
</g>
<rect x="38.17" y="298.64" class="st3" width="30" height="30"/>
<rect x="38.17" y="240.64" class="st4" width="30" height="30"/>
<g>
	<path d="M89.82,261h-2.61v-15.14h8.44v2.09h-5.83v4.59h5.59v2.03h-5.59V261z"/>
	<path d="M106.39,261H104l-0.09-1.74c-0.37,0.72-0.81,1.22-1.32,1.51s-1.15,0.44-1.9,0.44c-1.13,0-2-0.29-2.59-0.88
		c-0.6-0.59-0.9-1.4-0.9-2.45c0-1.15,0.41-2.02,1.22-2.63s2.02-0.94,3.61-0.99l1.88-0.06v-0.34c0-0.85-0.14-1.47-0.41-1.85
		c-0.28-0.38-0.74-0.58-1.4-0.58c-0.58,0-1.01,0.11-1.28,0.33c-0.28,0.22-0.46,0.56-0.56,1.02l-2.38-0.38
		c0.21-0.94,0.66-1.61,1.35-2.02c0.68-0.41,1.66-0.61,2.92-0.61c1.47,0,2.54,0.35,3.23,1.04c0.68,0.69,1.03,1.77,1.03,3.23V261z
		 M101.45,259.48c0.77,0,1.37-0.27,1.82-0.8c0.44-0.53,0.67-1.22,0.67-2.06v-1l-1.17,0.04c-1.05,0.05-1.81,0.24-2.27,0.56
		s-0.69,0.83-0.69,1.51C99.79,258.9,100.34,259.48,101.45,259.48z"/>
	<path d="M109.5,247.5v-2.12h2.46v2.12H109.5z M109.5,261v-11.01h2.47V261H109.5z"/>
	<path d="M115.25,261v-15.62h2.47V261H115.25z"/>
	<path d="M123.32,249.99v6.16c0,1.12,0.18,1.92,0.53,2.41c0.35,0.49,0.9,0.73,1.64,0.73c0.8,0,1.44-0.31,1.91-0.92
		c0.47-0.61,0.71-1.47,0.71-2.56v-5.81h2.47v8.46c0,0.86,0.03,1.71,0.1,2.55h-2.35c-0.08-1.09-0.12-1.8-0.12-2.13h-0.04
		c-0.43,0.84-0.93,1.45-1.49,1.8c-0.56,0.36-1.28,0.54-2.16,0.54c-1.22,0-2.13-0.36-2.74-1.09c-0.61-0.73-0.92-1.84-0.92-3.35v-6.79
		H123.32z"/>
	<path d="M138.93,251.82c-0.8,0-1.44,0.35-1.92,1.06c-0.48,0.71-0.72,1.66-0.72,2.85V261h-2.47v-8.29c0-1.16-0.03-2.07-0.08-2.72
		h2.35c0.07,0.86,0.11,1.69,0.11,2.49h0.04c0.34-1.02,0.74-1.72,1.19-2.12c0.45-0.4,1.05-0.6,1.78-0.6c0.34,0,0.62,0.05,0.84,0.14
		v2.03C139.69,251.86,139.31,251.82,138.93,251.82z"/>
	<path d="M143.87,255.96c0.04,1.12,0.28,1.99,0.75,2.59c0.46,0.6,1.09,0.91,1.9,0.91c0.54,0,1.03-0.14,1.46-0.41
		c0.43-0.27,0.81-0.73,1.15-1.38l1.94,0.93c-0.42,0.68-0.85,1.2-1.27,1.55c-0.42,0.35-0.92,0.61-1.48,0.79
		c-0.56,0.18-1.23,0.26-2,0.26c-1.61,0-2.85-0.51-3.73-1.52c-0.87-1.01-1.31-2.44-1.31-4.27c0-1.85,0.46-3.25,1.38-4.22
		c0.92-0.96,2.17-1.45,3.75-1.45c1.57,0,2.77,0.51,3.6,1.54c0.83,1.03,1.25,2.48,1.25,4.36v0.3H143.87z M146.32,251.47
		c-0.72,0-1.3,0.26-1.73,0.77s-0.66,1.23-0.7,2.14h4.79c-0.07-0.97-0.29-1.7-0.67-2.19C147.64,251.71,147.08,251.47,146.32,251.47z"
		/>
</g>
<g>
	<path d="M96.62,316.74c0,1.45-0.46,2.55-1.38,3.33c-0.92,0.77-2.25,1.15-3.99,1.15c-1.53,0-2.74-0.33-3.61-1
		c-0.88-0.67-1.45-1.67-1.71-3.02l2.43-0.42c0.35,1.64,1.36,2.46,3.03,2.46c1.82,0,2.73-0.78,2.73-2.35c0-0.45-0.09-0.82-0.27-1.11
		c-0.18-0.29-0.43-0.53-0.74-0.72c-0.32-0.19-0.69-0.36-1.11-0.49c-0.43-0.13-0.88-0.27-1.37-0.41c-1.17-0.34-2.02-0.69-2.55-1.05
		s-0.93-0.82-1.21-1.38c-0.28-0.55-0.42-1.24-0.42-2.06c0-1.27,0.42-2.26,1.27-2.96c0.84-0.71,2.02-1.06,3.52-1.06
		c1.43,0,2.55,0.29,3.36,0.85c0.81,0.57,1.36,1.46,1.67,2.68l-2.46,0.44c-0.32-1.38-1.19-2.07-2.59-2.07
		c-0.72,0-1.28,0.18-1.67,0.53c-0.39,0.35-0.59,0.85-0.59,1.48c0,0.44,0.09,0.8,0.26,1.08c0.18,0.28,0.44,0.53,0.79,0.74
		c0.35,0.21,1.03,0.47,2.03,0.77c1.17,0.37,2.01,0.69,2.51,0.96c0.5,0.28,0.9,0.58,1.19,0.92c0.29,0.34,0.52,0.73,0.67,1.17
		S96.62,316.15,96.62,316.74z"/>
	<path d="M101.26,309.99v6.16c0,1.12,0.18,1.92,0.53,2.41c0.35,0.49,0.9,0.73,1.64,0.73c0.8,0,1.44-0.31,1.91-0.92
		c0.47-0.61,0.71-1.47,0.71-2.56v-5.81h2.47v8.46c0,0.86,0.03,1.71,0.1,2.55h-2.35c-0.08-1.09-0.12-1.8-0.12-2.13h-0.04
		c-0.43,0.84-0.93,1.45-1.49,1.8c-0.56,0.36-1.28,0.54-2.16,0.54c-1.22,0-2.13-0.36-2.74-1.09c-0.61-0.73-0.92-1.84-0.92-3.35v-6.79
		H101.26z"/>
	<path d="M115.8,321.22c-1.51,0-2.68-0.49-3.5-1.48c-0.82-0.99-1.23-2.38-1.23-4.18c0-1.85,0.42-3.27,1.26-4.28
		c0.84-1.01,2.02-1.51,3.56-1.51c2.5,0,3.93,1.14,4.3,3.43l-2.47,0.2c-0.08-0.61-0.28-1.07-0.61-1.37c-0.33-0.3-0.73-0.46-1.2-0.46
		c-0.81,0-1.4,0.32-1.78,0.96s-0.56,1.61-0.56,2.92c0,1.33,0.19,2.33,0.59,2.99c0.39,0.66,0.95,0.99,1.67,0.99
		c1.08,0,1.73-0.68,1.93-2.03l2.41,0.26C119.77,320.03,118.32,321.22,115.8,321.22z"/>
	<path d="M126.14,321.22c-1.51,0-2.68-0.49-3.5-1.48c-0.82-0.99-1.23-2.38-1.23-4.18c0-1.85,0.42-3.27,1.26-4.28
		c0.84-1.01,2.02-1.51,3.56-1.51c2.5,0,3.93,1.14,4.3,3.43l-2.47,0.2c-0.08-0.61-0.28-1.07-0.61-1.37c-0.33-0.3-0.73-0.46-1.2-0.46
		c-0.81,0-1.4,0.32-1.78,0.96s-0.56,1.61-0.56,2.92c0,1.33,0.19,2.33,0.59,2.99c0.39,0.66,0.95,0.99,1.67,0.99
		c1.08,0,1.73-0.68,1.93-2.03l2.41,0.26C130.12,320.03,128.66,321.22,126.14,321.22z"/>
	<path d="M134.36,315.96c0.04,1.12,0.28,1.99,0.75,2.59c0.46,0.6,1.09,0.91,1.9,0.91c0.54,0,1.03-0.14,1.46-0.41
		c0.43-0.27,0.81-0.73,1.15-1.38l1.94,0.93c-0.42,0.68-0.85,1.2-1.27,1.55c-0.42,0.35-0.92,0.61-1.48,0.79
		c-0.56,0.18-1.23,0.26-2,0.26c-1.61,0-2.85-0.51-3.73-1.52c-0.87-1.01-1.31-2.44-1.31-4.27c0-1.85,0.46-3.25,1.38-4.22
		c0.92-0.96,2.17-1.45,3.75-1.45c1.57,0,2.77,0.51,3.6,1.54c0.83,1.03,1.25,2.48,1.25,4.36v0.3H134.36z M136.81,311.47
		c-0.72,0-1.3,0.26-1.73,0.77s-0.66,1.23-0.7,2.14h4.79c-0.07-0.97-0.29-1.7-0.67-2.19C138.13,311.71,137.57,311.47,136.81,311.47z"
		/>
	<path d="M151.33,317.83c0,1.06-0.36,1.89-1.08,2.49c-0.72,0.6-1.73,0.9-3.02,0.9c-1.35,0-2.33-0.21-2.96-0.63
		c-0.63-0.42-1.05-1.1-1.25-2.04l2.13-0.33c0.1,0.49,0.31,0.85,0.64,1.06c0.33,0.21,0.79,0.32,1.4,0.32c0.55,0,1-0.12,1.34-0.35
		c0.34-0.24,0.51-0.62,0.51-1.15c0-0.32-0.08-0.59-0.23-0.8c-0.15-0.21-0.37-0.39-0.67-0.55c-0.3-0.15-0.88-0.34-1.73-0.57
		c-0.79-0.21-1.37-0.44-1.76-0.7c-0.38-0.26-0.68-0.59-0.89-0.99c-0.21-0.4-0.31-0.89-0.31-1.47c0-1.02,0.32-1.82,0.96-2.39
		c0.64-0.57,1.58-0.85,2.81-0.85c1.14,0,2.01,0.21,2.63,0.63c0.61,0.42,1,1.06,1.15,1.93l-2.15,0.23c-0.08-0.42-0.25-0.72-0.52-0.89
		s-0.63-0.26-1.09-0.26c-1.01,0-1.51,0.44-1.51,1.33c0,0.29,0.06,0.52,0.19,0.71c0.13,0.19,0.31,0.35,0.55,0.48
		c0.24,0.13,0.79,0.32,1.64,0.56c0.94,0.26,1.6,0.53,2,0.8c0.39,0.27,0.7,0.61,0.91,1.02S151.33,317.22,151.33,317.83z"/>
	<path d="M160.82,317.83c0,1.06-0.36,1.89-1.08,2.49c-0.72,0.6-1.73,0.9-3.02,0.9c-1.35,0-2.33-0.21-2.96-0.63
		c-0.63-0.42-1.05-1.1-1.25-2.04l2.13-0.33c0.1,0.49,0.31,0.85,0.64,1.06c0.33,0.21,0.79,0.32,1.4,0.32c0.55,0,1-0.12,1.34-0.35
		c0.34-0.24,0.51-0.62,0.51-1.15c0-0.32-0.08-0.59-0.23-0.8c-0.15-0.21-0.37-0.39-0.67-0.55c-0.3-0.15-0.88-0.34-1.73-0.57
		c-0.79-0.21-1.37-0.44-1.76-0.7c-0.38-0.26-0.68-0.59-0.89-0.99c-0.21-0.4-0.31-0.89-0.31-1.47c0-1.02,0.32-1.82,0.96-2.39
		c0.64-0.57,1.58-0.85,2.81-0.85c1.14,0,2.01,0.21,2.63,0.63c0.61,0.42,1,1.06,1.15,1.93l-2.15,0.23c-0.08-0.42-0.25-0.72-0.52-0.89
		s-0.63-0.26-1.09-0.26c-1.01,0-1.51,0.44-1.51,1.33c0,0.29,0.06,0.52,0.19,0.71c0.13,0.19,0.31,0.35,0.55,0.48
		c0.24,0.13,0.79,0.32,1.64,0.56c0.94,0.26,1.6,0.53,2,0.8c0.39,0.27,0.7,0.61,0.91,1.02S160.82,317.22,160.82,317.83z"/>
</g>
<g>
	<path d="M8.89,5.78l5.92,14.55c0.3,0.71,0.93,2.48,1.88,5.29c0.35-1.14,1.01-2.9,1.97-5.29l5.75-14.55h5.78v24.77h-3.88V14.13
		c0-0.73,0.01-1.46,0.04-2.19s0.05-1.47,0.07-2.21c-0.27,0.75-0.49,1.36-0.67,1.84s-0.56,1.48-1.16,3.01l-6.28,15.96h-3.23
		l-6.5-16.15c-0.69-1.75-1.27-3.3-1.72-4.66c0.02,0.73,0.04,1.45,0.06,2.16s0.03,1.44,0.03,2.16v16.49H3.08V5.78H8.89z"/>
	<path d="M53.16,13.37c0,1.55-0.35,2.91-1.05,4.08s-1.71,2.09-3.04,2.74s-2.9,0.98-4.72,0.98h-3.73v9.37h-4.25V5.78h7.8
		c2.88,0,5.1,0.66,6.65,1.98S53.16,10.95,53.16,13.37z M48.87,13.41c0-1.43-0.43-2.54-1.29-3.34s-2.16-1.2-3.89-1.2h-3.06v9.25h3.2
		c1.59,0,2.83-0.41,3.72-1.22S48.87,14.92,48.87,13.41z"/>
	<path d="M78.79,5.78l9.23,24.77h-4.29l-2.46-6.77h-10l-2.44,6.77h-4.29l9.25-24.77H78.79z M76.29,9c-0.21,0.68-0.41,1.31-0.6,1.9
		s-0.41,1.23-0.67,1.93l-2.76,7.7h8.05l-2.78-7.68C77.15,11.79,76.73,10.51,76.29,9z"/>
	<path d="M91.05,30.55V4.99h4.04v25.56H91.05z"/>
	<path d="M99.32,21.42c0-2.98,0.66-5.26,1.98-6.86s3.2-2.39,5.65-2.39c1.34,0,2.51,0.3,3.52,0.91s1.78,1.46,2.31,2.56h0.07
		c0-1.01,0.08-2.04,0.23-3.11h3.87c-0.09,1.05-0.14,2.39-0.14,4.01v13.48c0,2.04-0.76,3.79-2.27,5.26s-3.66,2.21-6.45,2.21
		c-4.61,0-7.27-1.61-7.98-4.83l4.03-0.62c0.45,1.65,1.8,2.48,4.08,2.48c1.49,0,2.63-0.45,3.41-1.34s1.18-1.93,1.18-3.11v-1.9
		c0-0.39,0.02-0.77,0.05-1.16h-0.07c-0.61,1.21-1.42,2.11-2.42,2.7s-2.26,0.89-3.77,0.89c-2.34,0-4.14-0.8-5.4-2.39
		S99.32,24.35,99.32,21.42z M103.55,21.42c0,4.13,1.52,6.19,4.57,6.19c1.54,0,2.7-0.55,3.5-1.64s1.2-2.64,1.2-4.63
		s-0.4-3.52-1.2-4.6s-1.95-1.61-3.46-1.61c-1.46,0-2.6,0.51-3.4,1.54S103.55,19.28,103.55,21.42z"/>
	<path d="M139.46,21.5c0,2.94-0.82,5.24-2.45,6.91s-3.93,2.5-6.88,2.5c-2.86,0-5.1-0.84-6.71-2.53s-2.43-3.98-2.43-6.87
		c0-2.94,0.81-5.23,2.43-6.87s3.89-2.46,6.81-2.46c3.01,0,5.3,0.8,6.87,2.4S139.46,18.47,139.46,21.5z M135.23,21.5
		c0-4.23-1.63-6.35-4.9-6.35c-3.4,0-5.1,2.12-5.1,6.35c0,2.07,0.42,3.66,1.25,4.76s2.04,1.65,3.62,1.65
		C133.52,27.91,135.23,25.77,135.23,21.5z"/>
	<path d="M151.98,15.52c-1.31,0-2.36,0.58-3.15,1.73s-1.18,2.71-1.18,4.67v8.63h-4.04V16.98c0-1.9-0.04-3.38-0.12-4.45h3.85
		c0.12,1.41,0.18,2.77,0.18,4.08h0.07c0.56-1.66,1.21-2.82,1.95-3.47s1.71-0.98,2.92-0.98c0.55,0,1.01,0.08,1.37,0.23v3.32
		C153.23,15.58,152.61,15.52,151.98,15.52z"/>
	<path d="M156.97,8.45V4.99H161v3.46H156.97z M156.97,30.55V12.53h4.04v18.02H156.97z"/>
	<path d="M171.7,30.86c-1.41,0-2.52-0.4-3.33-1.2s-1.22-1.95-1.22-3.45V15.47h-2.65v-2.94h2.71l1.28-4.36h2.69v4.36h4.34v2.94h-4.34
		v9.72c0,1.78,0.76,2.67,2.27,2.67c0.71,0,1.48-0.08,2.3-0.23v2.71C174.41,30.69,173.06,30.86,171.7,30.86z"/>
	<path d="M191.23,30.55V20.6c0-1.85-0.27-3.16-0.81-3.92s-1.38-1.14-2.53-1.14c-1.41,0-2.5,0.47-3.3,1.42s-1.19,2.26-1.19,3.92v9.67
		h-4.04V4.99h4.04v7.8c0,0.53-0.01,1.05-0.03,1.57s-0.04,1.05-0.06,1.57h0.07c0.66-1.31,1.43-2.27,2.33-2.87s2.08-0.91,3.54-0.91
		c2,0,3.51,0.59,4.51,1.77s1.5,3,1.5,5.46v11.16H191.23z"/>
	<path d="M211.69,30.55V20.48c0-1.86-0.26-3.18-0.78-3.96s-1.35-1.17-2.49-1.17c-1.24,0-2.23,0.5-2.95,1.51s-1.09,2.4-1.09,4.17
		v9.53h-4.04V16.68c0-1.39-0.05-2.78-0.16-4.15h3.85c0.13,1.76,0.19,2.92,0.19,3.48h0.07c0.68-1.38,1.46-2.37,2.36-2.96
		s2.02-0.89,3.39-0.89c2.82,0,4.61,1.28,5.34,3.85h0.12c0.63-1.32,1.4-2.3,2.31-2.92s2.08-0.93,3.52-0.93
		c1.93,0,3.38,0.59,4.34,1.76s1.44,3.01,1.44,5.5v11.13h-4.06V20.48c0-1.83-0.27-3.14-0.8-3.94s-1.38-1.2-2.54-1.2
		c-1.23,0-2.2,0.5-2.91,1.49s-1.06,2.35-1.06,4.09v9.63H211.69z"/>
</g>
<rect x="145.67" y="134.64" class="st3" width="49.88" height="49"/>
<rect x="195.54" y="134.64" class="st3" width="49.88" height="49"/>
<rect x="245.42" y="134.64" class="st4" width="49.88" height="49"/>
<rect x="295.29" y="134.64" class="st5" width="49.88" height="49"/>
<text transform="matrix(1 0 0 1 161.4731 170.8511)" class="st1 st2">A</text>
<text transform="matrix(1 0 0 1 210 170.4751)" class="st1 st2">B</text>
<rect x="345.29" y="134.64" class="st5" width="49.88" height="49"/>
<text transform="matrix(1 0 0 1 262 170.8081)" class="st1 st2">B</text>
<text transform="matrix(1 0 0 1 310.4731 170.8511)" class="st1 st2">C</text>
<text transform="matrix(1 0 0 1 360 170.8081)" class="st1 st2">A</text>
<g>
	<path d="M413.23,158.14l0.79-3.75c3.62-1.58,6.43-3.42,8.41-5.52h2.56l-4.53,21.61h-4.23l3.12-14.88
		c-0.88,0.57-1.89,1.08-3.04,1.55S414.13,157.95,413.23,158.14z"/>
</g>
<rect x="244.67" y="209.64" class="st3" width="49.88" height="49"/>
<rect x="294.54" y="209.64" class="st3" width="49.88" height="49"/>
<rect x="344.42" y="209.64" class="st4" width="49.88" height="49"/>
<rect x="394.29" y="209.64" class="st5" width="49.88" height="49"/>
<text transform="matrix(1 0 0 1 260.4731 245.8511)" class="st1 st2">A</text>
<text transform="matrix(1 0 0 1 309 245.4751)" class="st1 st2">B</text>
<rect x="444.29" y="209.64" class="st5" width="49.88" height="49"/>
<text transform="matrix(1 0 0 1 361 245.8081)" class="st1 st2">B</text>
<text transform="matrix(1 0 0 1 409.4731 245.8511)" class="st1 st2">C</text>
<text transform="matrix(1 0 0 1 459 245.8081)" class="st1 st2">A</text>
<g>
	<path d="M516.59,230.69l-4.12-0.62c0.33-1.99,1.11-3.52,2.32-4.58s2.74-1.59,4.56-1.59c2,0,3.57,0.54,4.72,1.63
		s1.71,2.46,1.71,4.13c0,0.85-0.18,1.7-0.53,2.56s-0.93,1.75-1.73,2.69c-0.58,0.66-1.52,1.6-2.83,2.82s-2.18,2.05-2.6,2.49
		s-0.83,0.92-1.22,1.41h7.44l-0.79,3.84h-13.05c0.14-1.05,0.45-2.06,0.93-3.01s1.09-1.84,1.81-2.66s2.05-2.14,3.97-3.97
		c1.45-1.39,2.36-2.29,2.74-2.71c0.68-0.76,1.15-1.42,1.41-1.98s0.38-1.06,0.38-1.51c0-0.72-0.21-1.31-0.64-1.76
		s-0.96-0.67-1.62-0.67c-0.66,0-1.25,0.25-1.74,0.75S516.85,229.38,516.59,230.69z"/>
</g>
<rect x="343.67" y="284.64" class="st3" width="49.88" height="49"/>
<rect x="393.54" y="284.64" class="st3" width="49.88" height="49"/>
<rect x="443.42" y="284.64" class="st3" width="49.88" height="49"/>
<rect x="493.29" y="284.64" class="st3" width="49.88" height="49"/>
<text transform="matrix(1 0 0 1 359.4731 320.8511)" class="st1 st2">A</text>
<text transform="matrix(1 0 0 1 408 320.4751)" class="st1 st2">B</text>
<rect x="543.29" y="284.64" class="st3" width="49.88" height="49"/>
<text transform="matrix(1 0 0 1 460 320.8081)" class="st1 st2">B</text>
<text transform="matrix(1 0 0 1 508.4731 320.8511)" class="st1 st2">C</text>
<text transform="matrix(1 0 0 1 558 320.8081)" class="st1 st2">A</text>
<g>
	<path d="M609.19,314.86l4.03-0.48c0.17,1.14,0.47,1.93,0.9,2.37s1.01,0.66,1.74,0.66c0.96,0,1.75-0.32,2.38-0.97
		s0.94-1.47,0.94-2.47c0-0.88-0.25-1.58-0.76-2.09s-1.19-0.77-2.05-0.77c-0.21,0-0.44,0.02-0.67,0.06l0.73-3.5
		c0.15,0.02,0.29,0.03,0.42,0.03c1.12,0,1.98-0.29,2.56-0.86s0.88-1.35,0.88-2.32c0-0.69-0.2-1.24-0.59-1.64s-0.92-0.6-1.56-0.6
		c-0.61,0-1.15,0.22-1.63,0.67s-0.86,1.2-1.14,2.28l-3.84-0.76c0.49-1.58,1.17-2.8,2.04-3.65c1.32-1.27,2.94-1.9,4.86-1.9
		c1.97,0,3.47,0.55,4.5,1.65s1.54,2.41,1.54,3.95c0,1.11-0.33,2.12-0.98,3.02s-1.55,1.56-2.7,1.98c0.91,0.48,1.58,1.1,2.01,1.86
		s0.64,1.56,0.64,2.39c0,1.58-0.56,3.04-1.68,4.37c-1.53,1.82-3.51,2.72-5.93,2.72c-1.82,0-3.31-0.52-4.49-1.56
		S609.44,316.77,609.19,314.86z"/>
</g>
</svg>
