<?xml version="1.0" encoding="utf-8"?>
<!-- Generator: Adobe Illustrator 22.1.0, SVG Export Plug-In . SVG Version: 6.00 Build 0)  -->
<svg version="1.1" id="图层_1" xmlns="http://www.w3.org/2000/svg" xmlns:xlink="http://www.w3.org/1999/xlink" x="0px" y="0px"
	 viewBox="0 0 624.466 334.142" style="enable-background:new 0 0 624.466 334.142;" xml:space="preserve">
<style type="text/css">
	.st0{fill:#DBDADA;stroke:#000000;stroke-miterlimit:10;}
	.st1{font-family:'ArialMT';}
	.st2{font-size:30px;}
	.st3{font-family:'DengXian-Bold';}
	.st4{font-size:28px;}
	.st5{fill:#FFF38B;stroke:#000000;stroke-miterlimit:10;}
	.st6{fill:#FF5050;stroke:#000000;stroke-miterlimit:10;}
	.st7{font-size:22px;}
	.st8{font-size:36px;}
	.st9{fill:#FFFFFF;stroke:#000000;stroke-miterlimit:10;}
	.st10{font-family:'Arial-BoldItalicMT';}
</style>
<rect x="146.167" y="59.642" class="st0" width="49.875" height="49"/>
<rect x="196.042" y="59.642" class="st0" width="49.875" height="49"/>
<rect x="245.917" y="59.642" class="st0" width="49.875" height="49"/>
<rect x="295.792" y="59.642" class="st0" width="49.875" height="49"/>
<rect x="345.667" y="59.642" class="st0" width="49.875" height="49"/>
<rect x="395.542" y="59.642" class="st0" width="49.875" height="49"/>
<rect x="445.417" y="59.642" class="st0" width="49.875" height="49"/>
<rect x="495.292" y="59.642" class="st0" width="49.875" height="49"/>
<text transform="matrix(1 0 0 1 161.4731 95.8511)" class="st1 st2">A</text>
<text transform="matrix(1 0 0 1 261.4731 95.8511)" class="st1 st2">A</text>
<text transform="matrix(1 0 0 1 212 95.8081)" class="st1 st2">B</text>
<text transform="matrix(1 0 0 1 361.4731 95.8511)" class="st1 st2">A</text>
<text transform="matrix(1 0 0 1 311 95.8081)" class="st1 st2">B</text>
<text transform="matrix(1 0 0 1 410 95.4751)" class="st1 st2">B</text>
<rect x="545.292" y="59.642" class="st0" width="49.875" height="49"/>
<text transform="matrix(1 0 0 1 462 95.8081)" class="st1 st2">B</text>
<text transform="matrix(1 0 0 1 510.4731 95.8511)" class="st1 st2">C</text>
<text transform="matrix(1 0 0 1 560 95.8081)" class="st1 st2">A</text>
<text transform="matrix(1 0 0 1 32.333 90.8081)" class="st3 st4">Text</text>
<text transform="matrix(1 0 0 1 32.333 166.8081)" class="st3 st4">Pattern</text>
<rect x="38.167" y="298.642" class="st5" width="30" height="30"/>
<rect x="38.167" y="240.642" class="st6" width="30" height="30"/>
<text transform="matrix(1 0 0 1 85.333 260.1416)" class="st3 st7">Failure</text>
<text transform="matrix(1 0 0 1 85.333 320.1416)" class="st3 st7">Success</text>
<text transform="matrix(1 0 0 1 0 29.1416)" class="st3 st8">MP Algorithm</text>
<rect x="145.667" y="134.642" class="st5" width="49.875" height="49"/>
<rect x="195.542" y="134.642" class="st5" width="49.875" height="49"/>
<rect x="245.417" y="134.642" class="st6" width="49.875" height="49"/>
<rect x="295.292" y="134.642" class="st9" width="49.875" height="49"/>
<text transform="matrix(1 0 0 1 161.4731 170.8511)" class="st1 st2">A</text>
<text transform="matrix(1 0 0 1 210 170.4751)" class="st1 st2">B</text>
<rect x="345.292" y="134.642" class="st9" width="49.875" height="49"/>
<text transform="matrix(1 0 0 1 262 170.8081)" class="st1 st2">B</text>
<text transform="matrix(1 0 0 1 310.4731 170.8511)" class="st1 st2">C</text>
<text transform="matrix(1 0 0 1 360 170.8081)" class="st1 st2">A</text>
<text transform="matrix(1 0 0 1 409.6665 170.4751)" class="st10 st2">1</text>
<rect x="244.667" y="209.642" class="st5" width="49.875" height="49"/>
<rect x="294.542" y="209.642" class="st5" width="49.875" height="49"/>
<rect x="344.417" y="209.642" class="st6" width="49.875" height="49"/>
<rect x="394.292" y="209.642" class="st9" width="49.875" height="49"/>
<text transform="matrix(1 0 0 1 260.4731 245.8511)" class="st1 st2">A</text>
<text transform="matrix(1 0 0 1 309 245.4751)" class="st1 st2">B</text>
<rect x="444.292" y="209.642" class="st9" width="49.875" height="49"/>
<text transform="matrix(1 0 0 1 361 245.8081)" class="st1 st2">B</text>
<text transform="matrix(1 0 0 1 409.4731 245.8511)" class="st1 st2">C</text>
<text transform="matrix(1 0 0 1 459 245.8081)" class="st1 st2">A</text>
<text transform="matrix(1 0 0 1 508.6665 245.4751)" class="st10 st2">2</text>
<rect x="343.667" y="284.642" class="st5" width="49.875" height="49"/>
<rect x="393.542" y="284.642" class="st5" width="49.875" height="49"/>
<rect x="443.417" y="284.642" class="st5" width="49.875" height="49"/>
<rect x="493.292" y="284.642" class="st5" width="49.875" height="49"/>
<text transform="matrix(1 0 0 1 359.4731 320.8511)" class="st1 st2">A</text>
<text transform="matrix(1 0 0 1 408 320.4751)" class="st1 st2">B</text>
<rect x="543.292" y="284.642" class="st5" width="49.875" height="49"/>
<text transform="matrix(1 0 0 1 460 320.8081)" class="st1 st2">B</text>
<text transform="matrix(1 0 0 1 508.4731 320.8511)" class="st1 st2">C</text>
<text transform="matrix(1 0 0 1 558 320.8081)" class="st1 st2">A</text>
<text transform="matrix(1 0 0 1 607.6665 320.4751)" class="st10 st2">3</text>
</svg>
