<?xml version="1.0" encoding="utf-8"?>
<!-- Generator: Adobe Illustrator 22.1.0, SVG Export Plug-In . SVG Version: 6.00 Build 0)  -->
<svg version="1.1" id="图层_1" xmlns="http://www.w3.org/2000/svg" xmlns:xlink="http://www.w3.org/1999/xlink" x="0px" y="0px"
	 viewBox="0 0 568.47 331.14" style="enable-background:new 0 0 568.47 331.14;" xml:space="preserve">
<style type="text/css">
	.st0{fill:#DBDADA;stroke:#000000;stroke-miterlimit:10;}
	.st1{font-family:'ArialMT';}
	.st2{font-size:30px;}
	.st3{fill:#FFF38B;stroke:#000000;stroke-miterlimit:10;}
	.st4{fill:#FF5050;stroke:#000000;stroke-miterlimit:10;}
	.st5{fill:#FFFFFF;stroke:#000000;stroke-miterlimit:10;}
</style>
<rect x="139.17" y="54.64" class="st0" width="49.88" height="49"/>
<rect x="189.04" y="54.64" class="st0" width="49.88" height="49"/>
<rect x="238.92" y="54.64" class="st0" width="49.88" height="49"/>
<rect x="288.79" y="54.64" class="st0" width="49.88" height="49"/>
<rect x="338.67" y="54.64" class="st0" width="49.88" height="49"/>
<text transform="matrix(1 0 0 1 154.4731 90.8511)" class="st1 st2">A</text>
<text transform="matrix(1 0 0 1 254.4731 90.8511)" class="st1 st2">A</text>
<text transform="matrix(1 0 0 1 205 90.8081)" class="st1 st2">B</text>
<text transform="matrix(1 0 0 1 354.4731 90.8511)" class="st1 st2">B</text>
<text transform="matrix(1 0 0 1 304 90.8081)" class="st1 st2">A</text>
<g>
	<path d="M40.43,67.64v2.68h-5.76V86.9h-3.31V70.32h-5.67v-2.68H40.43z"/>
	<path d="M45.27,80.49c0.05,1.43,0.36,2.53,0.95,3.3c0.59,0.77,1.39,1.16,2.41,1.16c0.69,0,1.31-0.17,1.85-0.52
		c0.54-0.35,1.03-0.93,1.47-1.75l2.47,1.19c-0.54,0.87-1.08,1.52-1.61,1.97c-0.54,0.45-1.16,0.78-1.88,1
		c-0.72,0.22-1.57,0.33-2.55,0.33c-2.05,0-3.63-0.65-4.74-1.93c-1.11-1.29-1.67-3.1-1.67-5.43c0-2.35,0.58-4.14,1.75-5.37
		c1.17-1.23,2.76-1.84,4.77-1.84c2,0,3.52,0.65,4.58,1.96c1.06,1.31,1.59,3.16,1.59,5.54v0.38H45.27z M48.38,74.77
		c-0.92,0-1.65,0.33-2.2,0.98s-0.84,1.56-0.89,2.72h6.1c-0.09-1.24-0.37-2.17-0.85-2.78C50.07,75.08,49.35,74.77,48.38,74.77z"/>
	<path d="M62.63,78.02l3.21-5.13h3.43l-4.87,6.77l5.17,7.25h-3.43l-3.51-5.35l-3.54,5.35h-3.34l5.1-7.21L56,72.89h3.39L62.63,78.02z
		"/>
	<path d="M75.91,87.15c-1.09,0-1.96-0.31-2.59-0.94c-0.63-0.62-0.95-1.52-0.95-2.69v-8.35H70.3v-2.28h2.11l1-3.39h2.09v3.39h3.38
		v2.28H75.5v7.56c0,1.39,0.59,2.08,1.76,2.08c0.56,0,1.15-0.06,1.79-0.18v2.11C78.01,87.01,76.96,87.15,75.91,87.15z"/>
</g>
<g>
	<path d="M40.8,149.54c0,1.2-0.27,2.26-0.81,3.17c-0.54,0.91-1.33,1.62-2.37,2.13c-1.03,0.51-2.26,0.77-3.67,0.77h-2.9v7.29h-3.31
		v-19.26h6.07c2.24,0,3.97,0.51,5.17,1.54C40.19,146.2,40.8,147.66,40.8,149.54z M37.46,149.57c0-1.11-0.33-1.98-1-2.6
		c-0.67-0.62-1.68-0.93-3.03-0.93h-2.38v7.19h2.49c1.24,0,2.2-0.32,2.89-0.95C37.12,151.65,37.46,150.75,37.46,149.57z"/>
	<path d="M54.43,162.9h-3.04l-0.11-2.21c-0.46,0.91-1.03,1.55-1.68,1.93c-0.66,0.37-1.46,0.56-2.42,0.56c-1.44,0-2.54-0.37-3.3-1.12
		c-0.76-0.75-1.14-1.79-1.14-3.12c0-1.46,0.52-2.57,1.56-3.35c1.04-0.77,2.57-1.19,4.59-1.26l2.39-0.08v-0.44
		c0-1.08-0.18-1.87-0.53-2.36c-0.35-0.49-0.95-0.73-1.78-0.73c-0.74,0-1.28,0.14-1.63,0.42c-0.35,0.28-0.59,0.71-0.72,1.29
		l-3.04-0.48c0.27-1.19,0.85-2.05,1.72-2.57c0.87-0.52,2.11-0.78,3.71-0.78c1.87,0,3.24,0.44,4.11,1.33
		c0.87,0.88,1.31,2.26,1.31,4.12V162.9z M48.14,160.96c0.98,0,1.75-0.34,2.31-1.02c0.56-0.68,0.85-1.55,0.85-2.62v-1.27l-1.49,0.05
		c-1.34,0.06-2.3,0.3-2.89,0.71s-0.88,1.05-0.88,1.93C46.03,160.22,46.73,160.96,48.14,160.96z"/>
	<path d="M62.53,163.15c-1.09,0-1.96-0.31-2.59-0.94c-0.63-0.62-0.95-1.52-0.95-2.69v-8.35h-2.06v-2.28h2.11l1-3.39h2.09v3.39h3.38
		v2.28h-3.38v7.56c0,1.39,0.59,2.08,1.76,2.08c0.56,0,1.15-0.06,1.79-0.18v2.11C64.64,163.01,63.59,163.15,62.53,163.15z"/>
	<path d="M72.65,163.15c-1.09,0-1.96-0.31-2.59-0.94c-0.63-0.62-0.95-1.52-0.95-2.69v-8.35h-2.06v-2.28h2.11l1-3.39h2.09v3.39h3.38
		v2.28h-3.38v7.56c0,1.39,0.59,2.08,1.76,2.08c0.56,0,1.15-0.06,1.79-0.18v2.11C74.76,163.01,73.71,163.15,72.65,163.15z"/>
	<path d="M81.03,156.49c0.05,1.43,0.36,2.53,0.95,3.3c0.59,0.77,1.39,1.16,2.41,1.16c0.69,0,1.31-0.17,1.85-0.52
		c0.54-0.35,1.03-0.93,1.47-1.75l2.47,1.19c-0.54,0.87-1.08,1.52-1.61,1.97c-0.54,0.45-1.16,0.78-1.88,1
		c-0.72,0.22-1.57,0.33-2.55,0.33c-2.05,0-3.63-0.65-4.74-1.93c-1.11-1.29-1.67-3.1-1.67-5.43c0-2.35,0.58-4.14,1.75-5.37
		c1.17-1.23,2.76-1.84,4.77-1.84c2,0,3.52,0.65,4.58,1.96c1.06,1.31,1.59,3.16,1.59,5.54v0.38H81.03z M84.15,150.77
		c-0.92,0-1.65,0.33-2.2,0.98s-0.84,1.56-0.89,2.72h6.1c-0.09-1.24-0.37-2.17-0.85-2.78C85.84,151.08,85.12,150.77,84.15,150.77z"/>
	<path d="M99.98,151.21c-1.02,0-1.84,0.45-2.45,1.35c-0.61,0.9-0.92,2.11-0.92,3.63v6.71h-3.14v-10.55c0-1.48-0.03-2.63-0.1-3.46
		h2.99c0.09,1.09,0.14,2.15,0.14,3.17h0.05c0.44-1.29,0.94-2.19,1.52-2.7s1.33-0.76,2.27-0.76c0.43,0,0.78,0.06,1.07,0.18v2.58
		C100.95,151.26,100.47,151.21,99.98,151.21z"/>
	<path d="M113.08,162.9v-7.83c0-1.42-0.22-2.44-0.66-3.06c-0.44-0.62-1.14-0.93-2.1-0.93c-1.03,0-1.84,0.4-2.43,1.19
		s-0.88,1.87-0.88,3.23v7.41h-3.14v-10.79c0-1.08-0.04-2.16-0.12-3.23h2.99c0.1,1.37,0.15,2.27,0.15,2.71h0.05
		c0.54-1.05,1.16-1.81,1.87-2.28c0.71-0.47,1.63-0.71,2.75-0.71c1.56,0,2.73,0.46,3.51,1.38c0.78,0.92,1.17,2.34,1.17,4.27v8.65
		H113.08z"/>
</g>
<rect x="31.17" y="292.64" class="st3" width="30" height="30"/>
<rect x="31.17" y="234.64" class="st4" width="30" height="30"/>
<g>
	<path d="M82.82,255h-2.61v-15.14h8.44v2.09h-5.83v4.59h5.59v2.03h-5.59V255z"/>
	<path d="M99.39,255H97l-0.09-1.74c-0.37,0.72-0.81,1.22-1.32,1.51s-1.15,0.44-1.9,0.44c-1.13,0-2-0.29-2.59-0.88
		c-0.6-0.59-0.9-1.4-0.9-2.45c0-1.15,0.41-2.02,1.22-2.63s2.02-0.94,3.61-0.99l1.88-0.06v-0.34c0-0.85-0.14-1.47-0.41-1.85
		c-0.28-0.38-0.74-0.58-1.4-0.58c-0.58,0-1.01,0.11-1.28,0.33c-0.28,0.22-0.46,0.56-0.56,1.02l-2.38-0.38
		c0.21-0.94,0.66-1.61,1.35-2.02c0.68-0.41,1.66-0.61,2.92-0.61c1.47,0,2.54,0.35,3.23,1.04c0.68,0.69,1.03,1.77,1.03,3.23V255z
		 M94.45,253.48c0.77,0,1.37-0.27,1.82-0.8c0.44-0.53,0.67-1.22,0.67-2.06v-1l-1.17,0.04c-1.05,0.05-1.81,0.24-2.27,0.56
		s-0.69,0.83-0.69,1.51C92.79,252.9,93.34,253.48,94.45,253.48z"/>
	<path d="M102.5,241.5v-2.12h2.46v2.12H102.5z M102.5,255v-11.01h2.47V255H102.5z"/>
	<path d="M108.25,255v-15.62h2.47V255H108.25z"/>
	<path d="M116.32,243.99v6.16c0,1.12,0.18,1.92,0.53,2.41c0.35,0.49,0.9,0.73,1.64,0.73c0.8,0,1.44-0.31,1.91-0.92
		c0.47-0.61,0.71-1.47,0.71-2.56v-5.81h2.47v8.46c0,0.86,0.03,1.71,0.1,2.55h-2.35c-0.08-1.09-0.12-1.8-0.12-2.13h-0.04
		c-0.43,0.84-0.93,1.45-1.49,1.8c-0.56,0.36-1.28,0.54-2.16,0.54c-1.22,0-2.13-0.36-2.74-1.09c-0.61-0.73-0.92-1.84-0.92-3.35v-6.79
		H116.32z"/>
	<path d="M131.93,245.82c-0.8,0-1.44,0.35-1.92,1.06c-0.48,0.71-0.72,1.66-0.72,2.85V255h-2.47v-8.29c0-1.16-0.03-2.07-0.08-2.72
		h2.35c0.07,0.86,0.11,1.69,0.11,2.49h0.04c0.34-1.02,0.74-1.72,1.19-2.12c0.45-0.4,1.05-0.6,1.78-0.6c0.34,0,0.62,0.05,0.84,0.14
		v2.03C132.69,245.86,132.31,245.82,131.93,245.82z"/>
	<path d="M136.87,249.96c0.04,1.12,0.28,1.99,0.75,2.59c0.46,0.6,1.09,0.91,1.9,0.91c0.54,0,1.03-0.14,1.46-0.41
		c0.43-0.27,0.81-0.73,1.15-1.38l1.94,0.93c-0.42,0.68-0.85,1.2-1.27,1.55c-0.42,0.35-0.92,0.61-1.48,0.79
		c-0.56,0.18-1.23,0.26-2,0.26c-1.61,0-2.85-0.51-3.73-1.52c-0.87-1.01-1.31-2.44-1.31-4.27c0-1.85,0.46-3.25,1.38-4.22
		c0.92-0.96,2.17-1.45,3.75-1.45c1.57,0,2.77,0.51,3.6,1.54c0.83,1.03,1.25,2.48,1.25,4.36v0.3H136.87z M139.32,245.47
		c-0.72,0-1.3,0.26-1.73,0.77s-0.66,1.23-0.7,2.14h4.79c-0.07-0.97-0.29-1.7-0.67-2.19C140.64,245.71,140.08,245.47,139.32,245.47z"
		/>
</g>
<g>
	<path d="M89.62,310.74c0,1.45-0.46,2.55-1.38,3.33c-0.92,0.77-2.25,1.15-3.99,1.15c-1.53,0-2.74-0.33-3.61-1
		c-0.88-0.67-1.45-1.67-1.71-3.02l2.43-0.42c0.35,1.64,1.36,2.46,3.03,2.46c1.82,0,2.73-0.78,2.73-2.35c0-0.45-0.09-0.82-0.27-1.11
		c-0.18-0.29-0.43-0.53-0.74-0.72c-0.32-0.19-0.69-0.36-1.11-0.49c-0.43-0.13-0.88-0.27-1.37-0.41c-1.17-0.34-2.02-0.69-2.55-1.05
		s-0.93-0.82-1.21-1.38c-0.28-0.55-0.42-1.24-0.42-2.06c0-1.27,0.42-2.26,1.27-2.96c0.84-0.71,2.02-1.06,3.52-1.06
		c1.43,0,2.55,0.29,3.36,0.85c0.81,0.57,1.36,1.46,1.67,2.68l-2.46,0.44c-0.32-1.38-1.19-2.07-2.59-2.07
		c-0.72,0-1.28,0.18-1.67,0.53c-0.39,0.35-0.59,0.85-0.59,1.48c0,0.44,0.09,0.8,0.26,1.08c0.18,0.28,0.44,0.53,0.79,0.74
		c0.35,0.21,1.03,0.47,2.03,0.77c1.17,0.37,2.01,0.69,2.51,0.96c0.5,0.28,0.9,0.58,1.19,0.92c0.29,0.34,0.52,0.73,0.67,1.17
		S89.62,310.15,89.62,310.74z"/>
	<path d="M94.26,303.99v6.16c0,1.12,0.18,1.92,0.53,2.41c0.35,0.49,0.9,0.73,1.64,0.73c0.8,0,1.44-0.31,1.91-0.92
		c0.47-0.61,0.71-1.47,0.71-2.56v-5.81h2.47v8.46c0,0.86,0.03,1.71,0.1,2.55h-2.35c-0.08-1.09-0.12-1.8-0.12-2.13h-0.04
		c-0.43,0.84-0.93,1.45-1.49,1.8c-0.56,0.36-1.28,0.54-2.16,0.54c-1.22,0-2.13-0.36-2.74-1.09c-0.61-0.73-0.92-1.84-0.92-3.35v-6.79
		H94.26z"/>
	<path d="M108.8,315.22c-1.51,0-2.68-0.49-3.5-1.48c-0.82-0.99-1.23-2.38-1.23-4.18c0-1.85,0.42-3.27,1.26-4.28
		c0.84-1.01,2.02-1.51,3.56-1.51c2.5,0,3.93,1.14,4.3,3.43l-2.47,0.2c-0.08-0.61-0.28-1.07-0.61-1.37c-0.33-0.3-0.73-0.46-1.2-0.46
		c-0.81,0-1.4,0.32-1.78,0.96s-0.56,1.61-0.56,2.92c0,1.33,0.19,2.33,0.59,2.99c0.39,0.66,0.95,0.99,1.67,0.99
		c1.08,0,1.73-0.68,1.93-2.03l2.41,0.26C112.77,314.03,111.32,315.22,108.8,315.22z"/>
	<path d="M119.14,315.22c-1.51,0-2.68-0.49-3.5-1.48c-0.82-0.99-1.23-2.38-1.23-4.18c0-1.85,0.42-3.27,1.26-4.28
		c0.84-1.01,2.02-1.51,3.56-1.51c2.5,0,3.93,1.14,4.3,3.43l-2.47,0.2c-0.08-0.61-0.28-1.07-0.61-1.37c-0.33-0.3-0.73-0.46-1.2-0.46
		c-0.81,0-1.4,0.32-1.78,0.96s-0.56,1.61-0.56,2.92c0,1.33,0.19,2.33,0.59,2.99c0.39,0.66,0.95,0.99,1.67,0.99
		c1.08,0,1.73-0.68,1.93-2.03l2.41,0.26C123.12,314.03,121.66,315.22,119.14,315.22z"/>
	<path d="M127.36,309.96c0.04,1.12,0.28,1.99,0.75,2.59c0.46,0.6,1.09,0.91,1.9,0.91c0.54,0,1.03-0.14,1.46-0.41
		c0.43-0.27,0.81-0.73,1.15-1.38l1.94,0.93c-0.42,0.68-0.85,1.2-1.27,1.55c-0.42,0.35-0.92,0.61-1.48,0.79
		c-0.56,0.18-1.23,0.26-2,0.26c-1.61,0-2.85-0.51-3.73-1.52c-0.87-1.01-1.31-2.44-1.31-4.27c0-1.85,0.46-3.25,1.38-4.22
		c0.92-0.96,2.17-1.45,3.75-1.45c1.57,0,2.77,0.51,3.6,1.54c0.83,1.03,1.25,2.48,1.25,4.36v0.3H127.36z M129.81,305.47
		c-0.72,0-1.3,0.26-1.73,0.77s-0.66,1.23-0.7,2.14h4.79c-0.07-0.97-0.29-1.7-0.67-2.19C131.13,305.71,130.57,305.47,129.81,305.47z"
		/>
	<path d="M144.33,311.83c0,1.06-0.36,1.89-1.08,2.49c-0.72,0.6-1.73,0.9-3.02,0.9c-1.35,0-2.33-0.21-2.96-0.63
		c-0.63-0.42-1.05-1.1-1.25-2.04l2.13-0.33c0.1,0.49,0.31,0.85,0.64,1.06c0.33,0.21,0.79,0.32,1.4,0.32c0.55,0,1-0.12,1.34-0.35
		c0.34-0.24,0.51-0.62,0.51-1.15c0-0.32-0.08-0.59-0.23-0.8c-0.15-0.21-0.37-0.39-0.67-0.55c-0.3-0.15-0.88-0.34-1.73-0.57
		c-0.79-0.21-1.37-0.44-1.76-0.7c-0.38-0.26-0.68-0.59-0.89-0.99c-0.21-0.4-0.31-0.89-0.31-1.47c0-1.02,0.32-1.82,0.96-2.39
		c0.64-0.57,1.58-0.85,2.81-0.85c1.14,0,2.01,0.21,2.63,0.63c0.61,0.42,1,1.06,1.15,1.93l-2.15,0.23c-0.08-0.42-0.25-0.72-0.52-0.89
		s-0.63-0.26-1.09-0.26c-1.01,0-1.51,0.44-1.51,1.33c0,0.29,0.06,0.52,0.19,0.71c0.13,0.19,0.31,0.35,0.55,0.48
		c0.24,0.13,0.79,0.32,1.64,0.56c0.94,0.26,1.6,0.53,2,0.8c0.39,0.27,0.7,0.61,0.91,1.02S144.33,311.22,144.33,311.83z"/>
	<path d="M153.82,311.83c0,1.06-0.36,1.89-1.08,2.49c-0.72,0.6-1.73,0.9-3.02,0.9c-1.35,0-2.33-0.21-2.96-0.63
		c-0.63-0.42-1.05-1.1-1.25-2.04l2.13-0.33c0.1,0.49,0.31,0.85,0.64,1.06c0.33,0.21,0.79,0.32,1.4,0.32c0.55,0,1-0.12,1.34-0.35
		c0.34-0.24,0.51-0.62,0.51-1.15c0-0.32-0.08-0.59-0.23-0.8c-0.15-0.21-0.37-0.39-0.67-0.55c-0.3-0.15-0.88-0.34-1.73-0.57
		c-0.79-0.21-1.37-0.44-1.76-0.7c-0.38-0.26-0.68-0.59-0.89-0.99c-0.21-0.4-0.31-0.89-0.31-1.47c0-1.02,0.32-1.82,0.96-2.39
		c0.64-0.57,1.58-0.85,2.81-0.85c1.14,0,2.01,0.21,2.63,0.63c0.61,0.42,1,1.06,1.15,1.93l-2.15,0.23c-0.08-0.42-0.25-0.72-0.52-0.89
		s-0.63-0.26-1.09-0.26c-1.01,0-1.51,0.44-1.51,1.33c0,0.29,0.06,0.52,0.19,0.71c0.13,0.19,0.31,0.35,0.55,0.48
		c0.24,0.13,0.79,0.32,1.64,0.56c0.94,0.26,1.6,0.53,2,0.8c0.39,0.27,0.7,0.61,0.91,1.02S153.82,311.22,153.82,311.83z"/>
</g>
<g>
	<path d="M18.47,23.57c0,2.37-0.75,4.18-2.26,5.44s-3.68,1.89-6.53,1.89c-2.51,0-4.48-0.54-5.92-1.63s-2.37-2.74-2.8-4.94l3.97-0.69
		c0.57,2.68,2.23,4.03,4.96,4.03c2.98,0,4.46-1.28,4.46-3.85c0-0.74-0.15-1.34-0.44-1.81s-0.7-0.86-1.21-1.18s-1.12-0.58-1.82-0.8
		s-1.44-0.44-2.24-0.68c-1.92-0.55-3.31-1.13-4.17-1.72s-1.52-1.35-1.99-2.25S1.79,13.35,1.79,12c0-2.07,0.69-3.69,2.07-4.85
		s3.3-1.74,5.77-1.74c2.34,0,4.17,0.47,5.49,1.4s2.23,2.39,2.73,4.39l-4.03,0.72c-0.53-2.26-1.94-3.39-4.24-3.39
		c-1.18,0-2.09,0.29-2.73,0.87s-0.96,1.39-0.96,2.42c0,0.71,0.14,1.3,0.43,1.77s0.72,0.86,1.29,1.2s1.68,0.76,3.32,1.27
		c1.92,0.6,3.29,1.12,4.11,1.57s1.47,0.95,1.95,1.5s0.84,1.19,1.09,1.92S18.47,22.61,18.47,23.57z"/>
	<path d="M25.37,22.3c0.06,1.84,0.47,3.25,1.22,4.25s1.79,1.49,3.1,1.49c0.89,0,1.68-0.22,2.38-0.67s1.33-1.2,1.89-2.25l3.18,1.53
		c-0.69,1.11-1.38,1.96-2.07,2.53s-1.5,1-2.42,1.29s-2.01,0.43-3.28,0.43c-2.64,0-4.67-0.83-6.1-2.49s-2.14-3.99-2.14-6.99
		c0-3.02,0.75-5.32,2.25-6.9s3.54-2.36,6.13-2.36c2.57,0,4.53,0.84,5.89,2.52s2.04,4.06,2.04,7.13v0.49H25.37z M29.37,14.96
		c-1.18,0-2.13,0.42-2.83,1.27s-1.08,2.01-1.14,3.5h7.84c-0.12-1.59-0.48-2.79-1.09-3.58S30.62,14.96,29.37,14.96z"/>
	<path d="M41.4,30.55V4.99h4.04v25.56H41.4z"/>
	<path d="M56.21,15.47v15.08h-4.04V15.47h-3.16v-2.94h3.16v-2.27c0-1.83,0.46-3.18,1.37-4.05s2.3-1.31,4.17-1.31
		c1.22,0,2.26,0.08,3.13,0.23v2.71c-0.52-0.13-1.28-0.19-2.3-0.19c-0.82,0-1.41,0.23-1.78,0.68s-0.54,1.29-0.54,2.5v1.71h3.9v2.94
		H56.21z"/>
	<path d="M64.44,23.22v-3.55h10.18v3.55H64.44z"/>
	<path d="M92.57,30.55V20.48c0-1.86-0.26-3.18-0.78-3.96s-1.35-1.17-2.49-1.17c-1.24,0-2.23,0.5-2.95,1.51s-1.09,2.4-1.09,4.17v9.53
		h-4.04V16.68c0-1.39-0.05-2.78-0.16-4.15h3.85c0.13,1.76,0.19,2.92,0.19,3.48h0.07c0.68-1.38,1.46-2.37,2.36-2.96
		s2.02-0.89,3.39-0.89c2.82,0,4.61,1.28,5.34,3.85h0.12c0.63-1.32,1.4-2.3,2.31-2.92s2.08-0.93,3.52-0.93
		c1.93,0,3.38,0.59,4.34,1.76s1.44,3.01,1.44,5.5v11.13h-4.06V20.48c0-1.83-0.27-3.14-0.8-3.94s-1.38-1.2-2.54-1.2
		c-1.23,0-2.2,0.5-2.91,1.49s-1.06,2.35-1.06,4.09v9.63H92.57z"/>
	<path d="M126.79,30.55h-3.9l-0.14-2.85c-0.6,1.17-1.32,2-2.16,2.48s-1.88,0.72-3.11,0.72c-1.85,0-3.27-0.48-4.25-1.44
		s-1.47-2.3-1.47-4.01c0-1.88,0.67-3.31,2-4.31s3.3-1.54,5.91-1.62l3.08-0.11v-0.56c0-1.39-0.23-2.41-0.68-3.03
		s-1.22-0.94-2.29-0.94c-0.95,0-1.65,0.18-2.1,0.54s-0.76,0.91-0.92,1.66l-3.9-0.62c0.35-1.54,1.09-2.64,2.21-3.3s2.71-1,4.77-1
		c2.4,0,4.16,0.57,5.28,1.71s1.68,2.9,1.68,5.29V30.55z M118.71,28.05c1.25,0,2.24-0.44,2.97-1.31s1.09-2,1.09-3.37v-1.63
		l-1.92,0.07c-1.72,0.08-2.96,0.39-3.72,0.91S116,24.08,116,25.2C116,27.1,116.9,28.05,118.71,28.05z"/>
	<path d="M137.21,30.86c-1.41,0-2.52-0.4-3.33-1.2s-1.22-1.95-1.22-3.45V15.47h-2.65v-2.94h2.71L134,8.17h2.69v4.36h4.34v2.94h-4.34
		v9.72c0,1.78,0.76,2.67,2.27,2.67c0.71,0,1.48-0.08,2.3-0.23v2.71C139.92,30.69,138.57,30.86,137.21,30.86z"/>
	<path d="M151.47,30.9c-2.47,0-4.38-0.81-5.72-2.43s-2.01-3.9-2.01-6.84c0-3.02,0.69-5.36,2.06-7s3.31-2.47,5.82-2.47
		c4.09,0,6.43,1.87,7.03,5.61l-4.04,0.33c-0.13-1-0.46-1.74-0.99-2.24s-1.19-0.75-1.96-0.75c-1.32,0-2.29,0.52-2.91,1.56
		s-0.92,2.64-0.92,4.78c0,2.18,0.32,3.81,0.96,4.89s1.55,1.62,2.73,1.62c1.77,0,2.82-1.11,3.16-3.32l3.94,0.42
		C157.97,28.95,155.6,30.9,151.47,30.9z"/>
	<path d="M173.67,30.55V20.6c0-1.85-0.27-3.16-0.81-3.92s-1.38-1.14-2.53-1.14c-1.41,0-2.5,0.47-3.3,1.42s-1.19,2.26-1.19,3.92v9.67
		h-4.04V4.99h4.04v7.8c0,0.53-0.01,1.05-0.03,1.57s-0.04,1.05-0.06,1.57h0.07c0.66-1.31,1.43-2.27,2.33-2.87s2.08-0.91,3.54-0.91
		c2,0,3.51,0.59,4.51,1.77s1.5,3,1.5,5.46v11.16H173.67z"/>
	<path d="M182.78,8.45V4.99h4.03v3.46H182.78z M182.78,30.55V12.53h4.04v18.02H182.78z"/>
	<path d="M204.03,30.55V20.48c0-1.83-0.28-3.14-0.85-3.94s-1.47-1.2-2.7-1.2c-1.32,0-2.36,0.51-3.12,1.53s-1.13,2.4-1.13,4.15v9.53
		h-4.04V16.68c0-1.39-0.05-2.78-0.16-4.15h3.85c0.13,1.76,0.19,2.92,0.19,3.48h0.07c0.69-1.35,1.49-2.33,2.41-2.94
		s2.09-0.91,3.53-0.91c2,0,3.51,0.59,4.51,1.78s1.5,3.01,1.5,5.48v11.13H204.03z"/>
	<path d="M212.04,21.42c0-2.98,0.66-5.26,1.98-6.86s3.2-2.39,5.65-2.39c1.34,0,2.51,0.3,3.52,0.91s1.78,1.46,2.31,2.56h0.07
		c0-1.01,0.08-2.04,0.23-3.11h3.87c-0.09,1.05-0.14,2.39-0.14,4.01v13.48c0,2.04-0.76,3.79-2.27,5.26s-3.66,2.21-6.45,2.21
		c-4.61,0-7.27-1.61-7.98-4.83l4.03-0.62c0.45,1.65,1.8,2.48,4.08,2.48c1.49,0,2.63-0.45,3.41-1.34s1.18-1.93,1.18-3.11v-1.9
		c0-0.39,0.02-0.77,0.05-1.16h-0.07c-0.61,1.21-1.42,2.11-2.42,2.7s-2.26,0.89-3.77,0.89c-2.34,0-4.14-0.8-5.4-2.39
		S212.04,24.35,212.04,21.42z M216.28,21.42c0,4.13,1.52,6.19,4.57,6.19c1.54,0,2.7-0.55,3.5-1.64s1.2-2.64,1.2-4.63
		s-0.4-3.52-1.2-4.6s-1.95-1.61-3.46-1.61c-1.46,0-2.6,0.51-3.4,1.54S216.28,19.28,216.28,21.42z"/>
</g>
<rect x="188.67" y="131.64" class="st4" width="49.88" height="49"/>
<rect x="238.54" y="131.64" class="st5" width="49.88" height="49"/>
<rect x="288.42" y="131.64" class="st5" width="49.88" height="49"/>
<rect x="338.29" y="131.64" class="st5" width="49.88" height="49"/>
<text transform="matrix(1 0 0 1 204.4731 167.8511)" class="st1 st2">A</text>
<text transform="matrix(1 0 0 1 253 167.4751)" class="st1 st2">B</text>
<rect x="388.29" y="131.64" class="st5" width="49.88" height="49"/>
<text transform="matrix(1 0 0 1 305 167.8081)" class="st1 st2">B</text>
<text transform="matrix(1 0 0 1 353.4731 167.8511)" class="st1 st2">A</text>
<text transform="matrix(1 0 0 1 403 167.8081)" class="st1 st2">B</text>
<g>
	<path d="M456.23,155.14l0.79-3.75c3.62-1.58,6.43-3.42,8.41-5.52h2.56l-4.53,21.61h-4.23l3.12-14.88
		c-0.88,0.57-1.89,1.08-3.04,1.55S457.13,154.95,456.23,155.14z"/>
</g>
<rect x="238.67" y="206.64" class="st3" width="49.88" height="49"/>
<rect x="288.54" y="206.64" class="st4" width="49.88" height="49"/>
<rect x="338.42" y="206.64" class="st5" width="49.88" height="49"/>
<rect x="388.29" y="206.64" class="st5" width="49.88" height="49"/>
<text transform="matrix(1 0 0 1 254.4731 242.8511)" class="st1 st2">A</text>
<text transform="matrix(1 0 0 1 303 242.4751)" class="st1 st2">B</text>
<rect x="438.29" y="206.64" class="st5" width="49.88" height="49"/>
<text transform="matrix(1 0 0 1 355 242.8081)" class="st1 st2">B</text>
<text transform="matrix(1 0 0 1 403.4731 242.8511)" class="st1 st2">A</text>
<text transform="matrix(1 0 0 1 453 242.8081)" class="st1 st2">B</text>
<g>
	<path d="M510.59,227.69l-4.12-0.62c0.33-1.99,1.11-3.52,2.32-4.58s2.74-1.59,4.56-1.59c2,0,3.57,0.54,4.72,1.63
		s1.71,2.46,1.71,4.13c0,0.85-0.18,1.7-0.53,2.56s-0.93,1.75-1.73,2.69c-0.58,0.66-1.52,1.6-2.83,2.82s-2.18,2.05-2.6,2.49
		s-0.83,0.92-1.22,1.41h7.44l-0.79,3.84h-13.05c0.14-1.05,0.45-2.06,0.93-3.01s1.09-1.84,1.81-2.66s2.05-2.14,3.97-3.97
		c1.45-1.39,2.36-2.29,2.74-2.71c0.68-0.76,1.15-1.42,1.41-1.98s0.38-1.06,0.38-1.51c0-0.72-0.21-1.31-0.64-1.76
		s-0.96-0.67-1.62-0.67c-0.66,0-1.25,0.25-1.74,0.75S510.85,226.38,510.59,227.69z"/>
</g>
<rect x="287.67" y="281.64" class="st3" width="49.88" height="49"/>
<rect x="337.54" y="281.64" class="st3" width="49.88" height="49"/>
<rect x="387.42" y="281.64" class="st5" width="49.88" height="49"/>
<rect x="437.29" y="281.64" class="st5" width="49.88" height="49"/>
<text transform="matrix(1 0 0 1 303.4731 317.8511)" class="st1 st2">A</text>
<text transform="matrix(1 0 0 1 352 317.4751)" class="st1 st2">B</text>
<rect x="487.29" y="281.64" class="st5" width="49.88" height="49"/>
<text transform="matrix(1 0 0 1 404 317.8081)" class="st1 st2">B</text>
<text transform="matrix(1 0 0 1 452.4731 317.8511)" class="st1 st2">A</text>
<text transform="matrix(1 0 0 1 502 317.8081)" class="st1 st2">B</text>
<g>
	<path d="M553.19,311.86l4.03-0.48c0.17,1.14,0.47,1.93,0.9,2.37s1.01,0.66,1.74,0.66c0.96,0,1.75-0.32,2.38-0.97
		s0.94-1.47,0.94-2.47c0-0.88-0.25-1.58-0.76-2.09s-1.19-0.77-2.05-0.77c-0.21,0-0.44,0.02-0.67,0.06l0.73-3.5
		c0.15,0.02,0.29,0.03,0.42,0.03c1.12,0,1.98-0.29,2.56-0.86s0.88-1.35,0.88-2.32c0-0.69-0.2-1.24-0.59-1.64s-0.92-0.6-1.56-0.6
		c-0.61,0-1.15,0.22-1.63,0.67s-0.86,1.2-1.14,2.28l-3.84-0.76c0.49-1.58,1.17-2.8,2.04-3.65c1.32-1.27,2.94-1.9,4.86-1.9
		c1.97,0,3.47,0.55,4.5,1.65s1.54,2.41,1.54,3.95c0,1.11-0.33,2.12-0.98,3.02s-1.55,1.56-2.7,1.98c0.91,0.48,1.58,1.1,2.01,1.86
		c0.43,0.76,0.64,1.56,0.64,2.39c0,1.58-0.56,3.04-1.68,4.37c-1.53,1.82-3.51,2.72-5.93,2.72c-1.82,0-3.31-0.52-4.49-1.56
		S553.44,313.77,553.19,311.86z"/>
</g>
</svg>
